<svg width="908" height="441" viewBox="0 0 908 441" fill="none" xmlns="http://www.w3.org/2000/svg">
<g clip-path="url(#clip0_57_4876)">
<path d="M396.352 5.61244L323.265 247.143L781.432 368.222L854.519 126.692L396.352 5.61244Z" fill="#3F3D56"/>
<path d="M404.266 19.2605C406.362 19.2605 408.061 17.6729 408.061 15.7144C408.061 13.756 406.362 12.1683 404.266 12.1683C402.171 12.1683 400.472 13.756 400.472 15.7144C400.472 17.6729 402.171 19.2605 404.266 19.2605Z" fill="#E54E26"/>
<path d="M415.951 22.3484C418.047 22.3484 419.745 20.7607 419.745 18.8023C419.745 16.8438 418.047 15.2562 415.951 15.2562C413.855 15.2562 412.156 16.8438 412.156 18.8023C412.156 20.7607 413.855 22.3484 415.951 22.3484Z" fill="#E54E26"/>
<path d="M427.635 25.4362C429.731 25.4362 431.43 23.8485 431.43 21.8901C431.43 19.9316 429.731 18.344 427.635 18.344C425.54 18.344 423.841 19.9316 423.841 21.8901C423.841 23.8485 425.54 25.4362 427.635 25.4362Z" fill="#E54E26"/>
<path d="M639.506 158.872C633.373 157.788 627.064 157.928 620.992 159.28C622.76 153.607 623.206 147.646 622.301 141.797C616.048 143.913 610.39 147.325 605.751 151.778C604.295 145.714 601.387 140.038 597.245 135.176C593.197 139.715 590.236 145.012 588.563 150.71C584.149 146.586 578.852 143.38 573.019 141.302C573.019 141.302 570.256 154.436 576.909 165.213C582.83 174.805 594.207 179.294 596.639 180.166L596.696 180.229L596.727 180.197C596.973 180.284 597.112 180.329 597.112 180.329C597.112 180.329 597.164 180.077 597.236 179.627C597.28 179.576 597.324 179.525 597.372 179.468C597.382 179.54 597.391 179.605 597.4 179.67C597.209 180.089 597.112 180.329 597.112 180.329C597.112 180.329 597.254 180.359 597.514 180.405L597.522 180.448L597.606 180.421C600.167 180.869 612.374 182.612 622.793 177.339C634.5 171.413 639.506 158.872 639.506 158.872Z" fill="#E54E26"/>
<path d="M616.8 125.322C622.249 125.322 626.666 121.194 626.666 116.102C626.666 111.01 622.249 106.882 616.8 106.882C611.351 106.882 606.934 111.01 606.934 116.102C606.934 121.194 611.351 125.322 616.8 125.322Z" fill="#E54E26"/>
<path d="M740.677 235.809L444.187 157.455L442.362 163.484L738.853 241.837L740.677 235.809Z" fill="#E54E26"/>
<path d="M513.969 208.326L462.85 194.817L448.395 242.589L499.514 256.098L513.969 208.326Z" fill="#E54E26"/>
<path d="M608.905 233.415L557.786 219.905L543.33 267.677L594.449 281.187L608.905 233.415Z" fill="#E54E26"/>
<path d="M703.841 258.503L652.721 244.994L638.266 292.766L689.385 306.275L703.841 258.503Z" fill="#E54E26"/>
<path d="M490.05 263.916L452.076 253.88L450.837 257.975L488.811 268.01L490.05 263.916Z" fill="#E54E26"/>
<path d="M584.986 289.004L547.011 278.969L545.772 283.063L583.747 293.099L584.986 289.004Z" fill="#E54E26"/>
<path d="M679.921 314.093L641.947 304.057L640.708 308.152L678.682 318.187L679.921 314.093Z" fill="#E54E26"/>
<path d="M259.102 340.614C399.366 340.614 513.073 336.685 513.073 331.839C513.073 326.992 399.366 323.064 259.102 323.064C118.838 323.064 5.13184 326.992 5.13184 331.839C5.13184 336.685 118.838 340.614 259.102 340.614Z" fill="#D0CDE1"/>
<path d="M710.282 440.063C819.431 440.063 907.914 436.134 907.914 431.288C907.914 426.442 819.431 422.513 710.282 422.513C601.133 422.513 512.65 426.442 512.65 431.288C512.65 436.134 601.133 440.063 710.282 440.063Z" fill="#D0CDE1"/>
<path d="M613.352 363.178H670.368V385.461H637.196V407.744H670.371V430.025H613.352V363.178ZM681.773 363.178H738.79V382.554H705.617V386.429H738.79V430.995H681.774V410.648H714.948V406.772H681.771V363.178H681.773ZM750.195 363.178H807.213V382.554H774.039V386.429H807.213V430.995H750.195V410.648H783.369V406.772H750.197V363.178H750.195Z" fill="#3F3D56"/>
<path d="M115.027 261.221H138.549V282.938H160.065V261.221H183.588V326.986H160.067V304.964H138.55V326.986H115.029V261.221H115.027ZM214.518 283.03H193.814V261.221H258.76V283.03H238.043V326.986H214.522V283.03H214.518ZM269.067 261.221H293.592L308.679 284.329L323.751 261.221H348.287V326.986H324.861V294.389L308.679 317.772H308.273L292.081 294.389V326.986H269.067V261.221ZM359.992 261.221H383.521V305.248H416.598V326.986H359.991V261.221H359.992Z" fill="#3F3D56"/>
<path d="M73.4836 306.426L71.5538 326.873L86.9977 325.67V308.23L73.4836 306.426Z" fill="#FFB8B8"/>
<path d="M59.3267 306.426L61.2574 326.873L45.8135 325.67V308.23L59.3267 306.426Z" fill="#FFB8B8"/>
<path d="M99.868 149.467C99.868 149.467 105.016 178.333 105.016 182.543C105.016 186.752 103.086 213.814 99.868 219.227C96.6505 224.639 96.007 227.044 97.294 229.45C98.581 231.855 97.9375 231.254 97.294 233.058C96.6505 234.862 95.3634 234.261 97.294 236.666C98.0823 237.725 98.5049 238.985 98.5049 240.275C98.5049 241.565 98.0823 242.824 97.294 243.883C96.007 245.687 99.868 294.398 94.7199 298.007C89.5718 301.615 88.2848 313.642 88.2848 313.642L71.5535 311.838V298.608C71.5535 298.608 67.6925 288.986 70.2665 282.972C72.8406 276.959 74.1276 245.086 74.1276 245.086C74.1276 245.086 73.4841 242.079 74.1276 240.275C74.7711 238.471 74.1276 237.268 72.8406 236.666C71.5535 236.065 70.91 233.66 70.91 233.66L68.9795 189.759L61.2574 233.058C61.2574 233.058 68.9795 291.993 61.2574 299.811V313.642H44.5261L47.1001 298.608C47.1001 298.608 41.952 284.776 44.5261 281.77C47.1001 278.763 36.8039 230.653 38.091 228.848C39.378 227.044 38.7345 226.443 38.091 225.24C37.4475 224.037 35.5169 222.835 36.1604 221.632C36.804 220.429 36.1604 218.024 36.1604 218.024C36.1604 218.024 23.9337 161.494 29.7253 156.082C35.5169 150.67 99.868 149.467 99.868 149.467Z" fill="#2F2E41"/>
<path d="M75.4146 319.055C75.4146 319.055 76.7016 313.287 86.9978 315.269C86.9978 315.269 89.5718 320.258 89.5718 322.663C89.5718 325.069 92.1459 341.306 92.1459 341.306C92.1459 341.306 102.442 357.543 89.5718 357.543C76.7016 357.543 72.197 353.333 71.5535 349.124C70.91 344.914 72.197 343.711 69.623 341.907C67.0489 340.103 65.7619 340.103 66.4054 337.697C67.049 335.292 68.336 323.264 68.336 323.264C68.336 323.264 68.9795 314.244 72.5188 316.649L76.0581 319.055" fill="#2F2E41"/>
<path d="M57.3963 319.055C57.3963 319.055 56.1093 313.287 45.8131 315.269C45.8131 315.269 43.2391 320.258 43.2391 322.663C43.2391 325.069 40.665 341.306 40.665 341.306C40.665 341.306 30.3688 357.543 43.2391 357.543C56.1093 357.543 60.6138 353.333 61.2574 349.124C61.9009 344.914 60.6138 343.711 63.1879 341.907C65.7619 340.103 67.049 340.103 66.4055 337.697C65.7619 335.292 64.4749 323.264 64.4749 323.264C64.4749 323.264 63.8314 314.244 60.2921 316.649L56.7528 319.055" fill="#2F2E41"/>
<path d="M76.058 38.8139C85.6539 38.8139 93.4328 31.5443 93.4328 22.5768C93.4328 13.6093 85.6539 6.33966 76.058 6.33966C66.4622 6.33966 58.6832 13.6093 58.6832 22.5768C58.6832 31.5443 66.4622 38.8139 76.058 38.8139Z" fill="#FFB8B8"/>
<path d="M61.9009 24.9823C61.9009 24.9823 54.8222 50.8414 53.5352 51.4428C52.2482 52.0442 83.1367 54.4497 83.1367 54.4497C83.1367 54.4497 75.4146 32.1988 83.1367 28.5905L61.9009 24.9823Z" fill="#FFB8B8"/>
<path d="M57.3802 40.7407L57.3793 40.7374L36.1604 54.4497L40.0215 162.096C40.0215 162.096 68.336 159.089 74.7711 159.69C81.2062 160.292 101.799 154.278 101.799 154.278L92.7787 53.1274C92.6025 51.1509 91.6755 49.2986 90.1652 47.9051C88.655 46.5116 86.6612 45.669 84.5442 45.5294L80.6794 45.2748C80.6794 45.2748 76.8186 54.2079 65.2025 49.5993C63.244 48.8031 61.5146 47.5856 60.1552 46.0462C58.7958 44.5067 57.8449 42.6888 57.3802 40.7407Z" fill="#D0CDE1"/>
<path d="M57.8933 39.7589L31.6558 51.4428L26.5077 120.601C26.5077 120.601 16.2115 162.096 24.5772 174.123C32.9428 186.151 47.1001 187.354 47.1001 187.354C47.1001 187.354 65.7619 118.195 60.6138 94.7418C55.4657 71.2882 57.8933 39.7589 57.8933 39.7589Z" fill="#575A89"/>
<path d="M8.48945 144.055V153.075C8.48945 153.075 4.62838 172.921 16.8551 172.319C29.0818 171.718 23.2902 150.67 23.2902 150.67L19.4291 144.055H8.48945Z" fill="#FFB8B8"/>
<path d="M121.747 162.096L120.46 172.319C120.46 172.319 126.895 192.766 114.669 193.367C102.442 193.969 111.317 172.445 111.317 172.445L115.312 160.893L121.747 162.096Z" fill="#FFB8B8"/>
<path d="M80.2921 43.173C92.0175 45.872 102.883 51.1505 111.983 58.5686L112.095 58.6593L103.085 103.161L101.798 119.398C101.798 119.398 125.608 198.78 97.9374 187.354C97.9374 187.354 74.1275 118.195 77.345 86.3225C80.5626 54.4497 80.2921 43.173 80.2921 43.173Z" fill="#575A89"/>
<path d="M103.729 58.0579C104.373 57.4565 112.095 58.8936 112.095 58.8936C112.095 58.8936 126.252 105.567 126.252 113.384C126.252 121.202 128.183 165.704 128.183 165.704L111.196 167.304L97.4465 105.473L103.729 58.0579Z" fill="#575A89"/>
<path d="M36.1604 51.4428H31.6558C31.6558 51.4428 18.7856 56.2538 18.1421 61.6662C17.4986 67.0786 0.123779 121.804 0.123779 121.804L4.62836 149.467L21.3596 147.061L24.5772 116.391L41.3085 82.7143L36.1604 51.4428Z" fill="#575A89"/>
<path d="M72.6826 27.1084L73.3487 22.7687C73.504 21.7572 74.1375 20.4272 75.1905 20.7023C76.0862 20.9363 78.0376 21.6528 78.3643 21.4365C79.5879 20.6265 81.4394 22.0429 82.7261 21.3233C83.2651 21.0218 83.6167 20.376 84.2433 20.3328C84.6636 20.3579 85.0597 20.5256 85.3571 20.8044C86.1923 21.4832 87.1764 21.9828 88.2403 22.2681C88.774 22.4039 89.337 22.4039 89.8707 22.2679C90.4044 22.132 90.8895 21.8651 91.2756 21.495C91.412 21.2978 91.5958 21.1331 91.8124 21.0141C92.0666 20.9456 92.3378 20.9573 92.5842 21.0473L95.8716 21.8837C96.3551 20.2455 96.4544 18.529 96.1627 16.8516C95.871 15.1742 95.1953 13.5755 94.1816 12.1646C92.8479 10.4729 91.2312 8.99317 89.3935 7.78242C87.3576 6.33504 85.2567 4.97367 83.0905 3.69831C80.794 2.17986 78.1873 1.12003 75.4329 0.584977C72.6607 0.191568 69.5566 0.895414 67.8129 2.94752C66.9927 2.39277 66.3762 1.61448 66.0479 0.719382C65.8524 0.885621 65.6983 1.08995 65.5965 1.31793C65.4948 1.54591 65.4478 1.79198 65.4589 2.03879C65.47 2.2856 65.5389 2.52712 65.6608 2.74631C65.7828 2.96549 65.9547 3.157 66.1645 3.3073L63.3842 1.64813C62.6026 2.41503 64.1296 3.80567 63.4637 4.66261C63.2623 4.87456 63.0039 5.03226 62.7152 5.11932C61.2056 5.66918 59.822 6.483 58.6386 7.51717C57.1403 9.11241 56.0432 11.001 55.428 13.0442C53.7713 17.4859 52.5672 22.5797 54.921 26.7375C55.1879 27.2089 58.7104 34.9889 59.1797 35.2923C60.7661 36.3178 59.7334 33.8359 60.8701 35.2923C61.7615 36.4343 61.5947 32.0633 62.9195 33.0228C63.4388 33.37 64.0548 33.5691 64.6928 33.596C65.3308 33.6228 65.9635 33.4761 66.5141 33.1738C67.0634 32.8179 66.8864 30.8412 66.59 29.026C66.5333 28.6802 66.5683 28.3267 66.6918 27.9965C66.8153 27.6663 67.0235 27.3695 67.2983 27.132C67.5732 26.8945 67.9061 26.7236 68.268 26.6344C68.6299 26.5451 69.0097 26.5402 69.3741 26.62C71.0241 26.9827 72.6543 27.2927 72.6826 27.1084Z" fill="#2F2E41"/>
<path opacity="0.2" d="M105.338 112.482L112.416 167.208H107.912L105.338 112.482Z" fill="black"/>
<path opacity="0.2" d="M30.6905 91.434L27.1117 112.482L33.9081 91.434H31.9774H30.6905Z" fill="black"/>
</g>
<defs>
<clipPath id="clip0_57_4876">
<rect width="907.79" height="439.582" fill="white" transform="translate(0.123779 0.480591)"/>
</clipPath>
</defs>
</svg>
