<svg width="650" height="315" viewBox="0 0 650 315" fill="none" xmlns="http://www.w3.org/2000/svg">
<g clip-path="url(#clip0_197_1537)">
<path d="M283.709 3.67749L231.377 176.755L559.436 263.519L611.768 90.4415L283.709 3.67749Z" fill="#3F3D56"/>
<path d="M289.376 13.4574C290.877 13.4574 292.093 12.3197 292.093 10.9163C292.093 9.51293 290.877 8.37524 289.376 8.37524C287.876 8.37524 286.659 9.51293 286.659 10.9163C286.659 12.3197 287.876 13.4574 289.376 13.4574Z" fill="#E54E26"/>
<path d="M297.742 15.6701C299.243 15.6701 300.459 14.5324 300.459 13.129C300.459 11.7256 299.243 10.5879 297.742 10.5879C296.242 10.5879 295.025 11.7256 295.025 13.129C295.025 14.5324 296.242 15.6701 297.742 15.6701Z" fill="#E54E26"/>
<path d="M306.109 17.883C307.609 17.883 308.826 16.7453 308.826 15.3419C308.826 13.9385 307.609 12.8008 306.109 12.8008C304.608 12.8008 303.392 13.9385 303.392 15.3419C303.392 16.7453 304.608 17.883 306.109 17.883Z" fill="#E54E26"/>
<path d="M457.814 113.502C453.422 112.725 448.904 112.825 444.557 113.794C445.822 109.729 446.142 105.457 445.494 101.266C441.017 102.782 436.965 105.227 433.644 108.418C432.601 104.073 430.519 100.006 427.554 96.5215C424.655 99.7741 422.535 103.57 421.337 107.653C418.176 104.698 414.383 102.4 410.207 100.911C410.207 100.911 408.229 110.323 412.992 118.045C417.232 124.919 425.378 128.136 427.119 128.76L427.16 128.806L427.182 128.783C427.359 128.846 427.458 128.878 427.458 128.878C427.458 128.878 427.495 128.697 427.547 128.374C427.578 128.338 427.61 128.301 427.644 128.261C427.651 128.312 427.658 128.359 427.664 128.405C427.527 128.705 427.458 128.878 427.458 128.878C427.458 128.878 427.56 128.899 427.746 128.932L427.751 128.963L427.812 128.944C429.645 129.264 438.386 130.514 445.847 126.735C454.229 122.489 457.814 113.502 457.814 113.502Z" fill="#E54E26"/>
<path d="M441.555 89.46C445.457 89.46 448.619 86.502 448.619 82.8532C448.619 79.2043 445.457 76.2463 441.555 76.2463C437.654 76.2463 434.491 79.2043 434.491 82.8532C434.491 86.502 437.654 89.46 441.555 89.46Z" fill="#E54E26"/>
<path d="M530.254 168.634L317.96 112.487L316.654 116.806L528.948 172.953L530.254 168.634Z" fill="#E54E26"/>
<path d="M367.926 148.94L331.323 139.26L320.973 173.492L357.575 183.173L367.926 148.94Z" fill="#E54E26"/>
<path d="M435.902 166.918L399.3 157.238L388.949 191.47L425.551 201.151L435.902 166.918Z" fill="#E54E26"/>
<path d="M503.878 184.896L467.276 175.216L456.925 209.448L493.528 219.129L503.878 184.896Z" fill="#E54E26"/>
<path d="M350.799 188.775L323.609 181.584L322.722 184.518L349.912 191.709L350.799 188.775Z" fill="#E54E26"/>
<path d="M418.775 206.753L391.585 199.562L390.698 202.496L417.888 209.687L418.775 206.753Z" fill="#E54E26"/>
<path d="M486.751 224.731L459.561 217.54L458.674 220.474L485.864 227.665L486.751 224.731Z" fill="#E54E26"/>
<path d="M185.435 243.736C285.867 243.736 367.284 240.92 367.284 237.448C367.284 233.975 285.867 231.16 185.435 231.16C85.0025 231.16 3.58594 233.975 3.58594 237.448C3.58594 240.92 85.0025 243.736 185.435 243.736Z" fill="#D0CDE1"/>
<path d="M508.491 315C586.644 315 650 312.185 650 308.712C650 305.239 586.644 302.424 508.491 302.424C430.337 302.424 366.981 305.239 366.981 308.712C366.981 312.185 430.337 315 508.491 315Z" fill="#D0CDE1"/>
<path d="M439.086 259.905H479.911V275.873H456.159V291.841H479.913V307.807H439.086V259.905ZM488.077 259.905H528.903V273.79H505.15V276.567H528.903V308.502H488.078V293.921H511.831V291.145H488.076V259.905H488.077ZM537.069 259.905H577.895V273.79H554.142V276.567H577.895V308.502H537.069V293.921H560.822V291.145H537.07V259.905H537.069Z" fill="#3F3D56"/>
<path d="M82.2739 186.844H99.1156V202.406H114.522V186.844H131.365V233.97H114.523V218.189H99.1167V233.97H82.275V186.844H82.2739ZM153.511 202.472H138.687V186.844H185.19V202.472H170.356V233.97H153.514V202.472H153.511ZM192.57 186.844H210.131L220.933 203.403L231.725 186.844H249.293V233.97H232.52V210.612L220.933 227.368H220.643L209.048 210.612V233.97H192.57V186.844ZM257.675 186.844H274.522V218.393H298.206V233.97H257.674V186.844H257.675Z" fill="#3F3D56"/>
<path d="M52.5275 219.237L51.1458 233.889L62.204 233.027V220.53L52.5275 219.237Z" fill="#FFB8B8"/>
<path d="M42.3906 219.237L43.7731 233.889L32.7148 233.027V220.53L42.3906 219.237Z" fill="#FFB8B8"/>
<path d="M71.4193 106.762C71.4193 106.762 75.1055 127.447 75.1055 130.464C75.1055 133.48 73.7232 152.872 71.4193 156.751C69.1155 160.629 68.6547 162.353 69.5762 164.077C70.4978 165.801 70.037 165.37 69.5762 166.662C69.1155 167.955 68.1939 167.524 69.5762 169.248C70.1407 170.007 70.4433 170.909 70.4433 171.834C70.4433 172.758 70.1407 173.661 69.5762 174.419C68.6547 175.712 71.4193 210.618 67.7331 213.204C64.047 215.79 63.1255 224.408 63.1255 224.408L51.1454 223.116V213.635C51.1454 213.635 48.3808 206.74 50.2239 202.43C52.067 198.121 52.9885 175.281 52.9885 175.281C52.9885 175.281 52.5278 173.127 52.9885 171.834C53.4493 170.541 52.9885 169.679 52.067 169.248C51.1455 168.817 50.6847 167.093 50.6847 167.093L49.3024 135.635L43.7731 166.662C43.7731 166.662 49.3024 208.895 43.7731 214.497V224.408H31.7931L33.6362 213.635C33.6362 213.635 29.9501 203.723 31.7931 201.569C33.6362 199.414 26.2639 164.939 27.1854 163.646C28.107 162.353 27.6462 161.922 27.1854 161.06C26.7247 160.198 25.3424 159.337 25.8031 158.475C26.2639 157.613 25.8031 155.889 25.8031 155.889C25.8031 155.889 17.0485 115.381 21.1954 111.502C25.3424 107.624 71.4193 106.762 71.4193 106.762Z" fill="#2F2E41"/>
<path d="M53.91 228.287C53.91 228.287 54.8315 224.154 62.2038 225.574C62.2038 225.574 64.0469 229.149 64.0469 230.873C64.0469 232.596 65.89 244.232 65.89 244.232C65.89 244.232 73.2623 255.867 64.0469 255.867C54.8315 255.867 51.6061 252.851 51.1454 249.834C50.6846 246.817 51.6061 245.956 49.7631 244.663C47.92 243.37 46.9984 243.37 47.4592 241.646C47.92 239.922 48.8415 231.304 48.8415 231.304C48.8415 231.304 49.3023 224.839 51.8365 226.563L54.3708 228.287" fill="#2F2E41"/>
<path d="M41.0085 228.287C41.0085 228.287 40.0869 224.154 32.7146 225.574C32.7146 225.574 30.8715 229.149 30.8715 230.873C30.8715 232.596 29.0285 244.232 29.0285 244.232C29.0285 244.232 21.6561 255.867 30.8715 255.867C40.0869 255.867 43.3123 252.851 43.7731 249.834C44.2338 246.817 43.3123 245.956 45.1554 244.663C46.9985 243.37 47.92 243.37 47.4592 241.646C46.9985 239.922 46.0769 231.304 46.0769 231.304C46.0769 231.304 45.6161 224.839 43.0819 226.563L40.5477 228.287" fill="#2F2E41"/>
<path d="M54.3707 27.4692C61.2416 27.4692 66.8115 22.2599 66.8115 15.8338C66.8115 9.40781 61.2416 4.19849 54.3707 4.19849C47.4999 4.19849 41.9299 9.40781 41.9299 15.8338C41.9299 22.2599 47.4999 27.4692 54.3707 27.4692Z" fill="#FFB8B8"/>
<path d="M44.2339 17.5576C44.2339 17.5576 39.1654 36.088 38.2438 36.5189C37.3223 36.9499 59.4392 38.6736 59.4392 38.6736C59.4392 38.6736 53.91 22.7289 59.4392 20.1432L44.2339 17.5576Z" fill="#FFB8B8"/>
<path d="M40.9969 28.8501L40.9963 28.8477L25.803 38.6738L28.5676 115.812C28.5676 115.812 48.8415 113.657 53.4491 114.088C58.0568 114.519 72.8015 110.21 72.8015 110.21L66.3431 37.7262C66.2169 36.3099 65.5531 34.9825 64.4717 33.984C63.3904 32.9854 61.9628 32.3816 60.4469 32.2816L57.6796 32.0991C57.6796 32.0991 54.9152 38.5005 46.5978 35.198C45.1955 34.6275 43.9572 33.7551 42.9838 32.6519C42.0105 31.5487 41.3296 30.246 40.9969 28.8501Z" fill="#D0CDE1"/>
<path d="M41.3644 28.1465L22.5778 36.5191L18.8916 86.0771C18.8916 86.0771 11.5193 115.812 17.5093 124.431C23.4993 133.049 33.6362 133.911 33.6362 133.911C33.6362 133.911 46.9985 84.3533 43.3124 67.5467C39.6262 50.7401 41.3644 28.1465 41.3644 28.1465Z" fill="#575A89"/>
<path d="M5.98995 102.884V109.348C5.98995 109.348 3.22533 123.569 11.9799 123.138C20.7346 122.707 16.5876 107.624 16.5876 107.624L13.823 102.884H5.98995Z" fill="#FFB8B8"/>
<path d="M87.0853 115.812L86.1638 123.138C86.1638 123.138 90.7715 137.79 82.0169 138.221C73.2622 138.652 79.617 123.228 79.617 123.228L82.4776 114.95L87.0853 115.812Z" fill="#FFB8B8"/>
<path d="M57.4024 30.593C65.7981 32.5271 73.578 36.3096 80.0941 41.6253L80.1738 41.6903L73.723 73.5798L72.8015 85.2151C72.8015 85.2151 89.8499 142.099 70.0368 133.911C70.0368 133.911 52.9884 84.3532 55.2922 61.5135C57.5961 38.6737 57.4024 30.593 57.4024 30.593Z" fill="#575A89"/>
<path d="M74.184 41.2592C74.6448 40.8283 80.174 41.8581 80.174 41.8581C80.174 41.8581 90.3109 75.3034 90.3109 80.9056C90.3109 86.5078 91.6932 118.397 91.6932 118.397L79.5304 119.544L69.6855 75.2365L74.184 41.2592Z" fill="#575A89"/>
<path d="M25.8031 36.519H22.5777C22.5777 36.519 13.3623 39.9666 12.9015 43.845C12.4408 47.7235 0 86.9389 0 86.9389L3.22539 106.762L15.2054 105.038L17.5092 83.0605L29.4893 58.9279L25.8031 36.519Z" fill="#575A89"/>
<path d="M51.9539 19.0812L52.4308 15.9714C52.542 15.2466 52.9956 14.2935 53.7496 14.4907C54.3909 14.6583 55.7882 15.1718 56.0222 15.0168C56.8982 14.4364 58.224 15.4513 59.1452 14.9357C59.5312 14.7196 59.783 14.2568 60.2316 14.2259C60.5326 14.2439 60.8162 14.3641 61.0291 14.5638C61.6272 15.0502 62.3318 15.4082 63.0936 15.6127C63.4757 15.71 63.8788 15.71 64.261 15.6126C64.6431 15.5152 64.9904 15.3239 65.2669 15.0587C65.3646 14.9174 65.4962 14.7994 65.6513 14.7141C65.8333 14.665 66.0275 14.6734 66.2039 14.7379L68.5578 15.3373C68.904 14.1633 68.9751 12.9333 68.7662 11.7313C68.5574 10.5293 68.0735 9.38364 67.3477 8.37263C66.3928 7.16036 65.2351 6.10002 63.9193 5.23242C62.4616 4.19524 60.9572 3.21969 59.4062 2.30578C57.7618 1.21768 55.8953 0.458218 53.9232 0.074802C51.9382 -0.207111 49.7156 0.297258 48.467 1.76777C47.8797 1.37025 47.4383 0.812533 47.2033 0.171115C47.0633 0.29024 46.953 0.43666 46.8801 0.600028C46.8072 0.763397 46.7736 0.939731 46.7815 1.11659C46.7895 1.29345 46.8388 1.46652 46.9261 1.62359C47.0134 1.78065 47.1365 1.91789 47.2867 2.02559L45.296 0.836644C44.7364 1.3862 45.8297 2.38271 45.3529 2.99679C45.2087 3.14867 45.0237 3.26167 44.817 3.32406C43.7361 3.71809 42.7454 4.30126 41.898 5.04234C40.8252 6.18547 40.0397 7.53878 39.5992 9.00294C38.4129 12.1858 37.5507 15.836 39.2362 18.8154C39.4272 19.1532 41.9494 24.7283 42.2855 24.9457C43.4214 25.6806 42.6819 23.9021 43.4959 24.9457C44.1341 25.7641 44.0147 22.6318 44.9632 23.3194C45.3351 23.5682 45.7762 23.7109 46.233 23.7301C46.6898 23.7493 47.1428 23.6443 47.5371 23.4276C47.9304 23.1725 47.8036 21.7561 47.5914 20.4553C47.5509 20.2075 47.5759 19.9542 47.6643 19.7176C47.7527 19.481 47.9019 19.2683 48.0986 19.0981C48.2954 18.9279 48.5338 18.8055 48.7929 18.7415C49.0521 18.6776 49.324 18.674 49.5849 18.7312C50.7664 18.9912 51.9336 19.2133 51.9539 19.0812Z" fill="#2F2E41"/>
<path opacity="0.2" d="M75.3362 80.259L80.4043 119.475H77.179L75.3362 80.259Z" fill="black"/>
<path opacity="0.2" d="M21.8865 65.1763L19.324 80.2591L24.1904 65.1763H22.8079H21.8865Z" fill="black"/>
</g>
<defs>
<clipPath id="clip0_197_1537">
<rect width="650" height="315" fill="white"/>
</clipPath>
</defs>
</svg>
