<svg width="1920" height="433" viewBox="0 0 1920 433" fill="none" xmlns="http://www.w3.org/2000/svg">
<g opacity="0.8" clip-path="url(#clip0_3_931)">
<path d="M1920 346.052L1879.89 344.465C1839.57 342.951 1759.36 339.779 1679.36 341.942C1599.36 344.105 1519.57 351.603 1439.57 354.847C1359.57 358.091 1279.36 357.082 1199.36 352.324C1119.36 347.493 1039.57 338.842 959.573 339.203C879.573 339.563 799.36 348.935 719.36 352.684C639.36 356.361 559.573 354.487 479.573 351.098C399.573 347.71 319.36 342.951 239.36 342.663C159.36 342.447 79.5734 346.772 39.8934 348.935L-7.62939e-06 351.098V433.285H39.8934C79.5734 433.285 159.36 433.285 239.36 433.285C319.36 433.285 399.573 433.285 479.573 433.285C559.573 433.285 639.36 433.285 719.36 433.285C799.36 433.285 879.573 433.285 959.573 433.285C1039.57 433.285 1119.36 433.285 1199.36 433.285C1279.36 433.285 1359.57 433.285 1439.57 433.285C1519.57 433.285 1599.36 433.285 1679.36 433.285C1759.36 433.285 1839.57 433.285 1879.89 433.285H1920V346.052Z" fill="#FF0000"/>
<path d="M1920 377.773L1879.89 373.952C1839.57 370.059 1759.36 362.417 1679.36 362.417C1599.36 362.417 1519.57 370.059 1439.57 370.203C1359.57 370.347 1279.36 362.849 1199.36 361.552C1119.36 360.254 1039.57 365.012 959.573 366.022C879.573 366.959 799.36 364.075 719.36 363.21C639.36 362.417 559.573 363.57 479.573 363.57C399.573 363.57 319.36 362.417 239.36 362.273C159.36 362.128 79.5733 363.138 39.8933 363.57L-0.000100136 364.075V433.285H39.8933C79.5733 433.285 159.36 433.285 239.36 433.285C319.36 433.285 399.573 433.285 479.573 433.285C559.573 433.285 639.36 433.285 719.36 433.285C799.36 433.285 879.573 433.285 959.573 433.285C1039.57 433.285 1119.36 433.285 1199.36 433.285C1279.36 433.285 1359.57 433.285 1439.57 433.285C1519.57 433.285 1599.36 433.285 1679.36 433.285C1759.36 433.285 1839.57 433.285 1879.89 433.285H1920V377.773Z" fill="#FF4D0B"/>
<path d="M1920 374.889L1879.89 378.71C1839.57 382.603 1759.36 390.245 1679.36 393.273C1599.36 396.301 1519.57 394.571 1439.57 394.859C1359.57 395.075 1279.36 397.238 1199.36 397.743C1119.36 398.176 1039.57 397.022 959.573 394.138C879.573 391.254 799.36 386.64 719.36 386.424C639.36 386.208 559.573 390.245 479.573 389.668C399.573 389.092 319.36 383.757 239.36 383.685C159.36 383.54 79.5733 388.587 39.8933 391.11L-0.000100136 393.634V433.285H39.8933C79.5733 433.285 159.36 433.285 239.36 433.285C319.36 433.285 399.573 433.285 479.573 433.285C559.573 433.285 639.36 433.285 719.36 433.285C799.36 433.285 879.573 433.285 959.573 433.285C1039.57 433.285 1119.36 433.285 1199.36 433.285C1279.36 433.285 1359.57 433.285 1439.57 433.285C1519.57 433.285 1599.36 433.285 1679.36 433.285C1759.36 433.285 1839.57 433.285 1879.89 433.285H1920V374.889Z" fill="#FF7021"/>
<path d="M1951 415.975L1910.25 415.404C1869.27 414.762 1787.77 413.621 1706.47 411.338C1625.18 409.056 1544.11 405.775 1462.82 403.635C1381.52 401.496 1300.02 400.497 1218.72 400.996C1137.43 401.496 1056.36 403.35 975.066 404.42C893.775 405.49 812.266 405.775 730.975 404.919C649.683 404.063 568.608 402.209 487.317 401.139C406.025 400.069 324.517 399.784 243.225 402.209C161.933 404.563 80.8583 409.555 40.5377 412.052L0.000120099 414.548V433.092H40.5377C80.8583 433.092 161.933 433.092 243.225 433.092C324.517 433.092 406.025 433.092 487.317 433.092C568.608 433.092 649.683 433.092 730.975 433.092C812.266 433.092 893.775 433.092 975.066 433.092C1056.36 433.092 1137.43 433.092 1218.72 433.092C1300.02 433.092 1381.52 433.092 1462.82 433.092C1544.11 433.092 1625.18 433.092 1706.47 433.092C1787.77 433.092 1869.27 433.092 1910.25 433.092H1951V415.975Z" fill="#FF8C39"/>
<g clip-path="url(#clip1_3_931)">
<path d="M1281 292.429V292.307C1280.94 292.32 1280.87 292.333 1280.81 292.329C1280.76 292.325 1280.7 292.304 1280.65 292.301C1280.6 292.298 1280.54 292.313 1280.49 292.311C1280.43 292.309 1280.36 292.29 1280.31 292.288C1280.26 292.285 1280.22 292.3 1280.17 292.306C1280.12 292.312 1280.06 292.31 1280 292.307V292.429H1281Z" fill="url(#paint0_linear_3_931)"/>
<path d="M1281 292.429V292.368C1280.93 292.361 1280.86 292.354 1280.8 292.354C1280.75 292.353 1280.72 292.359 1280.68 292.362C1280.65 292.366 1280.6 292.366 1280.53 292.362C1280.46 292.358 1280.37 292.35 1280.31 292.352C1280.24 292.354 1280.2 292.365 1280.15 292.369C1280.11 292.374 1280.05 292.371 1280 292.368V292.429H1281Z" fill="url(#paint1_linear_3_931)"/>
</g>
</g>
<defs>
<linearGradient id="paint0_linear_3_931" x1="1281" y1="292.358" x2="1280" y2="292.358" gradientUnits="userSpaceOnUse">
<stop offset="0.05" stop-color="#FF0000"/>
<stop offset="0.95" stop-color="#FF8C39"/>
</linearGradient>
<linearGradient id="paint1_linear_3_931" x1="1281" y1="292.391" x2="1280" y2="292.391" gradientUnits="userSpaceOnUse">
<stop offset="0.05" stop-color="#FF0000"/>
<stop offset="0.95" stop-color="#FF8C39"/>
</linearGradient>
<clipPath id="clip0_3_931">
<rect width="1920" height="432.564" fill="white" transform="matrix(-1 0 0 1 1920 0)"/>
</clipPath>
<clipPath id="clip1_3_931">
<rect width="0.999939" height="0.528168" fill="white" transform="matrix(-1 0 0 1 1281 292.073)"/>
</clipPath>
</defs>
</svg>
