<svg width="1917" height="491" viewBox="0 0 1917 491" fill="none" xmlns="http://www.w3.org/2000/svg">
<g opacity="0.8" clip-path="url(#clip0_3_907)">
<path d="M0 410.496L40.1067 408.615C80.4267 406.819 160.64 403.056 240.64 405.622C320.64 408.187 400.427 417.081 480.427 420.93C560.427 424.778 640.64 423.581 720.64 417.937C800.64 412.207 880.427 401.944 960.427 402.372C1040.43 402.8 1120.64 413.917 1200.64 418.364C1280.64 422.726 1360.43 420.502 1440.43 416.483C1520.43 412.463 1600.64 406.819 1680.64 406.477C1760.64 406.22 1840.43 411.352 1880.11 413.917L1920 416.483V513.976H1880.11C1840.43 513.976 1760.64 513.976 1680.64 513.976C1600.64 513.976 1520.43 513.976 1440.43 513.976C1360.43 513.976 1280.64 513.976 1200.64 513.976C1120.64 513.976 1040.43 513.976 960.427 513.976C880.427 513.976 800.64 513.976 720.64 513.976C640.64 513.976 560.427 513.976 480.427 513.976C400.427 513.976 320.64 513.976 240.64 513.976C160.64 513.976 80.4267 513.976 40.1067 513.976H0V410.496Z" fill="#FF0000"/>
<path d="M0 448.125L40.1067 443.593C80.4267 438.975 160.64 429.909 240.64 429.909C320.64 429.909 400.427 438.975 480.427 439.146C560.427 439.317 640.64 430.423 720.64 428.883C800.64 427.344 880.427 432.988 960.427 434.185C1040.43 435.297 1120.64 431.876 1200.64 430.85C1280.64 429.909 1360.43 431.278 1440.43 431.278C1520.43 431.278 1600.64 429.909 1680.64 429.738C1760.64 429.567 1840.43 430.765 1880.11 431.278L1920 431.876V513.976H1880.11C1840.43 513.976 1760.64 513.976 1680.64 513.976C1600.64 513.976 1520.43 513.976 1440.43 513.976C1360.43 513.976 1280.64 513.976 1200.64 513.976C1120.64 513.976 1040.43 513.976 960.427 513.976C880.427 513.976 800.64 513.976 720.64 513.976C640.64 513.976 560.427 513.976 480.427 513.976C400.427 513.976 320.64 513.976 240.64 513.976C160.64 513.976 80.4267 513.976 40.1067 513.976H0V448.125Z" fill="#FF4D0B"/>
<path d="M0 444.704L40.1067 449.237C80.4267 453.855 160.64 462.92 240.64 466.512C320.64 470.104 400.427 468.051 480.427 468.393C560.427 468.65 640.64 471.216 720.64 471.814C800.64 472.327 880.427 470.959 960.427 467.538C1040.43 464.117 1120.64 458.644 1200.64 458.388C1280.64 458.131 1360.43 462.92 1440.43 462.236C1520.43 461.552 1600.64 455.223 1680.64 455.138C1760.64 454.967 1840.43 460.953 1880.11 463.946L1920 466.94V513.976H1880.11C1840.43 513.976 1760.64 513.976 1680.64 513.976C1600.64 513.976 1520.43 513.976 1440.43 513.976C1360.43 513.976 1280.64 513.976 1200.64 513.976C1120.64 513.976 1040.43 513.976 960.427 513.976C880.427 513.976 800.64 513.976 720.64 513.976C640.64 513.976 560.427 513.976 480.427 513.976C400.427 513.976 320.64 513.976 240.64 513.976C160.64 513.976 80.4267 513.976 40.1067 513.976H0V444.704Z" fill="#FF7021"/>
<path d="M-31 493.441L9.75422 492.764C50.7252 492.003 132.234 490.649 213.525 487.942C294.817 485.234 375.892 481.342 457.184 478.804C538.475 476.266 619.984 475.081 701.275 475.674C782.567 476.266 863.642 478.466 944.934 479.735C1026.23 481.004 1107.73 481.342 1189.03 480.327C1270.32 479.312 1351.39 477.112 1432.68 475.843C1513.98 474.574 1595.48 474.235 1676.78 477.112C1758.07 479.904 1839.14 485.826 1879.46 488.788L1920 491.749V513.747H1879.46C1839.14 513.747 1758.07 513.747 1676.78 513.747C1595.48 513.747 1513.98 513.747 1432.68 513.747C1351.39 513.747 1270.32 513.747 1189.03 513.747C1107.73 513.747 1026.23 513.747 944.934 513.747C863.642 513.747 782.567 513.747 701.275 513.747C619.984 513.747 538.475 513.747 457.184 513.747C375.892 513.747 294.817 513.747 213.525 513.747C132.234 513.747 50.7252 513.747 9.75422 513.747H-31V493.441Z" fill="#FF8C39"/>
<g clip-path="url(#clip1_3_907)">
<path d="M639 346.888V346.743C639.063 346.758 639.127 346.774 639.185 346.769C639.244 346.764 639.299 346.739 639.351 346.736C639.404 346.732 639.455 346.751 639.513 346.748C639.571 346.746 639.637 346.723 639.689 346.72C639.741 346.717 639.781 346.735 639.831 346.742C639.88 346.749 639.94 346.746 640 346.743V346.888H639Z" fill="url(#paint0_linear_3_907)"/>
<path d="M639 346.888V346.815C639.072 346.807 639.144 346.799 639.195 346.798C639.246 346.798 639.276 346.805 639.315 346.809C639.355 346.813 639.404 346.813 639.472 346.808C639.54 346.804 639.627 346.795 639.692 346.797C639.756 346.799 639.799 346.812 639.847 346.817C639.894 346.822 639.947 346.819 640 346.815V346.888H639Z" fill="url(#paint1_linear_3_907)"/>
</g>
</g>
<defs>
<linearGradient id="paint0_linear_3_907" x1="639" y1="346.804" x2="640" y2="346.804" gradientUnits="userSpaceOnUse">
<stop offset="0.05" stop-color="#FF0000"/>
<stop offset="0.95" stop-color="#FF8C39"/>
</linearGradient>
<linearGradient id="paint1_linear_3_907" x1="639" y1="346.842" x2="640" y2="346.842" gradientUnits="userSpaceOnUse">
<stop offset="0.05" stop-color="#FF0000"/>
<stop offset="0.95" stop-color="#FF8C39"/>
</linearGradient>
<clipPath id="clip0_3_907">
<rect width="1920" height="513.12" fill="white"/>
</clipPath>
<clipPath id="clip1_3_907">
<rect width="1" height="0.626526" fill="white" transform="translate(639 346.466)"/>
</clipPath>
</defs>
</svg>
