<svg width="365" height="73" viewBox="0 0 365 73" fill="none" xmlns="http://www.w3.org/2000/svg">
<path d="M122.015 39.4379V48.903H113.63V16.2606H128.397C136.719 16.2606 142.288 20.6898 142.288 27.7279C142.288 32.2785 139.848 35.9188 135.843 37.8604L144.54 48.903H134.404L127.146 39.4379H122.015V39.4379ZM128.209 32.0964C131.4 32.0964 134.028 30.3368 134.028 27.6672C134.028 24.9975 131.463 23.3594 128.209 23.3594H122.015V32.0964H128.209V32.0964Z" fill="#282828"/>
<path d="M169.694 39.3772L169.757 39.4985H152.612C153.238 41.6221 154.927 43.2604 157.993 43.2604C159.683 43.2604 160.934 42.6536 161.685 41.5615H169.632C168.505 46.3547 163.875 49.3884 157.931 49.3884C150.047 49.3884 144.791 44.2918 144.791 37.193C144.791 30.1548 149.922 25.0582 157.555 25.0582C164.563 25.0582 169.819 29.7301 169.819 36.7076C169.819 37.557 169.819 38.4671 169.694 39.3772ZM152.487 34.948H162.311C161.873 32.3997 160.121 31.0649 157.555 31.0649C154.865 31.0649 153.113 32.5817 152.487 34.948Z" fill="#282828"/>
<path d="M182.897 42.2289V48.8423H174.512V16.1999H182.897V31.065L196.35 16.1999H206.236L193.409 30.5189L207.3 48.8423H197.101L187.715 36.829L182.897 42.2289Z" fill="#282828"/>
<path d="M232.954 37.193C232.954 44.2918 227.51 49.5704 219.939 49.5704C212.368 49.5704 206.924 44.2918 206.924 37.193C206.924 30.1548 212.368 25.0582 219.939 25.0582C227.51 25.0582 232.954 30.2155 232.954 37.193ZM225.383 37.2536C225.383 34.22 223.193 31.793 220.002 31.793C216.748 31.793 214.558 34.22 214.558 37.2536C214.558 40.348 216.748 42.8963 220.002 42.8963C223.193 42.8963 225.383 40.348 225.383 37.2536Z" fill="#282828"/>
<path d="M276.879 35.5548V48.8423H268.808V36.7682C268.808 33.4312 267.181 31.8537 264.49 31.8537C263.239 31.8537 261.987 32.3998 260.799 33.7953C260.861 34.3414 260.924 34.948 260.924 35.5548V48.8423H252.915V36.7682C252.915 33.4312 251.225 31.8537 248.597 31.8537C247.346 31.8537 246.157 32.4604 244.968 33.9166V48.7817H236.959V25.4829H244.968V26.8785C246.595 25.5436 248.284 24.7549 250.975 24.7549C253.978 24.7549 256.544 25.847 258.358 27.8492C260.861 25.665 263.301 24.7549 266.868 24.7549C272.562 24.8762 276.879 28.9413 276.879 35.5548Z" fill="#282828"/>
<path d="M308.666 37.193C308.666 44.1098 303.222 49.3278 296.715 49.3278C294.087 49.3278 291.897 48.6604 290.145 47.5682V59.703H282.135V25.6044H290.145V26.8785C291.959 25.7864 294.087 25.1189 296.715 25.1189C303.222 25.0583 308.666 30.2156 308.666 37.193ZM300.782 37.193C300.782 33.9773 298.404 31.3684 295.15 31.3684C293.336 31.3684 291.646 31.9144 290.145 33.5526V40.7728C291.646 42.4717 293.336 42.957 295.15 42.957C298.404 42.957 300.782 40.4087 300.782 37.193Z" fill="#282828"/>
<path d="M312.295 17.5347C312.295 14.9864 314.36 13.1055 316.988 13.1055C319.553 13.1055 321.681 14.9864 321.681 17.5347C321.681 20.0223 319.553 21.9032 316.988 21.9032C314.422 21.9032 312.295 20.0223 312.295 17.5347ZM321.117 48.8423H313.108V25.5436H321.117V48.8423Z" fill="#282828"/>
<path d="M334.695 48.8423H326.686V14.7437H334.695V48.8423Z" fill="#282828"/>
<path d="M363.917 39.3772L363.979 39.4985H346.834C347.46 41.6221 349.15 43.2604 352.216 43.2604C353.905 43.2604 355.156 42.6536 355.907 41.5615H363.854C362.728 46.3547 358.097 49.3884 352.153 49.3884C344.269 49.3884 339.013 44.2918 339.013 37.193C339.013 30.1548 344.144 25.0582 351.778 25.0582C358.786 25.0582 364.042 29.7301 364.042 36.7076C364.042 37.557 364.042 38.4671 363.917 39.3772ZM346.709 34.948H356.533C356.095 32.3997 354.343 31.0649 351.778 31.0649C349.024 31.0649 347.272 32.5817 346.709 34.948Z" fill="#282828"/>
<path d="M46.1153 7.03814V21.6606L26.9058 35.9189L46.741 51.5121V65.8917L37.981 72.8085L0 43.2604V28.6987L37.2927 0L46.1153 7.03814Z" fill="#F16629"/>
<path d="M37.2927 0L0 28.6987L37.2927 58.3682L46.741 51.5121L18.3335 29.1841L46.1153 7.03814L37.2927 0Z" fill="#E34E26"/>
<path d="M52.3099 65.7704V51.148L71.4568 36.8897L51.6216 21.2965V6.91683L60.4442 0L98.4251 29.6088V44.1099L61.0699 72.8085L52.3099 65.7704Z" fill="#F16629"/>
<path d="M61.0699 72.8085L98.4251 44.1099L61.0699 14.4404L51.6216 21.2965L80.0917 43.6244L52.3099 65.7704L61.0699 72.8085Z" fill="#E34E26"/>
</svg>
