<svg width="960" height="733" viewBox="0 0 960 733" fill="none" xmlns="http://www.w3.org/2000/svg">
<g clip-path="url(#clip0_24_242)">
<path d="M984.575 727.379H1.42486C1.04696 727.379 0.684542 727.224 0.417329 726.949C0.150117 726.674 0 726.301 0 725.912C0 725.523 0.150117 725.15 0.417329 724.875C0.684542 724.6 1.04696 724.446 1.42486 724.446H984.575C984.953 724.446 985.315 724.6 985.583 724.875C985.85 725.15 986 725.523 986 725.912C986 726.301 985.85 726.674 985.583 726.949C985.315 727.224 984.953 727.379 984.575 727.379Z" fill="#CCCCCC"/>
<path d="M887.264 471.643H308.772C306.316 471.643 303.96 472.647 302.223 474.434C300.487 476.222 299.511 478.646 299.511 481.174C299.511 483.702 300.487 486.126 302.223 487.914C303.96 489.701 306.316 490.705 308.772 490.705H325.158V718.724C325.158 721.252 326.134 723.677 327.871 725.464C329.608 727.252 331.963 728.256 334.42 728.256C336.876 728.256 339.232 727.252 340.969 725.464C342.705 723.677 343.681 721.252 343.681 718.724L343.822 490.705H850.93V718.724C850.93 721.252 851.906 723.677 853.642 725.464C855.379 727.252 857.735 728.256 860.191 728.256C862.648 728.256 865.003 727.252 866.74 725.464C868.477 723.677 869.453 721.252 869.453 718.724V495.731L872.147 490.705H887.264C889.72 490.705 892.076 489.701 893.812 487.914C895.549 486.126 896.525 483.702 896.525 481.174C896.525 478.646 895.549 476.222 893.812 474.434C892.076 472.647 889.72 471.643 887.264 471.643Z" fill="#CCCCCC"/>
<path d="M629.493 476.631H454.261C450.868 476.627 447.615 475.238 445.216 472.769C442.817 470.3 441.467 466.952 441.464 463.46V364.174C441.467 360.682 442.817 357.335 445.216 354.865C447.615 352.396 450.868 351.007 454.261 351.004H629.493C632.886 351.007 636.139 352.396 638.538 354.865C640.937 357.335 642.287 360.682 642.29 364.174V463.46C642.287 466.952 640.937 470.3 638.538 472.769C636.139 475.238 632.886 476.627 629.493 476.631Z" fill="#3F3D56"/>
<path d="M629.492 361.14H454.262C453.48 361.142 452.731 361.462 452.178 362.031C451.626 362.6 451.315 363.371 451.313 364.175V463.463C451.315 464.267 451.626 465.038 452.179 465.607C452.731 466.176 453.48 466.496 454.262 466.498H629.492C630.273 466.496 631.023 466.176 631.575 465.607C632.128 465.038 632.439 464.267 632.441 463.463V364.175C632.439 363.371 632.128 362.6 631.575 362.031C631.023 361.462 630.273 361.142 629.492 361.14Z" fill="white"/>
<path d="M556.822 431.435C556.822 431.435 535.845 426.46 524.308 435.58C512.77 444.7 538.992 465.428 538.992 465.428L556.822 431.435Z" fill="#2F2E41"/>
<path d="M542.904 422.035C553.832 422.035 562.691 412.918 562.691 401.672C562.691 390.426 553.832 381.309 542.904 381.309C531.976 381.309 523.117 390.426 523.117 401.672C523.117 412.918 531.976 422.035 542.904 422.035Z" fill="#A0616A"/>
<path d="M527.604 373.087C528.923 370.782 530.836 368.897 533.131 367.641C535.425 366.384 538.013 365.805 540.608 365.966C543.322 366.317 545.97 367.08 548.466 368.23L561.402 373.423C564.749 374.767 568.415 376.413 569.867 379.794C571.215 382.933 570.209 386.558 569.191 389.826L564.352 405.36C563.816 401.844 562.896 398.402 561.609 395.099C560.302 391.773 557.939 389.001 554.906 387.233C551.546 385.459 547.586 385.496 543.814 385.683C538.472 385.947 532.664 386.647 528.868 390.524C526.853 392.727 525.488 395.472 524.929 398.442C524.38 401.396 524.103 404.396 524.103 407.404C521.913 403.528 520.067 399.457 518.59 395.24C517.375 392.099 516.682 388.77 516.541 385.393C516.414 381.987 517.513 378.652 519.626 376.028C520.698 374.745 522.098 373.796 523.666 373.288C525.235 372.78 526.91 372.733 528.503 373.152L527.604 373.087Z" fill="#2F2E41"/>
<path d="M590.151 449.092C589.965 448.405 589.586 447.789 589.061 447.322C588.537 446.855 587.89 446.558 587.202 446.468C587.156 446.435 587.109 446.406 587.059 446.38L557.52 429.343C556.676 428.857 555.683 428.724 554.747 428.972C553.81 429.22 553.003 429.83 552.493 430.675L544.414 444.136L532.245 431.613L532.052 431.414C531.427 430.772 530.603 430.376 529.723 430.297C528.843 430.218 527.965 430.46 527.241 430.981L502.964 448.477C502.922 448.477 502.879 448.491 502.836 448.491C501.674 448.691 500.613 449.292 499.828 450.196C499.043 451.099 498.581 452.252 498.518 453.462L497.892 466.498H594.839L590.151 449.092Z" fill="#E54E26"/>
<path d="M644.259 464.473H625.555C625.555 463.936 625.347 463.42 624.978 463.04C624.609 462.66 624.108 462.447 623.586 462.447H617.679C617.157 462.447 616.656 462.66 616.287 463.04C615.918 463.42 615.71 463.936 615.71 464.473H609.804C609.804 463.936 609.596 463.42 609.227 463.04C608.858 462.66 608.357 462.447 607.835 462.447H601.928C601.406 462.447 600.905 462.66 600.536 463.04C600.167 463.42 599.959 463.936 599.959 464.473H594.053C594.053 463.936 593.845 463.42 593.476 463.04C593.107 462.66 592.606 462.447 592.084 462.447H586.177C585.655 462.447 585.154 462.66 584.785 463.04C584.416 463.42 584.208 463.936 584.208 464.473H578.301C578.301 463.936 578.094 463.42 577.725 463.04C577.356 462.66 576.855 462.447 576.333 462.447H570.426C569.904 462.447 569.403 462.66 569.034 463.04C568.665 463.42 568.457 463.936 568.457 464.473H562.55C562.55 463.936 562.343 463.42 561.974 463.04C561.604 462.66 561.104 462.447 560.581 462.447H554.675C554.153 462.447 553.652 462.66 553.283 463.04C552.913 463.42 552.706 463.936 552.706 464.473H546.799C546.799 463.936 546.592 463.42 546.223 463.04C545.853 462.66 545.353 462.447 544.83 462.447H538.924C538.401 462.447 537.901 462.66 537.532 463.04C537.162 463.42 536.955 463.936 536.955 464.473H531.048C531.048 463.936 530.841 463.42 530.471 463.04C530.102 462.66 529.601 462.447 529.079 462.447H523.173C522.65 462.447 522.15 462.66 521.78 463.04C521.411 463.42 521.204 463.936 521.204 464.473H515.297C515.297 463.936 515.09 463.42 514.72 463.04C514.351 462.66 513.85 462.447 513.328 462.447H507.421C506.899 462.447 506.398 462.66 506.029 463.04C505.66 463.42 505.453 463.936 505.453 464.473H499.546C499.546 463.936 499.338 463.42 498.969 463.04C498.6 462.66 498.099 462.447 497.577 462.447H491.67C491.148 462.447 490.647 462.66 490.278 463.04C489.909 463.42 489.701 463.936 489.701 464.473H483.795C483.795 463.936 483.587 463.42 483.218 463.04C482.849 462.66 482.348 462.447 481.826 462.447H475.919C475.397 462.447 474.896 462.66 474.527 463.04C474.158 463.42 473.95 463.936 473.95 464.473H468.044C468.044 463.936 467.836 463.42 467.467 463.04C467.098 462.66 466.597 462.447 466.075 462.447H460.168C459.646 462.447 459.145 462.66 458.776 463.04C458.407 463.42 458.199 463.936 458.199 464.473H439.495C437.93 464.476 436.43 465.117 435.324 466.257C434.218 467.397 433.597 468.941 433.597 470.552C433.597 472.163 434.218 473.707 435.324 474.847C436.43 475.987 437.93 476.628 439.495 476.631H644.259C645.826 476.631 647.328 475.99 648.436 474.85C649.544 473.71 650.166 472.164 650.166 470.552C650.166 468.94 649.544 467.394 648.436 466.254C647.328 465.114 645.826 464.473 644.259 464.473Z" fill="#3F3D56"/>
<path d="M409.046 429.172V469.535H310.785C308.152 469.629 305.528 469.177 303.069 468.205C300.61 467.233 298.366 465.762 296.471 463.879C294.576 461.995 293.069 459.739 292.04 457.243C291.011 454.748 290.48 452.065 290.48 449.354C290.48 446.643 291.011 443.959 292.04 441.464C293.069 438.968 294.576 436.712 296.471 434.828C298.366 432.945 300.61 431.474 303.069 430.502C305.528 429.53 308.152 429.078 310.785 429.172H409.046Z" fill="#F2F2F2"/>
<path d="M411.46 469.224C411.46 469.636 411.301 470.031 411.018 470.322C410.735 470.613 410.351 470.777 409.951 470.777H309.035C303.554 470.777 298.297 468.536 294.422 464.548C290.546 460.559 288.369 455.149 288.369 449.509C288.369 443.868 290.546 438.459 294.422 434.47C298.297 430.482 303.554 428.241 309.035 428.241H409.951C410.351 428.241 410.735 428.404 411.018 428.695C411.301 428.987 411.46 429.381 411.46 429.793C411.46 430.205 411.301 430.6 411.018 430.891C410.735 431.182 410.351 431.346 409.951 431.346H309.035C304.357 431.35 299.872 433.265 296.565 436.671C293.259 440.077 291.401 444.694 291.401 449.509C291.401 454.323 293.259 458.941 296.565 462.346C299.872 465.752 304.357 467.668 309.035 467.672H409.951C410.351 467.672 410.735 467.836 411.018 468.127C411.3 468.418 411.46 468.813 411.46 469.224Z" fill="#E54E26"/>
<path d="M409.046 438.487H303.453C303.414 438.487 303.374 438.479 303.337 438.464C303.3 438.448 303.267 438.425 303.239 438.396C303.211 438.368 303.188 438.333 303.173 438.295C303.158 438.258 303.15 438.217 303.15 438.176C303.15 438.135 303.158 438.095 303.173 438.057C303.188 438.019 303.211 437.985 303.239 437.956C303.267 437.927 303.3 437.904 303.337 437.889C303.374 437.873 303.414 437.865 303.453 437.866H409.046C409.126 437.866 409.202 437.899 409.258 437.957C409.314 438.015 409.346 438.094 409.346 438.176C409.346 438.258 409.314 438.337 409.258 438.395C409.202 438.453 409.126 438.486 409.046 438.487Z" fill="#CCCCCC"/>
<path d="M409.046 445.938H303.453C303.414 445.939 303.374 445.931 303.337 445.915C303.3 445.9 303.267 445.877 303.239 445.848C303.211 445.819 303.188 445.785 303.173 445.747C303.158 445.709 303.15 445.669 303.15 445.628C303.15 445.587 303.158 445.546 303.173 445.508C303.188 445.471 303.211 445.436 303.239 445.407C303.267 445.379 303.3 445.356 303.337 445.34C303.374 445.325 303.414 445.317 303.453 445.317H409.046C409.126 445.318 409.202 445.351 409.258 445.409C409.314 445.467 409.346 445.546 409.346 445.628C409.346 445.71 409.314 445.788 409.258 445.847C409.202 445.905 409.126 445.938 409.046 445.938Z" fill="#CCCCCC"/>
<path d="M409.046 453.39H303.453C303.414 453.39 303.374 453.382 303.337 453.367C303.3 453.351 303.267 453.329 303.239 453.3C303.211 453.271 303.188 453.236 303.173 453.199C303.158 453.161 303.15 453.12 303.15 453.079C303.15 453.038 303.158 452.998 303.173 452.96C303.188 452.922 303.211 452.888 303.239 452.859C303.267 452.83 303.3 452.807 303.337 452.792C303.374 452.776 303.414 452.769 303.453 452.769H409.046C409.126 452.769 409.202 452.802 409.258 452.861C409.314 452.919 409.346 452.997 409.346 453.079C409.346 453.161 409.314 453.24 409.258 453.298C409.202 453.356 409.126 453.389 409.046 453.39Z" fill="#CCCCCC"/>
<path d="M409.046 460.841H303.453C303.414 460.842 303.374 460.834 303.337 460.818C303.3 460.803 303.267 460.78 303.239 460.751C303.211 460.722 303.188 460.688 303.173 460.65C303.158 460.612 303.15 460.572 303.15 460.531C303.15 460.49 303.158 460.449 303.173 460.412C303.188 460.374 303.211 460.339 303.239 460.311C303.267 460.282 303.3 460.259 303.337 460.243C303.374 460.228 303.414 460.22 303.453 460.22H409.046C409.126 460.221 409.202 460.254 409.258 460.312C409.314 460.37 409.346 460.449 409.346 460.531C409.346 460.613 409.314 460.691 409.258 460.75C409.202 460.808 409.126 460.841 409.046 460.841Z" fill="#CCCCCC"/>
<path d="M390.523 386.648V427.01H292.262C289.629 427.105 287.005 426.652 284.546 425.681C282.087 424.709 279.843 423.238 277.948 421.354C276.053 419.471 274.546 417.214 273.517 414.719C272.488 412.223 271.958 409.54 271.958 406.829C271.958 404.118 272.488 401.435 273.517 398.939C274.546 396.444 276.053 394.187 277.948 392.304C279.843 390.421 282.087 388.949 284.546 387.977C287.005 387.006 289.629 386.553 292.262 386.648H390.523Z" fill="#F2F2F2"/>
<path d="M392.937 426.7C392.937 427.112 392.778 427.506 392.495 427.797C392.212 428.089 391.828 428.252 391.428 428.252H290.512C287.798 428.252 285.11 427.702 282.603 426.633C280.096 425.565 277.818 423.998 275.899 422.023C273.98 420.048 272.457 417.704 271.419 415.123C270.38 412.543 269.846 409.777 269.846 406.984C269.846 404.191 270.38 401.426 271.419 398.845C272.457 396.265 273.98 393.92 275.899 391.946C277.818 389.971 280.096 388.404 282.603 387.335C285.11 386.266 287.798 385.716 290.512 385.716H391.428C391.828 385.716 392.212 385.88 392.495 386.171C392.778 386.462 392.937 386.857 392.937 387.269C392.937 387.68 392.778 388.075 392.495 388.366C392.212 388.658 391.828 388.821 391.428 388.821H290.512C285.834 388.825 281.349 390.741 278.042 394.147C274.736 397.553 272.878 402.17 272.878 406.984C272.878 411.799 274.736 416.416 278.042 419.822C281.349 423.228 285.834 425.143 290.512 425.147H391.428C391.828 425.148 392.212 425.311 392.495 425.602C392.778 425.893 392.937 426.288 392.937 426.7Z" fill="#3F3D56"/>
<path d="M390.523 395.962H284.93C284.89 395.962 284.851 395.955 284.814 395.939C284.777 395.924 284.744 395.901 284.716 395.872C284.687 395.843 284.665 395.809 284.65 395.771C284.634 395.733 284.626 395.693 284.626 395.652C284.626 395.611 284.634 395.57 284.65 395.532C284.665 395.495 284.687 395.46 284.716 395.431C284.744 395.403 284.777 395.38 284.814 395.364C284.851 395.349 284.89 395.341 284.93 395.341H390.523C390.603 395.342 390.679 395.375 390.735 395.433C390.791 395.491 390.823 395.57 390.823 395.652C390.823 395.734 390.791 395.812 390.735 395.87C390.679 395.929 390.603 395.962 390.523 395.962Z" fill="#CCCCCC"/>
<path d="M390.523 403.414H284.93C284.89 403.414 284.851 403.406 284.814 403.391C284.777 403.375 284.744 403.352 284.716 403.324C284.687 403.295 284.665 403.26 284.65 403.223C284.634 403.185 284.626 403.144 284.626 403.103C284.626 403.062 284.634 403.022 284.65 402.984C284.665 402.946 284.687 402.912 284.716 402.883C284.744 402.854 284.777 402.831 284.814 402.816C284.851 402.8 284.89 402.793 284.93 402.793H390.523C390.603 402.793 390.679 402.826 390.735 402.884C390.791 402.943 390.823 403.021 390.823 403.103C390.823 403.185 390.791 403.264 390.735 403.322C390.679 403.38 390.603 403.413 390.523 403.414Z" fill="#CCCCCC"/>
<path d="M390.523 410.865H284.93C284.89 410.866 284.851 410.858 284.814 410.842C284.777 410.827 284.744 410.804 284.716 410.775C284.687 410.746 284.665 410.712 284.65 410.674C284.634 410.636 284.626 410.596 284.626 410.555C284.626 410.514 284.634 410.473 284.65 410.436C284.665 410.398 284.687 410.363 284.716 410.335C284.744 410.306 284.777 410.283 284.814 410.267C284.851 410.252 284.89 410.244 284.93 410.244H390.523C390.603 410.245 390.679 410.278 390.735 410.336C390.791 410.394 390.823 410.473 390.823 410.555C390.823 410.637 390.791 410.715 390.735 410.774C390.679 410.832 390.603 410.865 390.523 410.865Z" fill="#CCCCCC"/>
<path d="M390.523 418.317H284.93C284.89 418.317 284.851 418.309 284.814 418.294C284.777 418.278 284.744 418.256 284.716 418.227C284.687 418.198 284.665 418.163 284.65 418.126C284.634 418.088 284.626 418.047 284.626 418.006C284.626 417.965 284.634 417.925 284.65 417.887C284.665 417.849 284.687 417.815 284.716 417.786C284.744 417.757 284.777 417.734 284.814 417.719C284.851 417.703 284.89 417.696 284.93 417.696H390.523C390.603 417.696 390.679 417.729 390.735 417.788C390.791 417.846 390.823 417.924 390.823 418.006C390.823 418.088 390.791 418.167 390.735 418.225C390.679 418.283 390.603 418.316 390.523 418.317Z" fill="#CCCCCC"/>
<path d="M504.831 613.002V577.81C504.831 576.254 504.23 574.762 503.161 573.662C502.092 572.562 500.643 571.944 499.131 571.944H369.469C367.958 571.944 366.508 572.562 365.439 573.662C364.37 574.762 363.77 576.254 363.77 577.81V613.002H504.831Z" fill="#CCCCCC"/>
<path d="M504.831 626.2H363.77V671.657H504.831V626.2Z" fill="#CCCCCC"/>
<path d="M363.77 684.854V720.047C363.77 721.602 364.37 723.094 365.439 724.194C366.508 725.294 367.958 725.912 369.469 725.912H499.131C500.643 725.912 502.092 725.294 503.161 724.194C504.23 723.094 504.831 721.602 504.831 720.047V684.854H363.77Z" fill="#CCCCCC"/>
<path d="M433.588 598.339C435.949 598.339 437.863 596.369 437.863 593.94C437.863 591.51 435.949 589.541 433.588 589.541C431.227 589.541 429.313 591.51 429.313 593.94C429.313 596.369 431.227 598.339 433.588 598.339Z" fill="white"/>
<path d="M433.588 656.993C435.949 656.993 437.863 655.024 437.863 652.594C437.863 650.165 435.949 648.195 433.588 648.195C431.227 648.195 429.313 650.165 429.313 652.594C429.313 655.024 431.227 656.993 433.588 656.993Z" fill="white"/>
<path d="M433.817 714.406C436.178 714.406 438.092 712.436 438.092 710.007C438.092 707.577 436.178 705.607 433.817 705.607C431.456 705.607 429.542 707.577 429.542 710.007C429.542 712.436 431.456 714.406 433.817 714.406Z" fill="white"/>
<path d="M488.838 531.818V572.18H390.577C387.944 572.275 385.32 571.822 382.861 570.851C380.402 569.879 378.158 568.407 376.263 566.524C374.368 564.641 372.861 562.384 371.832 559.889C370.803 557.393 370.272 554.71 370.272 551.999C370.272 549.288 370.803 546.605 371.832 544.109C372.861 541.614 374.368 539.357 376.263 537.474C378.158 535.59 380.402 534.119 382.861 533.147C385.32 532.176 387.944 531.723 390.577 531.818H488.838Z" fill="#F2F2F2"/>
<path d="M491.252 571.87C491.252 572.281 491.093 572.676 490.81 572.967C490.527 573.258 490.143 573.422 489.743 573.422H388.827C386.111 573.424 383.422 572.876 380.913 571.808C378.404 570.741 376.123 569.174 374.202 567.199C372.282 565.224 370.758 562.879 369.718 560.297C368.679 557.716 368.144 554.949 368.144 552.154C368.144 549.36 368.679 546.593 369.718 544.011C370.758 541.43 372.282 539.084 374.202 537.109C376.123 535.134 378.404 533.568 380.913 532.5C383.422 531.432 386.111 530.884 388.827 530.886H489.743C490.143 530.886 490.527 531.05 490.81 531.341C491.093 531.632 491.252 532.027 491.252 532.438C491.252 532.85 491.093 533.245 490.81 533.536C490.527 533.827 490.143 533.991 489.743 533.991H388.827C384.149 533.995 379.664 535.911 376.357 539.317C373.051 542.722 371.193 547.34 371.193 552.154C371.193 556.968 373.051 561.586 376.357 564.992C379.664 568.397 384.149 570.313 388.827 570.317H489.743C490.143 570.318 490.527 570.481 490.81 570.772C491.093 571.063 491.252 571.458 491.252 571.87Z" fill="#3F3D56"/>
<path d="M488.838 541.132H383.245C383.206 541.132 383.166 541.124 383.129 541.109C383.092 541.094 383.059 541.071 383.031 541.042C383.002 541.013 382.98 540.979 382.965 540.941C382.949 540.903 382.942 540.862 382.942 540.822C382.942 540.781 382.949 540.74 382.965 540.702C382.98 540.664 383.002 540.63 383.031 540.601C383.059 540.572 383.092 540.55 383.129 540.534C383.166 540.519 383.206 540.511 383.245 540.511H488.838C488.918 540.512 488.994 540.545 489.05 540.603C489.106 540.661 489.138 540.74 489.138 540.822C489.138 540.904 489.106 540.982 489.05 541.04C488.994 541.099 488.918 541.131 488.838 541.132Z" fill="#CCCCCC"/>
<path d="M488.838 548.584H383.245C383.206 548.584 383.166 548.576 383.129 548.561C383.092 548.545 383.059 548.522 383.031 548.493C383.002 548.464 382.98 548.43 382.965 548.392C382.949 548.355 382.942 548.314 382.942 548.273C382.942 548.232 382.949 548.192 382.965 548.154C382.98 548.116 383.002 548.082 383.031 548.053C383.059 548.024 383.092 548.001 383.129 547.986C383.166 547.97 383.206 547.962 383.245 547.963H488.838C488.918 547.963 488.994 547.996 489.05 548.054C489.106 548.112 489.138 548.191 489.138 548.273C489.138 548.355 489.106 548.434 489.05 548.492C488.994 548.55 488.918 548.583 488.838 548.584Z" fill="#CCCCCC"/>
<path d="M488.838 556.035H383.245C383.206 556.035 383.166 556.028 383.129 556.012C383.092 555.997 383.059 555.974 383.031 555.945C383.002 555.916 382.98 555.882 382.965 555.844C382.949 555.806 382.942 555.766 382.942 555.725C382.942 555.684 382.949 555.643 382.965 555.605C382.98 555.568 383.002 555.533 383.031 555.504C383.059 555.475 383.092 555.453 383.129 555.437C383.166 555.422 383.206 555.414 383.245 555.414H488.838C488.918 555.415 488.994 555.448 489.05 555.506C489.106 555.564 489.138 555.643 489.138 555.725C489.138 555.807 489.106 555.885 489.05 555.943C488.994 556.002 488.918 556.035 488.838 556.035Z" fill="#CCCCCC"/>
<path d="M488.838 563.487H383.245C383.206 563.487 383.166 563.479 383.129 563.464C383.092 563.448 383.059 563.425 383.031 563.396C383.002 563.368 382.98 563.333 382.965 563.295C382.949 563.258 382.942 563.217 382.942 563.176C382.942 563.135 382.949 563.095 382.965 563.057C382.98 563.019 383.002 562.985 383.031 562.956C383.059 562.927 383.092 562.904 383.129 562.889C383.166 562.873 383.206 562.865 383.245 562.866H488.838C488.918 562.866 488.994 562.899 489.05 562.957C489.106 563.016 489.138 563.094 489.138 563.176C489.138 563.258 489.106 563.337 489.05 563.395C488.994 563.453 488.918 563.486 488.838 563.487Z" fill="#CCCCCC"/>
<path d="M356.371 268.376V11.0291C356.374 8.10506 357.504 5.30169 359.514 3.23405C361.523 1.1664 364.247 0.00332606 367.088 0H564.756C567.598 0.00334542 570.322 1.16643 572.331 3.23407C574.34 5.30171 575.47 8.10507 575.473 11.0291V268.376C575.47 271.3 574.34 274.103 572.331 276.171C570.322 278.238 567.598 279.401 564.756 279.405H367.088C364.247 279.401 361.523 278.238 359.514 276.171C357.504 274.103 356.374 271.3 356.371 268.376ZM367.088 2.45092C364.878 2.45347 362.759 3.35807 361.197 4.96624C359.634 6.57442 358.755 8.75485 358.753 11.0291V268.376C358.755 270.65 359.634 272.83 361.197 274.439C362.759 276.047 364.878 276.951 367.088 276.954H564.756C566.966 276.951 569.085 276.047 570.648 274.439C572.21 272.83 573.089 270.65 573.092 268.376V11.0291C573.089 8.75485 572.21 6.57442 570.648 4.96624C569.085 3.35807 566.966 2.45347 564.756 2.45092H367.088Z" fill="#E6E6E6"/>
<path d="M477.007 118.185V65.3441C477.008 63.882 477.573 62.4803 478.578 61.4465C479.583 60.4126 480.945 59.8311 482.365 59.8295H525.876C527.297 59.8311 528.659 60.4126 529.663 61.4465C530.668 62.4803 531.233 63.882 531.235 65.3441V118.185C531.233 119.647 530.668 121.049 529.663 122.083C528.659 123.117 527.297 123.698 525.876 123.7H482.365C480.945 123.698 479.583 123.117 478.578 122.083C477.573 121.049 477.008 119.647 477.007 118.185Z" fill="#E54E26"/>
<path d="M392.462 142.695V89.8533C392.463 88.3913 393.029 86.9895 394.033 85.9557C395.038 84.9219 396.4 84.3404 397.82 84.3387H441.331C442.752 84.3404 444.114 84.9219 445.119 85.9557C446.123 86.9895 446.688 88.3913 446.69 89.8533V142.695C446.688 144.157 446.123 145.558 445.119 146.592C444.114 147.626 442.752 148.208 441.331 148.209H397.82C396.4 148.208 395.038 147.626 394.033 146.592C393.029 145.558 392.463 144.157 392.462 142.695Z" fill="#CCCCCC"/>
<path d="M460.336 217.448V164.606C460.338 163.144 460.903 161.742 461.907 160.709C462.912 159.675 464.274 159.093 465.694 159.092H509.205C510.626 159.093 511.988 159.675 512.993 160.709C513.997 161.742 514.562 163.144 514.564 164.606V217.448C514.562 218.91 513.997 220.311 512.993 221.345C511.988 222.379 510.626 222.961 509.205 222.962H465.694C464.274 222.961 462.912 222.379 461.907 221.345C460.903 220.311 460.338 218.91 460.336 217.448Z" fill="#FF6584"/>
<path d="M720.354 459.034H675.585C675.16 459.034 674.741 459.134 674.36 459.328L663.061 465.149C662.689 465.312 662.372 465.583 662.149 465.93C661.926 466.277 661.807 466.684 661.807 467.099C661.807 467.515 661.926 467.922 662.149 468.269C662.372 468.615 662.689 468.887 663.061 469.05L674.36 474.871C674.741 475.064 675.16 475.165 675.585 475.164H720.354C720.971 475.201 721.577 474.986 722.041 474.566C722.505 474.146 722.79 473.555 722.834 472.921V461.278C722.79 460.644 722.505 460.052 722.041 459.632C721.577 459.212 720.971 458.998 720.354 459.034Z" fill="#3F3D56"/>
<path d="M722.834 461.278V472.921C722.79 473.555 722.505 474.146 722.041 474.566C721.577 474.986 720.971 475.201 720.354 475.164H711.435V459.034H720.354C720.971 458.998 721.577 459.212 722.041 459.632C722.505 460.052 722.79 460.644 722.834 461.278Z" fill="#E54E26"/>
<path d="M720.017 371.932C722.045 371.032 724.235 370.582 726.443 370.613C728.652 370.644 730.829 371.155 732.832 372.112C734.835 373.07 736.619 374.452 738.067 376.168C739.515 377.884 740.594 379.896 741.234 382.072C741.433 382.761 741.586 383.464 741.69 384.176L804.296 416.125L818.784 406.244L836.811 427.602L814.689 446.092C812.028 448.299 808.748 449.563 805.334 449.699C801.92 449.835 798.554 448.834 795.736 446.845L732.218 401.639C731.745 401.846 731.262 402.027 730.771 402.182C728.657 402.84 726.432 403.031 724.241 402.742C722.05 402.453 719.943 401.692 718.058 400.506C716.174 399.321 714.553 397.739 713.304 395.865C712.055 393.99 711.204 391.865 710.808 389.629C710.691 388.98 710.614 388.324 710.577 387.665C710.401 384.364 711.211 381.087 712.899 378.274C714.586 375.462 717.071 373.248 720.017 371.932Z" fill="#FFB8B8"/>
<path d="M850.412 568.643H782.005C782.005 570.666 711.504 572.309 711.504 572.309C710.397 573.166 709.389 574.15 708.497 575.241C705.82 578.528 704.356 582.683 704.365 586.972V589.905C704.367 594.766 706.244 599.427 709.583 602.864C712.923 606.301 717.452 608.233 722.175 608.235H850.412C855.135 608.23 859.663 606.298 863.002 602.861C866.341 599.425 868.219 594.765 868.223 589.905V586.972C868.217 582.113 866.338 577.455 862.999 574.019C859.661 570.583 855.134 568.649 850.412 568.643Z" fill="#3F3D56"/>
<path d="M776.001 730.681H794.524V607.507H776.001V730.681Z" fill="#3F3D56"/>
<path d="M723.282 730.011C723.282 732.071 751.351 730.808 785.975 730.808C820.6 730.808 848.669 732.071 848.669 730.011C848.669 727.951 820.6 711.618 785.975 711.618C751.351 711.618 723.282 727.951 723.282 730.011Z" fill="#3F3D56"/>
<path d="M740.003 715.574L722.536 715.573L714.225 668.947L740.006 668.948L740.003 715.574Z" fill="#FFB8B8"/>
<path d="M744.458 733L688.133 732.998V732.265C688.133 729.302 688.7 726.368 689.802 723.631C690.903 720.893 692.518 718.406 694.554 716.311C696.59 714.216 699.007 712.554 701.667 711.42C704.326 710.286 707.177 709.703 710.056 709.703H710.058L744.459 709.704L744.458 733Z" fill="#2F2E41"/>
<path d="M713.876 686.66L679.052 606.293C676.144 599.519 675.823 591.867 678.151 584.86C680.48 577.853 685.287 572.006 691.617 568.484L767.153 526.798L801.622 523.781L833.417 520.807L833.647 521.207C833.94 521.716 840.776 533.868 836.155 547.193C832.65 557.3 823.532 565.194 809.056 570.658C775.267 583.408 736.233 594.306 721.019 598.398C720.347 598.575 719.719 598.896 719.176 599.341C718.633 599.786 718.187 600.344 717.869 600.979C717.549 601.606 717.36 602.294 717.312 603.001C717.264 603.707 717.358 604.416 717.589 605.083L749.943 679.889C750.281 680.837 750.402 681.853 750.298 682.858C750.194 683.863 749.868 684.83 749.343 685.684C748.819 686.538 748.111 687.257 747.273 687.785C746.436 688.313 745.493 688.636 744.515 688.73L720.34 690.541C720.135 690.561 719.93 690.571 719.727 690.571C718.489 690.571 717.278 690.201 716.239 689.507C715.201 688.813 714.38 687.824 713.876 686.66Z" fill="#2F2E41"/>
<path d="M748.552 715.574L731.085 715.573L722.774 668.947L748.555 668.948L748.552 715.574Z" fill="#FFB8B8"/>
<path d="M753.007 733L696.682 732.998V732.265C696.682 729.302 697.249 726.368 698.351 723.631C699.453 720.893 701.068 718.406 703.103 716.311C705.139 714.216 707.556 712.554 710.216 711.42C712.876 710.286 715.727 709.703 718.606 709.703H718.607L753.008 709.704L753.007 733Z" fill="#2F2E41"/>
<path d="M723.85 691.06L689.025 610.692C686.118 603.918 685.796 596.266 688.125 589.259C690.454 582.252 695.261 576.405 701.591 572.883L777.127 531.197L811.596 528.18L843.391 525.206L843.62 525.606C843.914 526.115 850.75 538.267 846.129 551.592C842.624 561.699 833.506 569.594 819.03 575.057C785.24 587.807 746.207 598.705 730.993 602.797C730.321 602.974 729.693 603.296 729.15 603.74C728.607 604.185 728.161 604.743 727.843 605.378C727.523 606.005 727.334 606.693 727.286 607.4C727.237 608.106 727.332 608.815 727.563 609.482L759.917 684.288C760.254 685.236 760.376 686.252 760.272 687.257C760.168 688.262 759.841 689.229 759.317 690.083C758.793 690.937 758.084 691.656 757.247 692.184C756.41 692.712 755.466 693.035 754.489 693.129L730.314 694.94C730.109 694.96 729.904 694.97 729.701 694.97C728.463 694.97 727.251 694.6 726.213 693.906C725.175 693.212 724.354 692.223 723.85 691.06Z" fill="#2F2E41"/>
<path d="M706.493 445.546C691.859 425.513 680.29 403.294 672.189 379.659C671.719 378.246 671.753 376.706 672.283 375.316C672.813 373.925 673.805 372.773 675.084 372.065L725.161 344.451C725.971 344 726.87 343.747 727.79 343.708C728.71 343.67 729.626 343.848 730.469 344.229C731.327 344.613 732.09 345.193 732.697 345.926C733.305 346.659 733.742 347.525 733.976 348.458C739.804 371.233 750.761 392.276 765.958 409.885C766.583 410.601 767.042 411.456 767.298 412.382C767.554 413.309 767.602 414.284 767.437 415.232C767.278 416.165 766.915 417.049 766.374 417.816C765.834 418.583 765.13 419.213 764.317 419.658L714.24 447.272C712.96 447.974 711.478 448.187 710.059 447.871C708.64 447.555 707.376 446.731 706.493 445.546Z" fill="#CCCCCC"/>
<path d="M709.91 442.903C710.179 443.249 710.557 443.487 710.979 443.577C711.401 443.667 711.84 443.602 712.221 443.394L762.298 415.78C762.541 415.649 762.752 415.463 762.913 415.234C763.075 415.006 763.182 414.743 763.228 414.464C763.28 414.171 763.266 413.868 763.185 413.581C763.105 413.294 762.961 413.031 762.765 412.81C747.12 394.683 735.841 373.02 729.841 349.574C729.771 349.284 729.638 349.015 729.45 348.787C729.263 348.559 729.027 348.379 728.761 348.261C728.51 348.146 728.237 348.092 727.962 348.103C727.688 348.115 727.419 348.192 727.179 348.328L677.103 375.942C676.723 376.153 676.427 376.494 676.266 376.905C676.105 377.317 676.089 377.773 676.22 378.196C684.176 401.408 695.538 423.229 709.91 442.903Z" fill="white"/>
<path d="M872.856 438.179L833.637 453.517L824.062 426.145C822.791 422.51 822.809 418.53 824.113 414.908C825.417 411.285 827.924 408.254 831.189 406.349C834.493 404.423 838.357 403.776 842.084 404.524C845.811 405.273 849.154 407.369 851.511 410.433L872.856 438.179Z" fill="#E54E26"/>
<path d="M773.102 546.632C772.277 546.031 771.585 545.256 771.073 544.359C770.561 543.461 770.241 542.462 770.133 541.428C765.11 493.17 768.609 455.405 780.828 425.974C782.98 420.898 786.222 416.39 790.311 412.788C794.399 409.187 799.228 406.586 804.434 405.181L836.136 403.535L836.3 403.616C843.454 407.222 849.288 413.105 852.938 420.392C856.587 427.679 857.858 435.982 856.561 444.071C846.364 471.731 837.826 500.53 844.337 523.762C844.61 524.733 844.69 525.751 844.571 526.755C844.453 527.759 844.139 528.727 843.648 529.603C843.172 530.45 842.532 531.187 841.769 531.769C841.005 532.351 840.134 532.767 839.208 532.989L778.825 547.771C777.847 548.011 776.831 548.033 775.844 547.836C774.857 547.64 773.922 547.229 773.102 546.632Z" fill="#E54E26"/>
<path d="M825.556 391.349C844.883 391.349 860.552 375.224 860.552 355.333C860.552 335.443 844.883 319.318 825.556 319.318C806.228 319.318 790.56 335.443 790.56 355.333C790.56 375.224 806.228 391.349 825.556 391.349Z" fill="#FFB8B8"/>
<path d="M728.448 383.859L701.174 396.249C700.137 396.719 698.961 396.746 697.904 396.324C696.847 395.903 695.996 395.067 695.537 394.001L694.863 392.428C694.406 391.361 694.38 390.15 694.789 389.063C695.199 387.975 696.011 387.099 697.047 386.627L724.321 374.237C725.358 373.767 726.534 373.74 727.591 374.161C728.648 374.583 729.499 375.419 729.958 376.485L730.632 378.058C731.089 379.125 731.115 380.335 730.706 381.423C730.296 382.511 729.484 383.386 728.448 383.859Z" fill="#CCCCCC"/>
<path d="M738.422 402.921L711.148 415.311C710.111 415.781 708.935 415.808 707.878 415.387C706.821 414.966 705.97 414.13 705.511 413.063L704.837 411.491C704.38 410.423 704.354 409.213 704.763 408.125C705.173 407.038 705.985 406.162 707.021 405.69L734.295 393.3C735.332 392.83 736.508 392.803 737.565 393.224C738.622 393.646 739.473 394.481 739.932 395.548L740.606 397.12C741.063 398.188 741.089 399.398 740.68 400.486C740.27 401.573 739.458 402.449 738.422 402.921Z" fill="#CCCCCC"/>
<path d="M759.455 477.379L698.65 428.012C698.166 428.188 697.673 428.337 697.174 428.461C695.028 428.977 692.8 429.023 690.636 428.596C688.471 428.169 686.418 427.278 684.61 425.98C682.79 424.682 681.26 422.999 680.123 421.043C678.987 419.088 678.269 416.905 678.018 414.64C677.61 411.021 678.403 407.365 680.267 404.268C682.132 401.17 684.959 398.811 688.29 397.575C690.369 396.807 692.581 396.501 694.784 396.675C696.986 396.849 699.127 397.499 701.068 398.584C703.008 399.669 704.704 401.164 706.045 402.971C707.385 404.777 708.339 406.855 708.845 409.067C709.002 409.768 709.111 410.48 709.171 411.197L769.701 447.133L784.764 438.208L801.451 460.69L778.063 477.846C775.325 479.838 772.036 480.868 768.684 480.784C765.332 480.7 762.096 479.506 759.455 477.379Z" fill="#FFB8B8"/>
<path d="M808.87 467.692L774.177 443.413L790.482 419.648C792.647 416.492 795.826 414.226 799.457 413.249C803.089 412.272 806.939 412.648 810.328 414.31C813.755 415.992 816.486 418.879 818.026 422.451C819.566 426.023 819.815 430.043 818.726 433.787L808.87 467.692Z" fill="#E54E26"/>
<path d="M812.725 349.969C803.73 356.305 791.92 362.817 782.733 356.07C776.701 351.64 774.801 343.437 777.247 336.238C781.646 323.292 793.732 317.593 805.289 313.224C820.313 307.545 836.672 303.027 852.182 307.094C867.692 311.161 881.4 326.615 878.6 342.833C876.348 355.876 864.394 366.728 866.091 379.858C867.799 393.073 882.24 400.03 894.989 402.391C907.739 404.753 922.005 405.512 931.167 414.936C942.856 426.959 939.937 448.448 928.939 461.141C917.941 473.834 901.344 479.588 885.262 483.499C863.953 488.682 840.907 491.405 820.67 482.805C800.433 474.204 784.684 451.051 790.547 429.341C793.023 420.171 798.856 412.421 804.494 404.876C810.131 397.331 815.84 389.441 817.991 380.184C819.783 372.47 818.456 363.513 813.486 357.727C812.581 356.714 812.012 355.432 811.86 354.066C811.708 352.7 811.981 351.319 812.639 350.122L812.725 349.969Z" fill="#2F2E41"/>
<path d="M155.412 524.955C146.394 528.217 136.712 529.034 127.299 527.328C117.885 525.621 109.057 521.449 101.665 515.212C82.8399 498.951 76.9376 472.161 72.1351 447.356C67.4002 422.899 62.6653 398.442 57.9304 373.985L87.6695 395.059C109.056 410.214 130.924 425.855 145.732 447.806C160.54 469.757 167.004 499.722 155.106 523.475" fill="#E6E6E6"/>
<path d="M152.87 613.785C155.88 591.222 158.975 568.368 156.864 545.563C154.989 525.309 148.985 505.527 136.761 489.307C130.272 480.714 122.377 473.351 113.43 467.55C111.097 466.034 108.95 469.839 111.273 471.348C126.754 481.417 138.727 496.285 145.468 513.809C152.913 533.296 154.108 554.539 152.825 575.24C152.049 587.758 150.405 600.195 148.748 612.616C148.618 613.177 148.699 613.769 148.976 614.272C149.253 614.774 149.705 615.149 150.241 615.321C150.787 615.473 151.37 615.397 151.862 615.109C152.354 614.821 152.716 614.346 152.87 613.785H152.87Z" fill="#F2F2F2"/>
<path d="M123.878 573.858C120.011 579.908 114.695 584.83 108.442 588.151C102.189 591.473 95.2108 593.081 88.179 592.82C70.1073 591.938 55.0413 578.957 41.4791 566.634L1.36475 530.184L27.9138 528.877C47.0063 527.936 66.5914 527.059 84.7764 533.119C102.961 539.178 119.732 553.76 123.058 573.132" fill="#E6E6E6"/>
<path d="M161.377 626.756C146.889 600.374 130.085 571.054 100.058 561.683C91.7094 559.086 82.9552 558.156 74.2669 558.943C71.5286 559.186 72.2124 563.529 74.9457 563.287C89.5092 562.043 104.045 566 116.105 574.493C127.71 582.623 136.746 593.925 144.394 605.911C149.079 613.252 153.275 620.905 157.472 628.548C158.813 630.99 162.733 629.227 161.377 626.756Z" fill="#F2F2F2"/>
<path d="M184.59 654.524C184.101 648.703 182.071 643.132 178.718 638.417C175.366 633.702 170.821 630.023 165.578 627.783V612.531H140.722V628.263C135.737 630.614 131.447 634.283 128.289 638.896C125.131 643.51 123.218 648.902 122.745 654.524L116.901 724.446H190.434L184.59 654.524Z" fill="#F2F2F2"/>
</g>
<defs>
<clipPath id="clip0_24_242">
<rect width="986" height="733" fill="white"/>
</clipPath>
</defs>
</svg>
