<svg width="1084" height="710" viewBox="0 0 1084 710" fill="none" xmlns="http://www.w3.org/2000/svg">
<g clip-path="url(#clip0_184_2)">
<path d="M536.426 120.7C542.936 120.708 549.301 118.785 554.717 115.175C560.134 111.565 564.357 106.43 566.853 100.419C569.35 94.4088 570.007 87.7933 568.742 81.4095C567.476 75.0257 564.345 69.1605 559.745 64.556C555.145 59.9516 549.282 56.8147 542.898 55.5422C536.514 54.2698 529.896 54.919 523.882 57.4077C517.867 59.8965 512.726 64.1128 509.108 69.5234C505.491 74.934 503.56 81.2957 503.56 87.8037C503.558 96.5224 507.018 104.885 513.181 111.054C519.344 117.223 527.705 120.692 536.426 120.7Z" fill="#F1662A"/>
<path d="M610.029 72.2298C609.099 69.1888 607.302 66.4853 604.857 64.451C602.413 62.4167 599.427 61.14 596.267 60.7775H596.046C595.959 60.7492 595.869 60.7299 595.777 60.7199C584.764 59.2884 572.521 62.7663 564.285 70.3275C561.228 73.0925 558.782 76.4666 557.107 80.2329C555.577 78.1493 553.564 76.4686 551.24 75.3356C548.917 74.2025 546.352 73.651 543.768 73.7286C540.434 73.9516 537.249 75.1965 534.647 77.2938C532.045 79.3911 530.153 82.239 529.228 85.4498C529.132 85.843 529.162 86.2566 529.315 86.6315C529.467 87.0054 529.737 87.3193 530.084 87.525C531.071 88.3761 532.247 88.9789 533.514 89.2832C536.244 89.8597 538.982 90.3881 541.731 90.8685C547.1 91.778 552.5 92.553 557.933 93.1935C561.508 93.5778 565.099 93.8981 568.706 94.1543C576.144 94.6251 583.621 94.7307 591.068 94.5002C594.768 94.3753 598.314 94.2504 601.687 92.5786C604.147 91.3693 606.247 89.5376 607.78 87.2656C609.231 85.0857 610.183 82.612 610.567 80.0215C610.959 77.4162 610.776 74.7565 610.029 72.2298V72.2298Z" fill="#FDDCD3"/>
<path d="M542.375 120.152C542.308 118.775 542.075 117.41 541.683 116.088C540.751 113.048 538.951 110.345 536.505 108.313C534.059 106.28 531.072 105.006 527.912 104.646C527.842 104.636 527.771 104.636 527.7 104.646L527.422 104.578C521.326 103.832 515.141 104.47 509.326 106.442C500.389 109.43 492.538 115.473 488.761 124.091C487.23 122.007 485.215 120.325 482.89 119.192C480.565 118.059 477.998 117.508 475.413 117.587C472.079 117.808 468.894 119.052 466.293 121.15C463.693 123.248 461.803 126.097 460.883 129.308C460.786 129.702 460.816 130.115 460.969 130.49C461.121 130.863 461.387 131.179 461.728 131.393C462.722 132.238 463.9 132.837 465.169 133.142C467.898 133.718 470.64 134.247 473.395 134.727C478.757 135.669 484.151 136.428 489.578 137.004C500.587 138.192 511.665 138.612 522.732 138.263C526.413 138.138 529.968 138.022 533.303 136.389C535.76 135.18 537.86 133.352 539.396 131.086C541.552 127.864 542.585 124.021 542.336 120.152H542.375Z" fill="#FDDCD3"/>
<path d="M970.66 519.328C971.137 541.771 968.042 564.148 961.493 585.62C961.262 586.408 960.993 587.186 960.714 587.965H825.781C827.713 578.464 830.778 569.229 834.911 560.458C846.135 536.612 864.471 516.206 882.576 495.943C907.504 468.024 931.836 440.334 935.69 404.018C945.571 419.092 953.459 435.381 959.157 452.478C952.186 455.054 945.786 458.971 940.322 464.008C938.804 465.429 937.199 467.495 937.977 469.465C938.717 471.108 940.735 471.665 942.523 472.03C946.828 472.856 951.172 473.682 955.438 474.461C958.831 475.152 962.271 475.786 965.711 476.43C968.731 490.544 970.389 504.916 970.66 519.347V519.328Z" fill="#FDDCD3"/>
<path d="M1084 504.475C1062.37 517.627 1048.62 537.986 1037.39 560.775C1027.62 563.004 1018.6 567.746 1011.22 574.533C1009.66 575.955 1008.06 578.021 1008.88 579.99C1009.57 581.643 1011.64 582.19 1013.42 582.555C1017.68 583.391 1022.06 584.208 1026.3 584.996C1025.89 585.957 1025.48 586.917 1025.06 587.878H882.067C888.56 579.121 895.749 570.903 903.564 563.302C905.255 561.601 907.004 559.997 908.782 558.354C927.008 541.872 947.941 528.657 970.66 519.29C1006.44 504.333 1045.57 499.218 1084 504.475V504.475Z" fill="#FDDCD3"/>
<path d="M905.899 587.917H778.577C777.884 577.716 777.945 567.479 778.76 557.288C783.853 494.339 818.084 434.368 869.737 398.061C863.135 421.581 866.527 444.956 873.408 468.437C872.447 468.754 871.486 469.032 870.612 469.397C863.64 471.973 857.241 475.89 851.776 480.927C850.258 482.348 848.653 484.404 849.431 486.374C850.123 488.027 852.189 488.584 853.977 488.949C858.282 489.775 862.626 490.592 866.854 491.38C870.285 492.062 873.725 492.705 877.166 493.397C878.77 493.666 880.375 493.993 881.97 494.31C882.192 494.858 882.336 495.367 882.566 495.866C890.629 518.108 899.432 540.522 903.554 563.312C904.573 569.033 905.275 574.806 905.659 580.605C905.813 583.055 905.899 585.486 905.899 587.917Z" fill="#F2F2F2"/>
<path d="M211.995 519.328C212.471 541.771 209.377 564.148 202.827 585.62C202.596 586.408 202.327 587.186 202.049 587.965H67.1254C69.0538 578.464 72.1157 569.229 76.2452 560.458C87.4696 536.612 105.805 516.206 123.91 495.943C148.839 468.024 173.181 440.334 177.024 404.018C186.913 419.087 194.801 435.377 200.492 452.478C193.522 455.058 187.124 458.975 181.656 464.008C180.148 465.429 178.543 467.495 179.321 469.465C180.052 471.108 182.07 471.665 183.857 472.03C188.162 472.856 192.506 473.682 196.783 474.461C200.175 475.152 203.615 475.786 207.046 476.43C210.071 490.544 211.728 504.916 211.995 519.347V519.328Z" fill="#FDDCD3"/>
<path d="M325.335 504.475C303.674 517.627 289.96 538.024 278.688 560.775C268.93 563.012 259.924 567.754 252.559 574.533C251.002 575.955 249.397 578.021 250.223 579.99C250.906 581.643 252.972 582.19 254.759 582.555C259.016 583.391 263.408 584.208 267.637 584.996C267.223 585.957 266.81 586.917 266.397 587.878H123.401C129.894 579.121 137.083 570.903 144.899 563.302C146.599 561.601 148.339 559.997 150.126 558.354C168.35 541.874 189.279 528.659 211.995 519.29C247.774 504.321 286.906 499.192 325.335 504.436V504.475Z" fill="#F2F2F2"/>
<path d="M147.234 587.917H19.9214C19.223 577.716 19.284 567.479 20.104 557.288C25.1876 494.339 59.4278 434.368 111.072 398.061C104.479 421.581 107.871 444.956 114.743 468.437C113.782 468.754 112.821 469.032 111.946 469.397C104.976 471.977 98.5781 475.894 93.1106 480.927C91.6018 482.348 89.997 484.404 90.7754 486.374C91.4577 488.027 93.5238 488.584 95.3113 488.949C99.6165 489.775 103.96 490.592 108.189 491.38C111.629 492.062 115.069 492.705 118.5 493.397C120.105 493.666 121.71 493.993 123.305 494.31C123.536 494.858 123.67 495.367 123.901 495.866C131.964 518.108 140.766 540.522 144.889 563.312C145.911 569.033 146.616 574.806 147.003 580.605C147.147 583.055 147.234 585.486 147.234 587.917Z" fill="#FDDCD3"/>
<path d="M621.224 534.441L734.987 544.548L736.207 544.654V59.0482L734.987 58.2027C711.28 41.6138 685.632 27.9852 658.616 17.6203L652.802 97.8244L652.274 105.165L646.508 184.706L644.73 209.176L621.417 531.606L621.224 534.441Z" fill="#FDDCD3"/>
<path d="M339.894 50.0074C339.086 50.5263 338.27 51.0451 337.453 51.5831V544.654L339.894 544.433L452.426 534.441L452.214 531.606L428.901 209.176L427.133 184.706L421.367 105.165L420.838 97.8244L414.745 13.71C388.455 22.8275 363.331 35.0107 339.894 50.0074V50.0074Z" fill="#FDDCD3"/>
<path d="M337.453 51.5831C335.819 52.6495 334.176 53.7256 332.571 54.8305V551.379C332.571 563.792 339.922 574.187 349.753 576.839C351.358 577.272 353.012 577.492 354.674 577.492H720.216C721.875 577.491 723.526 577.271 725.127 576.839C728.793 575.823 732.115 573.831 734.737 571.074C739.727 565.733 742.455 558.668 742.348 551.36V63.4677C740.33 61.9689 738.292 60.4893 736.236 59.0482L735.015 58.2027V551.379C735.024 552.978 734.834 554.573 734.448 556.125C732.719 563.456 726.991 568.826 720.245 568.826H354.674C346.524 568.826 339.894 561.006 339.894 551.379V50.0074C339.086 50.5263 338.27 51.0451 337.453 51.5831Z" fill="#FDDCD3"/>
<path d="M615.401 4.1793C612.96 3.57402 610.528 3.00718 608.059 2.47876V201.836H615.401V4.1793Z" fill="#FDDCD3"/>
<path d="M466.822 0C464.371 0.451556 461.92 0.960758 459.479 1.43153V201.836H466.822V0Z" fill="#FDDCD3"/>
<path d="M257.325 564.637C257.331 570.504 258.896 576.263 261.861 581.326C262.936 583.155 264.181 584.88 265.58 586.475C268.675 590 272.487 592.824 276.761 594.759C281.035 596.694 285.672 597.696 290.364 597.697H772.292C780.961 597.549 789.225 594.003 795.303 587.822C801.381 581.641 804.787 573.32 804.787 564.652C804.787 555.984 801.381 547.663 795.303 541.482C789.225 535.301 780.961 531.754 772.292 531.607H290.364C281.605 531.619 273.209 535.103 267.016 541.295C260.823 547.487 257.338 555.881 257.325 564.637V564.637Z" fill="#FFC7B8"/>
<path d="M336.232 209.186H736.207V184.706H336.232V209.186Z" fill="#FDDCD3"/>
<path d="M553.34 190.826H519.09C519.09 187.258 520.507 183.837 523.03 181.315C525.554 178.792 528.976 177.375 532.544 177.375H539.886C541.653 177.375 543.402 177.723 545.035 178.399C546.667 179.075 548.15 180.065 549.4 181.314C550.633 182.572 551.612 184.057 552.283 185.686C552.956 187.319 553.302 189.069 553.301 190.835L553.34 190.826Z" fill="#FDDCD3"/>
<path d="M0 583.516C10.6869 596.195 22.247 608.112 34.5957 619.18H1027.97C1040.32 608.109 1051.88 596.193 1062.57 583.516H0Z" fill="#3F3D56"/>
<path d="M488.559 464.238V590.597H577.047V464.238C577.049 463.33 576.76 462.446 576.222 461.714C575.684 460.983 574.926 460.443 574.059 460.174C573.649 460.04 573.221 459.972 572.79 459.972H492.836C492.275 459.975 491.72 460.086 491.202 460.299C490.156 460.733 489.324 461.561 488.886 462.605C488.673 463.123 488.562 463.678 488.559 464.238V464.238ZM523.097 507.655C523.097 505.15 524.093 502.748 525.864 500.977C527.636 499.206 530.038 498.211 532.544 498.211C535.049 498.211 537.452 499.206 539.224 500.977C540.995 502.748 541.99 505.15 541.99 507.655V522.316C541.99 524.821 540.995 527.223 539.224 528.994C537.452 530.765 535.049 531.76 532.544 531.76C530.038 531.76 527.636 530.765 525.864 528.994C524.093 527.223 523.097 524.821 523.097 522.316V507.655Z" fill="#2F2E41"/>
<path d="M488.29 586.562V598.744C488.295 599.374 488.546 599.977 488.99 600.424C489.433 600.871 490.034 601.127 490.664 601.137H574.943C575.559 601.136 576.151 600.899 576.596 600.474C576.819 600.254 576.996 599.993 577.117 599.704C577.237 599.415 577.298 599.105 577.297 598.792V586.562H488.29Z" fill="#3F3D56"/>
<path d="M349.35 273.864V504.58C349.357 507.519 350.528 510.334 352.606 512.412C354.684 514.489 357.501 515.66 360.44 515.667H702.207C705.145 515.66 707.96 514.489 710.037 512.411C712.114 510.333 713.282 507.518 713.287 504.58V273.864C713.285 270.927 712.117 268.111 710.039 266.034C707.962 263.957 705.145 262.789 702.207 262.786H360.44C357.502 262.792 354.685 263.96 352.607 266.036C350.529 268.112 349.357 270.927 349.35 273.864V273.864Z" fill="#3F3D56"/>
<path d="M357.374 276.698V501.727C357.377 503.297 358.001 504.802 359.11 505.912C360.219 507.023 361.724 507.65 363.294 507.655H699.363C700.933 507.65 702.437 507.023 703.546 505.912C704.656 504.802 705.28 503.297 705.282 501.727V276.698C705.285 275.125 704.663 273.615 703.553 272.5C702.443 271.385 700.936 270.756 699.363 270.751H363.255C361.682 270.756 360.175 271.385 359.065 272.5C357.955 273.615 357.333 275.125 357.336 276.698H357.374Z" fill="#2F2E41"/>
<path d="M425.893 604C426.237 604.431 426.674 604.779 427.171 605.018C427.667 605.251 428.208 605.372 428.757 605.373H628.691C629.243 605.372 629.787 605.249 630.285 605.013C630.783 604.777 631.224 604.435 631.574 604.009C631.917 603.584 632.163 603.089 632.295 602.558C632.415 602.024 632.415 601.469 632.295 600.935L629.191 586.187C629.064 585.586 628.789 585.026 628.389 584.559C627.989 584.092 627.479 583.734 626.904 583.516C626.488 583.351 626.044 583.267 625.597 583.266H431.851C431.403 583.267 430.96 583.351 430.544 583.516C429.969 583.735 429.458 584.094 429.057 584.561C428.656 585.027 428.378 585.586 428.247 586.187L425.143 600.935C425.032 601.469 425.041 602.022 425.171 602.552C425.3 603.082 425.547 603.577 425.893 604V604Z" fill="#2F2E41"/>
<path d="M618.61 589.617H623.569C623.727 589.617 623.879 589.554 623.99 589.443C624.102 589.331 624.165 589.179 624.165 589.021V586.523C624.165 586.365 624.102 586.214 623.99 586.102C623.879 585.99 623.727 585.928 623.569 585.928H618.61C618.451 585.928 618.299 585.99 618.186 586.102C618.072 586.213 618.007 586.365 618.005 586.523V589.021C618.007 589.18 618.072 589.332 618.186 589.443C618.299 589.555 618.451 589.617 618.61 589.617V589.617Z" fill="#3F3D56"/>
<path d="M606.3 589.617H611.249C611.408 589.617 611.561 589.555 611.674 589.443C611.787 589.332 611.852 589.18 611.855 589.021V586.523C611.852 586.365 611.787 586.213 611.674 586.102C611.561 585.99 611.408 585.928 611.249 585.928H606.3C606.141 585.928 605.989 585.99 605.875 586.102C605.762 586.213 605.697 586.365 605.695 586.523V589.021C605.697 589.18 605.762 589.332 605.875 589.443C605.989 589.555 606.141 589.617 606.3 589.617V589.617Z" fill="#3F3D56"/>
<path d="M593.98 589.617H598.939C599.097 589.617 599.248 589.554 599.36 589.443C599.472 589.331 599.535 589.179 599.535 589.021V586.523C599.535 586.365 599.472 586.214 599.36 586.102C599.248 585.99 599.097 585.928 598.939 585.928H593.98C593.821 585.928 593.669 585.99 593.555 586.102C593.442 586.213 593.377 586.365 593.375 586.523V589.021C593.377 589.18 593.442 589.332 593.555 589.443C593.669 589.555 593.821 589.617 593.98 589.617V589.617Z" fill="#3F3D56"/>
<path d="M581.66 589.617H586.619C586.778 589.617 586.93 589.555 587.044 589.443C587.157 589.332 587.222 589.18 587.224 589.021V586.523C587.222 586.365 587.157 586.213 587.044 586.102C586.93 585.99 586.778 585.928 586.619 585.928H581.66C581.502 585.928 581.351 585.99 581.239 586.102C581.127 586.214 581.064 586.365 581.064 586.523V589.021C581.064 589.179 581.127 589.331 581.239 589.443C581.351 589.554 581.502 589.617 581.66 589.617Z" fill="#3F3D56"/>
<path d="M569.35 589.617H574.299C574.458 589.617 574.61 589.555 574.724 589.443C574.837 589.332 574.902 589.18 574.904 589.021V586.523C574.902 586.365 574.837 586.213 574.724 586.102C574.61 585.99 574.458 585.928 574.299 585.928H569.35C569.191 585.928 569.038 585.99 568.925 586.102C568.812 586.213 568.747 586.365 568.745 586.523V589.021C568.747 589.18 568.812 589.332 568.925 589.443C569.038 589.555 569.191 589.617 569.35 589.617V589.617Z" fill="#3F3D56"/>
<path d="M557.03 589.617H561.989C562.147 589.617 562.298 589.554 562.41 589.443C562.522 589.331 562.584 589.179 562.584 589.021V586.523C562.584 586.365 562.522 586.214 562.41 586.102C562.298 585.99 562.147 585.928 561.989 585.928H557.03C556.872 585.928 556.72 585.99 556.609 586.102C556.497 586.214 556.434 586.365 556.434 586.523V589.021C556.434 589.179 556.497 589.331 556.609 589.443C556.72 589.554 556.872 589.617 557.03 589.617V589.617Z" fill="#3F3D56"/>
<path d="M544.72 589.617H549.688C549.847 589.617 549.999 589.555 550.113 589.443C550.226 589.332 550.291 589.18 550.293 589.021V586.523C550.291 586.365 550.226 586.213 550.113 586.102C549.999 585.99 549.847 585.928 549.688 585.928H544.739C544.58 585.928 544.427 585.99 544.314 586.102C544.201 586.213 544.136 586.365 544.133 586.523V589.021C544.136 589.177 544.198 589.326 544.307 589.437C544.416 589.547 544.564 589.612 544.72 589.617V589.617Z" fill="#3F3D56"/>
<path d="M532.39 589.617H537.349C537.507 589.617 537.658 589.554 537.77 589.443C537.882 589.331 537.945 589.179 537.945 589.021V586.523C537.945 586.365 537.882 586.214 537.77 586.102C537.658 585.99 537.507 585.928 537.349 585.928H532.39C532.232 585.928 532.08 585.99 531.969 586.102C531.857 586.214 531.794 586.365 531.794 586.523V589.021C531.794 589.179 531.857 589.331 531.969 589.443C532.08 589.554 532.232 589.617 532.39 589.617Z" fill="#3F3D56"/>
<path d="M520.08 589.617H525.038C525.197 589.617 525.35 589.555 525.463 589.443C525.576 589.332 525.641 589.18 525.644 589.021V586.523C525.641 586.365 525.576 586.213 525.463 586.102C525.35 585.99 525.197 585.928 525.038 585.928H520.08C519.922 585.928 519.77 585.99 519.658 586.102C519.547 586.214 519.484 586.365 519.484 586.523V589.021C519.484 589.179 519.547 589.331 519.658 589.443C519.77 589.554 519.922 589.617 520.08 589.617Z" fill="#3F3D56"/>
<path d="M507.769 589.617H512.719C512.878 589.617 513.03 589.555 513.143 589.443C513.257 589.332 513.321 589.18 513.324 589.021V586.523C513.321 586.365 513.257 586.213 513.143 586.102C513.03 585.99 512.878 585.928 512.719 585.928H507.769C507.611 585.928 507.458 585.99 507.345 586.102C507.231 586.213 507.167 586.365 507.164 586.523V589.021C507.167 589.18 507.231 589.332 507.345 589.443C507.458 589.555 507.611 589.617 507.769 589.617V589.617Z" fill="#3F3D56"/>
<path d="M495.449 589.617H500.408C500.566 589.617 500.718 589.554 500.83 589.443C500.941 589.331 501.004 589.179 501.004 589.021V586.523C501.004 586.365 500.941 586.214 500.83 586.102C500.718 585.99 500.566 585.928 500.408 585.928H495.449C495.291 585.928 495.14 585.99 495.028 586.102C494.916 586.214 494.854 586.365 494.854 586.523V589.021C494.854 589.179 494.916 589.331 495.028 589.443C495.14 589.554 495.291 589.617 495.449 589.617Z" fill="#3F3D56"/>
<path d="M483.139 589.617H488.088C488.247 589.617 488.4 589.555 488.513 589.443C488.626 589.332 488.691 589.18 488.694 589.021V586.523C488.691 586.365 488.626 586.213 488.513 586.102C488.4 585.99 488.247 585.928 488.088 585.928H483.139C482.98 585.928 482.828 585.99 482.714 586.102C482.601 586.213 482.536 586.365 482.534 586.523V589.021C482.536 589.18 482.601 589.332 482.714 589.443C482.828 589.555 482.98 589.617 483.139 589.617V589.617Z" fill="#3F3D56"/>
<path d="M470.819 589.617H475.778C475.936 589.617 476.088 589.554 476.199 589.443C476.311 589.331 476.374 589.179 476.374 589.021V586.523C476.374 586.365 476.311 586.214 476.199 586.102C476.088 585.99 475.936 585.928 475.778 585.928H470.819C470.66 585.928 470.508 585.99 470.394 586.102C470.281 586.213 470.216 586.365 470.214 586.523V589.021C470.216 589.18 470.281 589.332 470.394 589.443C470.508 589.555 470.66 589.617 470.819 589.617V589.617Z" fill="#3F3D56"/>
<path d="M458.499 589.617H463.458C463.617 589.617 463.769 589.555 463.883 589.443C463.996 589.332 464.061 589.18 464.063 589.021V586.523C464.061 586.365 463.996 586.213 463.883 586.102C463.769 585.99 463.617 585.928 463.458 585.928H458.499C458.341 585.928 458.19 585.99 458.078 586.102C457.966 586.214 457.904 586.365 457.904 586.523V589.021C457.904 589.179 457.966 589.331 458.078 589.443C458.19 589.554 458.341 589.617 458.499 589.617V589.617Z" fill="#3F3D56"/>
<path d="M446.189 589.617H451.148C451.306 589.617 451.457 589.554 451.569 589.443C451.681 589.331 451.744 589.179 451.744 589.021V586.523C451.744 586.365 451.681 586.214 451.569 586.102C451.457 585.99 451.306 585.928 451.148 585.928H446.189C446.03 585.928 445.878 585.99 445.764 586.102C445.651 586.213 445.586 586.365 445.584 586.523V589.021C445.586 589.18 445.651 589.332 445.764 589.443C445.878 589.555 446.03 589.617 446.189 589.617V589.617Z" fill="#3F3D56"/>
<path d="M433.869 589.617H438.828C438.987 589.617 439.139 589.555 439.253 589.443C439.366 589.332 439.431 589.18 439.433 589.021V586.523C439.431 586.365 439.366 586.213 439.253 586.102C439.139 585.99 438.987 585.928 438.828 585.928H433.869C433.711 585.928 433.559 585.99 433.448 586.102C433.336 586.214 433.273 586.365 433.273 586.523V589.021C433.273 589.179 433.336 589.331 433.448 589.443C433.559 589.554 433.711 589.617 433.869 589.617Z" fill="#3F3D56"/>
<path d="M618.754 595.775H623.684C623.763 595.777 623.842 595.762 623.915 595.733C623.989 595.704 624.056 595.66 624.112 595.604C624.168 595.549 624.213 595.483 624.244 595.41C624.274 595.337 624.29 595.259 624.29 595.18V592.682C624.287 592.523 624.222 592.371 624.109 592.26C623.996 592.149 623.843 592.086 623.684 592.086H618.726C618.568 592.086 618.416 592.149 618.304 592.261C618.193 592.372 618.13 592.524 618.13 592.682V595.18C618.13 595.261 618.146 595.34 618.178 595.415C618.21 595.489 618.256 595.556 618.314 595.612C618.373 595.667 618.442 595.711 618.518 595.739C618.593 595.767 618.674 595.779 618.754 595.775V595.775Z" fill="#3F3D56"/>
<path d="M606.444 595.775H611.393C611.472 595.777 611.551 595.762 611.624 595.733C611.698 595.704 611.764 595.66 611.821 595.605C611.877 595.549 611.922 595.483 611.952 595.41C611.983 595.337 611.999 595.259 611.999 595.18V592.682C611.996 592.523 611.931 592.371 611.818 592.26C611.705 592.149 611.552 592.086 611.393 592.086H606.444C606.285 592.086 606.133 592.149 606.019 592.26C605.906 592.371 605.841 592.523 605.839 592.682V595.18C605.839 595.259 605.854 595.337 605.885 595.41C605.916 595.483 605.96 595.549 606.017 595.605C606.073 595.66 606.14 595.704 606.213 595.733C606.287 595.762 606.365 595.777 606.444 595.775Z" fill="#3F3D56"/>
<path d="M594.124 595.775H599.083C599.241 595.775 599.393 595.713 599.504 595.601C599.616 595.489 599.679 595.338 599.679 595.18V592.682C599.679 592.524 599.616 592.372 599.504 592.261C599.393 592.149 599.241 592.086 599.083 592.086H594.124C593.965 592.086 593.813 592.149 593.7 592.26C593.586 592.371 593.521 592.523 593.519 592.682V595.18C593.521 595.339 593.586 595.49 593.7 595.602C593.813 595.713 593.965 595.775 594.124 595.775V595.775Z" fill="#3F3D56"/>
<path d="M581.804 595.775H586.763C586.842 595.777 586.921 595.762 586.994 595.733C587.067 595.704 587.134 595.66 587.191 595.605C587.247 595.549 587.292 595.483 587.322 595.41C587.353 595.337 587.368 595.259 587.368 595.18V592.682C587.366 592.523 587.301 592.371 587.188 592.26C587.074 592.149 586.922 592.086 586.763 592.086H581.804C581.646 592.086 581.495 592.149 581.383 592.261C581.271 592.372 581.208 592.524 581.208 592.682V595.18C581.208 595.338 581.271 595.489 581.383 595.601C581.495 595.713 581.646 595.775 581.804 595.775Z" fill="#3F3D56"/>
<path d="M569.494 595.775H574.453C574.611 595.775 574.762 595.713 574.874 595.601C574.986 595.489 575.049 595.338 575.049 595.18V592.682C575.049 592.524 574.986 592.372 574.874 592.261C574.762 592.149 574.611 592.086 574.453 592.086H569.494C569.335 592.086 569.183 592.149 569.069 592.26C568.956 592.371 568.891 592.523 568.889 592.682V595.18C568.889 595.259 568.904 595.337 568.935 595.41C568.965 595.483 569.01 595.549 569.066 595.605C569.123 595.66 569.19 595.704 569.263 595.733C569.336 595.762 569.415 595.777 569.494 595.775Z" fill="#3F3D56"/>
<path d="M557.174 595.775H562.181C562.26 595.777 562.338 595.762 562.412 595.733C562.485 595.704 562.552 595.66 562.608 595.605C562.665 595.549 562.709 595.483 562.74 595.41C562.771 595.337 562.786 595.259 562.786 595.18V592.682C562.784 592.523 562.719 592.371 562.606 592.26C562.492 592.149 562.34 592.086 562.181 592.086H557.222C557.064 592.086 556.913 592.149 556.801 592.261C556.689 592.372 556.626 592.524 556.626 592.682V595.18C556.626 595.33 556.682 595.474 556.783 595.585C556.885 595.695 557.025 595.763 557.174 595.775V595.775Z" fill="#3F3D56"/>
<path d="M544.883 595.775H549.832C549.911 595.777 549.99 595.762 550.063 595.733C550.136 595.704 550.203 595.66 550.26 595.605C550.316 595.549 550.361 595.483 550.391 595.41C550.422 595.337 550.438 595.259 550.438 595.18V592.682C550.435 592.523 550.37 592.371 550.257 592.26C550.144 592.149 549.991 592.086 549.832 592.086H544.883C544.724 592.086 544.572 592.149 544.458 592.26C544.345 592.371 544.28 592.523 544.278 592.682V595.18C544.278 595.259 544.293 595.337 544.324 595.41C544.354 595.483 544.399 595.549 544.455 595.605C544.512 595.66 544.579 595.704 544.652 595.733C544.725 595.762 544.804 595.777 544.883 595.775Z" fill="#3F3D56"/>
<path d="M532.544 595.775H537.503C537.661 595.775 537.812 595.713 537.924 595.601C538.036 595.489 538.098 595.338 538.098 595.18V592.682C538.098 592.524 538.036 592.372 537.924 592.261C537.812 592.149 537.661 592.086 537.503 592.086H532.544C532.386 592.086 532.234 592.149 532.123 592.261C532.011 592.372 531.948 592.524 531.948 592.682V595.18C531.948 595.338 532.011 595.489 532.123 595.601C532.234 595.713 532.386 595.775 532.544 595.775V595.775Z" fill="#3F3D56"/>
<path d="M520.233 595.775H525.183C525.262 595.777 525.34 595.762 525.414 595.733C525.487 595.704 525.554 595.66 525.61 595.605C525.666 595.549 525.711 595.483 525.742 595.41C525.772 595.337 525.788 595.259 525.788 595.18V592.682C525.786 592.523 525.721 592.371 525.607 592.26C525.494 592.149 525.342 592.086 525.183 592.086H520.233C520.075 592.086 519.922 592.149 519.809 592.26C519.695 592.371 519.631 592.523 519.628 592.682V595.18C519.628 595.259 519.644 595.337 519.674 595.41C519.705 595.483 519.75 595.549 519.806 595.605C519.862 595.66 519.929 595.704 520.003 595.733C520.076 595.762 520.154 595.777 520.233 595.775Z" fill="#3F3D56"/>
<path d="M507.914 595.775H512.872C513.03 595.775 513.182 595.713 513.294 595.601C513.405 595.489 513.468 595.338 513.468 595.18V592.682C513.468 592.524 513.405 592.372 513.294 592.261C513.182 592.149 513.03 592.086 512.872 592.086H507.914C507.755 592.086 507.602 592.149 507.489 592.26C507.376 592.371 507.311 592.523 507.308 592.682V595.18C507.308 595.259 507.324 595.337 507.354 595.41C507.385 595.483 507.43 595.549 507.486 595.605C507.542 595.66 507.609 595.704 507.683 595.733C507.756 595.762 507.835 595.777 507.914 595.775Z" fill="#3F3D56"/>
<path d="M495.594 595.775H500.552C500.631 595.777 500.71 595.762 500.783 595.733C500.857 595.704 500.924 595.66 500.98 595.605C501.036 595.549 501.081 595.483 501.111 595.41C501.142 595.337 501.158 595.259 501.158 595.18V592.682C501.155 592.523 501.09 592.371 500.977 592.26C500.864 592.149 500.711 592.086 500.552 592.086H495.594C495.436 592.086 495.284 592.149 495.172 592.261C495.061 592.372 494.998 592.524 494.998 592.682V595.18C494.998 595.338 495.061 595.489 495.172 595.601C495.284 595.713 495.436 595.775 495.594 595.775Z" fill="#3F3D56"/>
<path d="M483.283 595.775H488.232C488.311 595.777 488.39 595.762 488.463 595.733C488.537 595.704 488.604 595.66 488.66 595.605C488.716 595.549 488.761 595.483 488.792 595.41C488.822 595.337 488.838 595.259 488.838 595.18V592.682C488.835 592.523 488.77 592.371 488.657 592.26C488.544 592.149 488.391 592.086 488.232 592.086H483.283C483.124 592.086 482.972 592.149 482.859 592.26C482.745 592.371 482.68 592.523 482.678 592.682V595.18C482.678 595.259 482.694 595.337 482.724 595.41C482.755 595.483 482.799 595.549 482.856 595.605C482.912 595.66 482.979 595.704 483.052 595.733C483.126 595.762 483.204 595.777 483.283 595.775Z" fill="#3F3D56"/>
<path d="M470.963 595.775H475.922C476.08 595.775 476.232 595.713 476.343 595.601C476.455 595.489 476.518 595.338 476.518 595.18V592.682C476.518 592.524 476.455 592.372 476.343 592.261C476.232 592.149 476.08 592.086 475.922 592.086H470.963C470.805 592.086 470.654 592.149 470.542 592.261C470.43 592.372 470.368 592.524 470.368 592.682V595.18C470.368 595.338 470.43 595.489 470.542 595.601C470.654 595.713 470.805 595.775 470.963 595.775V595.775Z" fill="#3F3D56"/>
<path d="M458.653 595.775H463.602C463.681 595.777 463.76 595.762 463.833 595.733C463.907 595.704 463.973 595.66 464.03 595.605C464.086 595.549 464.131 595.483 464.161 595.41C464.192 595.337 464.208 595.259 464.208 595.18V592.682C464.205 592.523 464.14 592.371 464.027 592.26C463.914 592.149 463.761 592.086 463.602 592.086H458.653C458.494 592.086 458.342 592.149 458.228 592.26C458.115 592.371 458.05 592.523 458.048 592.682V595.18C458.048 595.259 458.063 595.337 458.094 595.41C458.124 595.483 458.169 595.549 458.226 595.605C458.282 595.66 458.349 595.704 458.422 595.733C458.496 595.762 458.574 595.777 458.653 595.775V595.775Z" fill="#3F3D56"/>
<path d="M446.333 595.775H451.292C451.45 595.775 451.601 595.713 451.713 595.601C451.825 595.489 451.888 595.338 451.888 595.18V592.682C451.888 592.524 451.825 592.372 451.713 592.261C451.601 592.149 451.45 592.086 451.292 592.086H446.333C446.175 592.086 446.024 592.149 445.912 592.261C445.8 592.372 445.737 592.524 445.737 592.682V595.18C445.737 595.338 445.8 595.489 445.912 595.601C446.024 595.713 446.175 595.775 446.333 595.775Z" fill="#3F3D56"/>
<path d="M434.023 595.775H438.972C439.051 595.777 439.129 595.762 439.203 595.733C439.276 595.704 439.343 595.66 439.399 595.605C439.456 595.549 439.501 595.483 439.531 595.41C439.562 595.337 439.577 595.259 439.577 595.18V592.682C439.575 592.523 439.51 592.371 439.397 592.26C439.283 592.149 439.131 592.086 438.972 592.086H434.023C433.864 592.086 433.711 592.149 433.598 592.26C433.485 592.371 433.42 592.523 433.417 592.682V595.18C433.417 595.259 433.433 595.337 433.464 595.41C433.494 595.483 433.539 595.549 433.595 595.605C433.652 595.66 433.718 595.704 433.792 595.733C433.865 595.762 433.944 595.777 434.023 595.775V595.775Z" fill="#3F3D56"/>
<path d="M516.534 603.173H564.583C564.744 603.173 564.898 603.11 565.011 602.996C565.125 602.883 565.189 602.729 565.189 602.568V600.08C565.189 599.919 565.125 599.765 565.011 599.652C564.898 599.538 564.744 599.474 564.583 599.474H516.534C516.375 599.477 516.223 599.542 516.112 599.655C516 599.768 515.938 599.921 515.938 600.08V602.568C515.938 602.727 516 602.879 516.112 602.993C516.223 603.106 516.375 603.171 516.534 603.173V603.173Z" fill="#3F3D56"/>
<path d="M380.178 301.784H694.635C694.797 301.784 694.957 301.751 695.106 301.686C695.255 301.622 695.389 301.527 695.499 301.409C695.67 301.235 695.786 301.015 695.833 300.776C695.88 300.537 695.856 300.289 695.765 300.063C695.673 299.838 695.517 299.644 695.316 299.506C695.115 299.367 694.878 299.291 694.635 299.286H380.178C379.935 299.291 379.698 299.367 379.497 299.506C379.296 299.644 379.14 299.838 379.048 300.063C378.956 300.289 378.933 300.537 378.98 300.776C379.027 301.015 379.143 301.235 379.314 301.409C379.425 301.527 379.559 301.621 379.707 301.685C379.856 301.75 380.016 301.783 380.178 301.784V301.784Z" fill="#3F3D56"/>
<path d="M673.233 292.897C674.722 292.929 676.187 292.517 677.441 291.714C678.695 290.91 679.681 289.752 680.274 288.385C680.866 287.019 681.038 285.508 680.768 284.043C680.497 282.579 679.796 281.229 678.755 280.164C677.713 279.1 676.378 278.37 674.92 278.067C673.462 277.764 671.946 277.903 670.567 278.465C669.188 279.027 668.007 279.987 667.176 281.223C666.345 282.459 665.901 283.914 665.901 285.403C665.889 286.376 666.07 287.343 666.433 288.246C666.795 289.15 667.332 289.973 668.013 290.669C668.694 291.365 669.506 291.92 670.401 292.303C671.297 292.685 672.259 292.887 673.233 292.897V292.897Z" fill="#3F3D56"/>
<path d="M647.921 292.897C649.41 292.929 650.875 292.517 652.129 291.714C653.382 290.91 654.369 289.752 654.961 288.385C655.554 287.019 655.725 285.508 655.455 284.043C655.184 282.579 654.484 281.229 653.442 280.164C652.401 279.1 651.066 278.37 649.607 278.067C648.149 277.764 646.634 277.903 645.255 278.465C643.875 279.027 642.695 279.987 641.864 281.223C641.033 282.459 640.589 283.914 640.588 285.403C640.577 286.376 640.757 287.343 641.12 288.246C641.482 289.15 642.019 289.973 642.7 290.669C643.381 291.365 644.193 291.92 645.089 292.303C645.984 292.685 646.947 292.887 647.921 292.897V292.897Z" fill="#3F3D56"/>
<path d="M622.598 292.897C624.088 292.929 625.552 292.517 626.806 291.714C628.06 290.91 629.047 289.752 629.639 288.385C630.231 287.019 630.403 285.508 630.133 284.043C629.862 282.579 629.162 281.229 628.12 280.164C627.079 279.1 625.744 278.37 624.285 278.067C622.827 277.764 621.312 277.903 619.932 278.465C618.553 279.027 617.373 279.987 616.542 281.223C615.71 282.459 615.266 283.914 615.266 285.403C615.246 287.368 616.006 289.261 617.381 290.667C618.756 292.072 620.633 292.874 622.598 292.897V292.897Z" fill="#3F3D56"/>
<path d="M394.084 281.127C394.089 281.486 394.229 281.829 394.478 282.088C394.604 282.212 394.75 282.313 394.91 282.386C395.075 282.452 395.252 282.485 395.429 282.482H413.41C413.589 282.482 413.766 282.446 413.931 282.377C414.096 282.308 414.245 282.206 414.371 282.079C414.62 281.821 414.758 281.476 414.755 281.118C414.755 280.762 414.617 280.421 414.369 280.166C414.121 279.912 413.784 279.763 413.429 279.753H395.429C395.071 279.758 394.729 279.904 394.477 280.16C394.225 280.415 394.084 280.759 394.084 281.118V281.127Z" fill="#3F3D56"/>
<path d="M394.084 286.239C394.089 286.597 394.229 286.941 394.478 287.199C394.601 287.326 394.748 287.427 394.91 287.497C395.075 287.566 395.251 287.602 395.429 287.603H413.41C413.771 287.595 414.116 287.447 414.371 287.19C414.623 286.933 414.764 286.588 414.765 286.229C414.76 285.874 414.618 285.534 414.37 285.28C414.121 285.026 413.784 284.877 413.429 284.865H395.429C395.071 284.87 394.729 285.016 394.477 285.271C394.225 285.526 394.084 285.87 394.084 286.229V286.239Z" fill="#3F3D56"/>
<path d="M394.084 291.34C394.084 291.7 394.225 292.045 394.476 292.302C394.728 292.558 395.07 292.707 395.429 292.714H413.41C413.676 292.711 413.936 292.629 414.157 292.48C414.378 292.33 414.551 292.119 414.653 291.873C414.755 291.626 414.783 291.355 414.733 291.093C414.682 290.831 414.557 290.59 414.371 290.399C414.116 290.141 413.771 289.993 413.41 289.986H395.429C395.251 289.986 395.075 290.022 394.91 290.091C394.668 290.199 394.461 290.374 394.315 290.595C394.169 290.816 394.088 291.075 394.084 291.34V291.34Z" fill="#3F3D56"/>
<path d="M399.639 330.866H393.181C392.24 330.866 391.338 331.239 390.673 331.904C390.008 332.569 389.635 333.471 389.635 334.411C389.635 335.351 390.008 336.253 390.673 336.918C391.338 337.583 392.24 337.956 393.181 337.956H399.639C400.579 337.956 401.481 337.583 402.146 336.918C402.811 336.253 403.185 335.351 403.185 334.411C403.185 333.471 402.811 332.569 402.146 331.904C401.481 331.239 400.579 330.866 399.639 330.866V330.866Z" fill="#FDDCD3"/>
<path d="M473.539 330.866H467.043C466.102 330.866 465.2 331.239 464.535 331.904C463.87 332.569 463.496 333.471 463.496 334.411C463.496 335.351 463.87 336.253 464.535 336.918C465.2 337.583 466.102 337.956 467.043 337.956H473.5C474.441 337.956 475.343 337.583 476.008 336.918C476.673 336.253 477.046 335.351 477.046 334.411C477.046 333.471 476.673 332.569 476.008 331.904C475.343 331.239 474.441 330.866 473.5 330.866H473.539Z" fill="#FDDCD3"/>
<path d="M494.479 330.866H488.011C487.071 330.866 486.169 331.239 485.504 331.904C484.839 332.569 484.465 333.471 484.465 334.411C484.465 335.351 484.839 336.253 485.504 336.918C486.169 337.583 487.071 337.956 488.011 337.956H494.479C495.419 337.956 496.321 337.583 496.986 336.918C497.651 336.253 498.025 335.351 498.025 334.411C498.025 333.471 497.651 332.569 496.986 331.904C496.321 331.239 495.419 330.866 494.479 330.866V330.866Z" fill="#FDDCD3"/>
<path d="M453.435 330.27H413.285C412.344 330.27 411.442 330.644 410.777 331.308C410.112 331.973 409.739 332.875 409.739 333.815C409.739 334.756 410.112 335.657 410.777 336.322C411.442 336.987 412.344 337.361 413.285 337.361H453.435C454.375 337.361 455.277 336.987 455.942 336.322C456.607 335.657 456.981 334.756 456.981 333.815C456.981 332.875 456.607 331.973 455.942 331.308C455.277 330.644 454.375 330.27 453.435 330.27V330.27Z" fill="#FDDCD3"/>
<path d="M551.965 330.27H511.806C510.865 330.27 509.963 330.644 509.298 331.308C508.633 331.973 508.26 332.875 508.26 333.815C508.26 334.756 508.633 335.657 509.298 336.322C509.963 336.987 510.865 337.361 511.806 337.361H551.965C552.906 337.361 553.808 336.987 554.473 336.322C555.138 335.657 555.512 334.756 555.512 333.815C555.512 332.875 555.138 331.973 554.473 331.308C553.808 330.644 552.906 330.27 551.965 330.27V330.27Z" fill="#FDDCD3"/>
<path d="M419.348 346.882H412.891C411.95 346.882 411.048 347.255 410.383 347.92C409.718 348.585 409.345 349.487 409.345 350.427C409.345 351.367 409.718 352.269 410.383 352.934C411.048 353.598 411.95 353.972 412.891 353.972H419.348C420.289 353.972 421.191 353.598 421.856 352.934C422.521 352.269 422.895 351.367 422.895 350.427C422.895 349.487 422.521 348.585 421.856 347.92C421.191 347.255 420.289 346.882 419.348 346.882V346.882Z" fill="#FDDCD3"/>
<path d="M493.249 346.882H486.781C485.841 346.882 484.939 347.255 484.274 347.92C483.609 348.585 483.235 349.487 483.235 350.427C483.235 351.367 483.609 352.269 484.274 352.934C484.939 353.598 485.841 353.972 486.781 353.972H493.249C494.189 353.972 495.091 353.598 495.756 352.934C496.421 352.269 496.795 351.367 496.795 350.427C496.795 349.487 496.421 348.585 495.756 347.92C495.091 347.255 494.189 346.882 493.249 346.882V346.882Z" fill="#FDDCD3"/>
<path d="M514.179 346.882H507.721C506.781 346.882 505.879 347.255 505.214 347.92C504.549 348.585 504.175 349.487 504.175 350.427C504.175 351.367 504.549 352.269 505.214 352.934C505.879 353.598 506.781 353.972 507.721 353.972H514.179C515.12 353.972 516.022 353.598 516.687 352.934C517.352 352.269 517.725 351.367 517.725 350.427C517.725 349.487 517.352 348.585 516.687 347.92C516.022 347.255 515.12 346.882 514.179 346.882Z" fill="#FDDCD3"/>
<path d="M473.145 346.286H432.985C432.075 346.333 431.218 346.728 430.591 347.389C429.964 348.049 429.614 348.925 429.614 349.836C429.614 350.747 429.964 351.623 430.591 352.283C431.218 352.944 432.075 353.339 432.985 353.386H473.145C474.055 353.339 474.912 352.944 475.539 352.283C476.166 351.623 476.516 350.747 476.516 349.836C476.516 348.925 476.166 348.049 475.539 347.389C474.912 346.728 474.055 346.333 473.145 346.286V346.286Z" fill="#FDDCD3"/>
<path d="M571.676 346.286H531.516C530.606 346.333 529.749 346.728 529.122 347.389C528.494 348.049 528.145 348.925 528.145 349.836C528.145 350.747 528.494 351.623 529.122 352.283C529.749 352.944 530.606 353.339 531.516 353.386H571.676C572.585 353.339 573.442 352.944 574.069 352.283C574.697 351.623 575.046 350.747 575.046 349.836C575.046 348.925 574.697 348.049 574.069 347.389C573.442 346.728 572.585 346.333 571.676 346.286Z" fill="#FDDCD3"/>
<path d="M439.058 362.897H432.591C431.65 362.897 430.749 363.271 430.083 363.936C429.418 364.601 429.045 365.502 429.045 366.443C429.045 367.383 429.418 368.285 430.083 368.949C430.749 369.614 431.65 369.988 432.591 369.988H439.058C439.999 369.988 440.901 369.614 441.566 368.949C442.231 368.285 442.605 367.383 442.605 366.443C442.605 365.502 442.231 364.601 441.566 363.936C440.901 363.271 439.999 362.897 439.058 362.897V362.897Z" fill="#FDDCD3"/>
<path d="M512.949 362.897H506.491C505.551 362.897 504.649 363.271 503.984 363.936C503.319 364.601 502.945 365.502 502.945 366.443C502.945 367.383 503.319 368.285 503.984 368.949C504.649 369.614 505.551 369.988 506.491 369.988H512.949C513.89 369.988 514.792 369.614 515.457 368.949C516.122 368.285 516.495 367.383 516.495 366.443C516.495 365.502 516.122 364.601 515.457 363.936C514.792 363.271 513.89 362.897 512.949 362.897V362.897Z" fill="#FDDCD3"/>
<path d="M533.889 362.897H527.422C526.481 362.897 525.579 363.271 524.914 363.936C524.249 364.601 523.876 365.502 523.876 366.443C523.876 367.383 524.249 368.285 524.914 368.949C525.579 369.614 526.481 369.988 527.422 369.988H533.889C534.83 369.988 535.732 369.614 536.397 368.949C537.062 368.285 537.435 367.383 537.435 366.443C537.435 365.502 537.062 364.601 536.397 363.936C535.732 363.271 534.83 362.897 533.889 362.897V362.897Z" fill="#FDDCD3"/>
<path d="M492.845 362.302H452.695C451.785 362.349 450.928 362.744 450.301 363.404C449.674 364.065 449.324 364.941 449.324 365.852C449.324 366.763 449.674 367.639 450.301 368.299C450.928 368.96 451.785 369.354 452.695 369.402H492.845C493.755 369.354 494.612 368.96 495.239 368.299C495.866 367.639 496.216 366.763 496.216 365.852C496.216 364.941 495.866 364.065 495.239 363.404C494.612 362.744 493.755 362.349 492.845 362.302V362.302Z" fill="#FDDCD3"/>
<path d="M591.376 362.302H551.216C550.306 362.349 549.449 362.744 548.822 363.404C548.195 364.065 547.845 364.941 547.845 365.852C547.845 366.763 548.195 367.639 548.822 368.299C549.449 368.96 550.306 369.354 551.216 369.402H591.376C592.286 369.354 593.143 368.96 593.77 368.299C594.397 367.639 594.747 366.763 594.747 365.852C594.747 364.941 594.397 364.065 593.77 363.404C593.143 362.744 592.286 362.349 591.376 362.302V362.302Z" fill="#FDDCD3"/>
<path d="M458.759 378.913H452.301C451.36 378.913 450.459 379.287 449.794 379.952C449.128 380.616 448.755 381.518 448.755 382.458C448.755 383.399 449.128 384.3 449.794 384.965C450.459 385.63 451.36 386.004 452.301 386.004H458.759C459.699 386.004 460.601 385.63 461.266 384.965C461.931 384.3 462.305 383.399 462.305 382.458C462.305 381.518 461.931 380.616 461.266 379.952C460.601 379.287 459.699 378.913 458.759 378.913V378.913Z" fill="#FDDCD3"/>
<path d="M532.659 378.913H526.192C525.251 378.913 524.349 379.287 523.684 379.952C523.019 380.616 522.646 381.518 522.646 382.458C522.646 383.399 523.019 384.3 523.684 384.965C524.349 385.63 525.251 386.004 526.192 386.004H532.659C533.6 386.004 534.502 385.63 535.167 384.965C535.832 384.3 536.205 383.399 536.205 382.458C536.205 381.518 535.832 380.616 535.167 379.952C534.502 379.287 533.6 378.913 532.659 378.913V378.913Z" fill="#FDDCD3"/>
<path d="M553.59 378.913H547.132C546.191 378.913 545.289 379.287 544.624 379.952C543.959 380.616 543.586 381.518 543.586 382.458C543.586 383.399 543.959 384.3 544.624 384.965C545.289 385.63 546.191 386.004 547.132 386.004H553.59C554.53 386.004 555.432 385.63 556.097 384.965C556.762 384.3 557.136 383.399 557.136 382.458C557.136 381.518 556.762 380.616 556.097 379.952C555.432 379.287 554.53 378.913 553.59 378.913V378.913Z" fill="#FDDCD3"/>
<path d="M512.555 378.318H472.395C471.486 378.365 470.629 378.76 470.001 379.42C469.374 380.081 469.024 380.957 469.024 381.868C469.024 382.778 469.374 383.654 470.001 384.315C470.629 384.976 471.486 385.37 472.395 385.418H512.555C513.465 385.37 514.322 384.976 514.949 384.315C515.576 383.654 515.926 382.778 515.926 381.868C515.926 380.957 515.576 380.081 514.949 379.42C514.322 378.76 513.465 378.365 512.555 378.318Z" fill="#FDDCD3"/>
<path d="M473.539 442.602H467.043C466.133 442.649 465.276 443.044 464.649 443.704C464.021 444.365 463.672 445.241 463.672 446.152C463.672 447.063 464.021 447.939 464.649 448.599C465.276 449.26 466.133 449.655 467.043 449.702H473.5C474.41 449.655 475.267 449.26 475.894 448.599C476.522 447.939 476.871 447.063 476.871 446.152C476.871 445.241 476.522 444.365 475.894 443.704C475.267 443.044 474.41 442.649 473.5 442.602H473.539Z" fill="#FDDCD3"/>
<path d="M494.479 442.602H488.011C487.102 442.649 486.245 443.044 485.617 443.704C484.99 444.365 484.641 445.241 484.641 446.152C484.641 447.063 484.99 447.939 485.617 448.599C486.245 449.26 487.102 449.655 488.011 449.702H494.479C495.389 449.655 496.246 449.26 496.873 448.599C497.5 447.939 497.85 447.063 497.85 446.152C497.85 445.241 497.5 444.365 496.873 443.704C496.246 443.044 495.389 442.649 494.479 442.602V442.602Z" fill="#FDDCD3"/>
<path d="M551.965 443.188H511.806C510.896 443.235 510.039 443.63 509.412 444.291C508.784 444.951 508.435 445.827 508.435 446.738C508.435 447.649 508.784 448.525 509.412 449.185C510.039 449.846 510.896 450.241 511.806 450.288H551.965C552.875 450.241 553.732 449.846 554.359 449.185C554.987 448.525 555.336 447.649 555.336 446.738C555.336 445.827 554.987 444.951 554.359 444.291C553.732 443.63 552.875 443.235 551.965 443.188V443.188Z" fill="#FDDCD3"/>
<path d="M399.639 442.602H393.181C392.271 442.649 391.414 443.044 390.787 443.704C390.159 444.365 389.81 445.241 389.81 446.152C389.81 447.063 390.159 447.939 390.787 448.599C391.414 449.26 392.271 449.655 393.181 449.702H399.639C400.548 449.655 401.405 449.26 402.032 448.599C402.66 447.939 403.009 447.063 403.009 446.152C403.009 445.241 402.66 444.365 402.032 443.704C401.405 443.044 400.548 442.649 399.639 442.602V442.602Z" fill="#FDDCD3"/>
<path d="M453.435 443.188H413.285C412.375 443.235 411.518 443.63 410.891 444.29C410.263 444.951 409.914 445.827 409.914 446.738C409.914 447.649 410.263 448.525 410.891 449.185C411.518 449.846 412.375 450.241 413.285 450.288H453.435C453.917 450.313 454.399 450.24 454.851 450.073C455.304 449.906 455.718 449.648 456.068 449.316C456.418 448.984 456.696 448.584 456.887 448.141C457.077 447.698 457.175 447.22 457.175 446.738C457.175 446.256 457.077 445.778 456.887 445.335C456.696 444.892 456.418 444.492 456.068 444.16C455.718 443.828 455.304 443.57 454.851 443.403C454.399 443.236 453.917 443.163 453.435 443.188V443.188Z" fill="#FDDCD3"/>
<path d="M419.348 426.576H412.891C411.95 426.576 411.048 426.95 410.383 427.615C409.718 428.28 409.345 429.181 409.345 430.122C409.345 431.062 409.718 431.964 410.383 432.628C411.048 433.293 411.95 433.667 412.891 433.667H419.348C420.289 433.667 421.191 433.293 421.856 432.628C422.521 431.964 422.895 431.062 422.895 430.122C422.895 429.181 422.521 428.28 421.856 427.615C421.191 426.95 420.289 426.576 419.348 426.576V426.576Z" fill="#FDDCD3"/>
<path d="M493.249 426.576H486.781C485.841 426.576 484.939 426.95 484.274 427.615C483.609 428.28 483.235 429.181 483.235 430.122C483.235 431.062 483.609 431.964 484.274 432.628C484.939 433.293 485.841 433.667 486.781 433.667H493.249C494.189 433.667 495.091 433.293 495.756 432.628C496.421 431.964 496.795 431.062 496.795 430.122C496.795 429.181 496.421 428.28 495.756 427.615C495.091 426.95 494.189 426.576 493.249 426.576V426.576Z" fill="#FDDCD3"/>
<path d="M514.179 426.576H507.721C506.781 426.576 505.879 426.95 505.214 427.615C504.549 428.28 504.175 429.181 504.175 430.122C504.175 431.062 504.549 431.964 505.214 432.628C505.879 433.293 506.781 433.667 507.721 433.667H514.179C515.12 433.667 516.022 433.293 516.687 432.628C517.352 431.964 517.725 431.062 517.725 430.122C517.725 429.181 517.352 428.28 516.687 427.615C516.022 426.95 515.12 426.576 514.179 426.576Z" fill="#FDDCD3"/>
<path d="M473.145 427.172H432.985C432.075 427.219 431.218 427.614 430.591 428.275C429.964 428.935 429.614 429.811 429.614 430.722C429.614 431.633 429.964 432.509 430.591 433.17C431.218 433.83 432.075 434.225 432.985 434.272H473.145C474.055 434.225 474.912 433.83 475.539 433.17C476.166 432.509 476.516 431.633 476.516 430.722C476.516 429.811 476.166 428.935 475.539 428.275C474.912 427.614 474.055 427.219 473.145 427.172V427.172Z" fill="#FDDCD3"/>
<path d="M439.058 410.57H432.591C431.65 410.57 430.749 410.944 430.083 411.609C429.418 412.273 429.045 413.175 429.045 414.115C429.045 415.056 429.418 415.957 430.083 416.622C430.749 417.287 431.65 417.661 432.591 417.661H439.058C439.999 417.661 440.901 417.287 441.566 416.622C442.231 415.957 442.605 415.056 442.605 414.115C442.605 413.175 442.231 412.273 441.566 411.609C440.901 410.944 439.999 410.57 439.058 410.57Z" fill="#FDDCD3"/>
<path d="M512.949 410.57H506.491C505.551 410.57 504.649 410.944 503.984 411.609C503.319 412.273 502.945 413.175 502.945 414.115C502.945 415.056 503.319 415.957 503.984 416.622C504.649 417.287 505.551 417.661 506.491 417.661H512.949C513.89 417.661 514.792 417.287 515.457 416.622C516.122 415.957 516.495 415.056 516.495 414.115C516.495 413.175 516.122 412.273 515.457 411.609C514.792 410.944 513.89 410.57 512.949 410.57Z" fill="#FDDCD3"/>
<path d="M533.889 410.57H527.422C526.481 410.57 525.579 410.944 524.914 411.609C524.249 412.273 523.876 413.175 523.876 414.115C523.876 415.056 524.249 415.957 524.914 416.622C525.579 417.287 526.481 417.661 527.422 417.661H533.889C534.83 417.661 535.732 417.287 536.397 416.622C537.062 415.957 537.435 415.056 537.435 414.115C537.435 413.175 537.062 412.273 536.397 411.609C535.732 410.944 534.83 410.57 533.889 410.57Z" fill="#FDDCD3"/>
<path d="M492.845 411.204H452.695C451.785 411.252 450.928 411.646 450.301 412.307C449.674 412.967 449.324 413.844 449.324 414.754C449.324 415.665 449.674 416.541 450.301 417.202C450.928 417.862 451.785 418.257 452.695 418.304H492.845C493.755 418.257 494.612 417.862 495.239 417.202C495.866 416.541 496.216 415.665 496.216 414.754C496.216 413.844 495.866 412.967 495.239 412.307C494.612 411.646 493.755 411.252 492.845 411.204Z" fill="#FDDCD3"/>
<path d="M458.759 394.554H452.301C451.36 394.554 450.459 394.928 449.794 395.593C449.128 396.258 448.755 397.159 448.755 398.1C448.755 399.04 449.128 399.942 449.794 400.606C450.459 401.271 451.36 401.645 452.301 401.645H458.759C459.699 401.645 460.601 401.271 461.266 400.606C461.931 399.942 462.305 399.04 462.305 398.1C462.305 397.159 461.931 396.258 461.266 395.593C460.601 394.928 459.699 394.554 458.759 394.554V394.554Z" fill="#FDDCD3"/>
<path d="M532.659 394.554H526.192C525.251 394.554 524.349 394.928 523.684 395.593C523.019 396.258 522.646 397.159 522.646 398.1C522.646 399.04 523.019 399.942 523.684 400.606C524.349 401.271 525.251 401.645 526.192 401.645H532.659C533.6 401.645 534.502 401.271 535.167 400.606C535.832 399.942 536.205 399.04 536.205 398.1C536.205 397.159 535.832 396.258 535.167 395.593C534.502 394.928 533.6 394.554 532.659 394.554Z" fill="#FDDCD3"/>
<path d="M553.59 394.554H547.132C546.191 394.554 545.289 394.928 544.624 395.593C543.959 396.258 543.586 397.159 543.586 398.1C543.586 399.04 543.959 399.942 544.624 400.606C545.289 401.271 546.191 401.645 547.132 401.645H553.59C554.53 401.645 555.432 401.271 556.097 400.606C556.762 399.942 557.136 399.04 557.136 398.1C557.136 397.159 556.762 396.258 556.097 395.593C555.432 394.928 554.53 394.554 553.59 394.554V394.554Z" fill="#FDDCD3"/>
<path d="M512.555 395.14H472.395C471.486 395.188 470.629 395.582 470.001 396.243C469.374 396.904 469.024 397.78 469.024 398.69C469.024 399.601 469.374 400.477 470.001 401.138C470.629 401.798 471.486 402.193 472.395 402.24H512.555C513.465 402.193 514.322 401.798 514.949 401.138C515.576 400.477 515.926 399.601 515.926 398.69C515.926 397.78 515.576 396.904 514.949 396.243C514.322 395.582 513.465 395.188 512.555 395.14Z" fill="#FDDCD3"/>
<path d="M430.948 672.646L430.14 673.04C428.43 673.885 426.703 674.724 424.961 675.557C419.765 678.029 414.502 680.38 409.172 682.609C395.163 688.475 380.788 693.426 366.138 697.433C363.669 682.061 361.285 645.831 358.988 619.189C358.556 614.174 358.133 609.505 357.701 605.373C357.287 599.957 356.51 594.574 355.375 589.262C355.259 588.845 355.098 588.442 354.895 588.061C355.125 590.194 355.375 596.554 355.606 605.354C355.731 609.486 355.836 614.155 355.961 619.17C356.538 644.813 357.143 679.698 357.749 699.595C356.038 700.018 354.308 700.431 352.588 700.825C351.502 701.084 350.407 701.334 349.311 701.564C347.985 701.862 346.649 702.16 345.323 702.429C343.997 702.698 342.536 703.006 341.143 703.275C318.404 707.754 295.282 710.007 272.105 710H267.492H266.08L261.89 709.913C234.5 709.156 207.289 705.232 180.801 698.221L181.878 619.237L182.06 605.422L182.137 600.185C181.522 601.869 181.156 603.633 181.051 605.422C180.619 608.784 180.177 613.55 179.734 619.237C178.043 641.114 176.313 676.412 174.516 696.492C153.221 690.429 137.653 684.905 118.193 675.173L115.925 674.039C116.059 673.078 116.203 672.117 116.347 671.157C118.548 655.832 115.944 635.878 118.385 619.276C120.249 606.421 122.171 594.075 124.151 583.603C126.486 570.998 128.869 561.092 131.224 556.279C133.934 550.716 136.634 545.249 139.257 540.013L142.602 533.374C143.188 532.202 143.784 531.04 144.36 529.916C146.993 524.747 149.482 519.981 151.76 515.754C153.365 512.785 154.845 510.095 156.2 507.751C157.785 504.974 159.188 502.678 160.342 500.949C168.891 487.981 181.616 478.324 196.408 473.577L196.773 473.481L197.138 473.634L197.542 473.817L221.019 465.228L231.494 439.979L285.309 436.664L294.006 443.284L298.456 446.676L303.193 450.278L311.909 456.927L314.389 457.686L318.069 458.819L343.257 466.506L343.517 466.4L343.882 466.496C357.339 470.806 369.119 479.202 377.584 490.515C378.42 491.601 379.198 492.715 379.948 493.849C381.985 496.885 384.753 501.679 388.001 507.693C389.346 510.162 390.759 512.853 392.248 515.696C393.152 517.407 400.897 541.637 408.46 566.367C415.514 589.531 422.385 613.156 423.289 619.208C423.442 620.323 423.615 621.457 423.779 622.581C424.797 629.594 425.806 636.646 426.787 643.535C428.228 653.748 429.67 663.605 430.967 672.415C430.964 672.492 430.958 672.569 430.948 672.646Z" fill="#F1662A"/>
<path opacity="0.2" d="M373.903 583.459L363.438 543.107L354.193 577.973L373.903 583.459Z" fill="black"/>
<path d="M19.4985 582.988C20.0403 584.568 21.0685 585.936 22.4358 586.895C23.8031 587.855 25.4393 588.357 27.1096 588.33L59.7353 587.484C61.4225 587.451 63.0533 586.871 64.3825 585.831C65.7116 584.792 66.6674 583.349 67.1061 581.72L71.7189 532.327C73.3473 533.066 75.1214 533.428 76.9091 533.387C78.6969 533.345 80.4523 532.902 82.045 532.089C83.6376 531.276 85.0264 530.114 86.1081 528.691C87.1899 527.267 87.9367 525.618 88.2931 523.866C88.6495 522.114 88.6063 520.305 88.1667 518.572C87.7271 516.839 86.9024 515.227 85.7539 513.857C84.6055 512.487 83.1628 511.393 81.5332 510.657C79.9036 509.92 78.129 509.561 76.3413 509.605C75.6245 509.606 74.9097 509.68 74.2079 509.826C73.4416 509.012 72.5148 508.365 71.486 507.927C70.4572 507.489 69.3487 507.269 68.2305 507.28L18.0378 508.577C17.6243 508.595 17.2129 508.646 16.8078 508.731C15.7064 508.935 14.6619 509.374 13.745 510.017C12.8281 510.66 12.0602 511.493 11.4935 512.459C10.9192 513.424 10.5618 514.502 10.446 515.619C10.3279 516.731 10.4492 517.854 10.8016 518.915L19.4985 582.988ZM72.6703 529.003L75.9184 517.234C76.279 515.874 76.279 514.443 75.9184 513.083C76.0818 513.083 76.2163 513.006 76.3797 513.006C78.6379 512.94 80.8299 513.773 82.4735 515.323C84.1171 516.872 85.0777 519.011 85.144 521.269C85.2102 523.526 84.3767 525.718 82.8268 527.361C81.2769 529.004 79.1376 529.965 76.8794 530.031C75.4246 530.074 73.9857 529.718 72.7183 529.003H72.6703Z" fill="#2F2E41"/>
<path d="M16.7789 508.712C17.8456 514.832 29.8677 519.136 44.321 518.386C57.6115 517.772 68.4804 513.102 70.4696 507.568C69.742 507.36 68.9871 507.263 68.2305 507.28L18.0378 508.577C17.6243 508.595 17.2129 508.646 16.8078 508.731L16.7789 508.712Z" fill="#3F3D56"/>
<path d="M966.989 673.981L964.722 675.115C945.261 684.847 929.693 690.381 908.398 696.444C906.601 676.364 904.861 641.066 903.18 619.18C902.737 613.501 902.286 608.736 901.863 605.373C901.748 603.586 901.383 601.823 900.777 600.137L900.844 605.373L901.036 619.18L902.103 698.173C875.614 705.18 848.404 709.104 821.015 709.866L816.844 710H815.431C813.894 710 812.366 710 810.828 710C781.965 710.019 753.206 706.532 725.184 699.614C725.78 679.736 726.386 644.851 726.962 619.18C727.087 614.164 727.202 609.495 727.327 605.373C727.558 596.554 727.808 590.193 728.039 588.08C727.831 588.456 727.67 588.856 727.558 589.271C726.414 594.585 725.637 599.972 725.232 605.393C724.8 609.514 724.368 614.184 723.935 619.199C721.648 645.85 719.255 682.09 716.795 697.453C702.132 693.449 687.744 688.497 673.723 682.628C666.336 679.541 659.078 676.217 651.947 672.655C653.302 663.788 654.724 653.844 656.176 643.535C657.31 635.541 658.472 627.317 659.674 619.199C661.519 606.661 724.281 471.242 739.071 466.438L739.446 466.342L739.705 466.448L764.883 458.762L768.573 457.628L771.043 456.86L779.769 450.221L784.506 446.608L788.975 443.198L797.624 436.578L851.44 439.893L861.924 465.141L885.401 473.73L885.805 473.538L886.16 473.394L886.526 473.49C901.314 478.237 914.038 487.891 922.592 500.853C923.745 502.592 925.148 504.888 926.743 507.655C928.098 510.009 929.626 512.699 931.173 515.668C933.451 519.895 935.978 524.66 938.582 529.82L940.341 533.288C941.437 535.45 942.551 537.669 943.676 539.927C946.299 545.163 949.009 550.629 951.719 556.192C954.074 560.996 956.447 570.911 958.783 583.516C960.705 593.988 962.627 606.334 964.5 619.18C966.941 635.839 964.347 655.784 966.547 671.118C966.701 672.089 966.845 673.04 966.989 673.981Z" fill="#F1662A"/>
<path d="M809.098 427.537C821.49 427.545 833.606 423.878 843.914 417.001C854.221 410.123 862.257 400.344 867.004 388.9C871.752 377.456 872.998 364.862 870.585 352.71C868.172 340.558 862.208 329.395 853.449 320.632C844.689 311.869 833.526 305.9 821.373 303.48C809.219 301.06 796.621 302.298 785.172 307.037C773.722 311.777 763.936 319.804 757.05 330.105C750.165 340.406 746.49 352.516 746.49 364.905C746.487 373.128 748.105 381.27 751.25 388.868C754.395 396.465 759.006 403.369 764.819 409.185C770.633 415.001 777.536 419.615 785.133 422.764C792.731 425.913 800.874 427.535 809.098 427.537V427.537Z" fill="#FFB6B6"/>
<path opacity="0.2" d="M708.982 583.459L719.447 543.107L728.682 577.973L708.982 583.459Z" fill="black"/>
<path d="M987.459 557.134C983.711 608.736 987.593 631.448 966.922 674C948.119 683.204 928.534 690.715 908.398 696.444C906.303 697.039 904.208 697.606 902.103 698.173C875.614 705.18 848.404 709.104 821.015 709.865L816.844 710H815.431C813.894 710 812.366 710 810.828 710C781.965 710.019 753.206 706.532 725.184 699.614C722.369 698.922 719.582 698.192 716.795 697.433C702.132 693.429 687.744 688.477 673.723 682.609C666.336 679.522 659.078 676.197 651.947 672.636C650.333 671.829 648.718 671.012 647.142 670.177C638.983 655.813 634.332 638.337 634.236 617.335C639.858 581.172 974.966 525.938 987.459 557.134Z" fill="#2F2E41"/>
<path opacity="0.2" d="M987.449 565.973C987.632 562.783 987.853 559.478 988.102 556.039C975.61 524.843 640.502 580.057 634.851 616.249C634.851 619.573 635.015 622.792 635.245 625.934C648.939 590.232 967.287 537.736 987.449 565.973Z" fill="black"/>
<path d="M625.876 559.565L653.379 545.807L630.459 483.905L624.415 452.68C623.635 448.624 621.802 444.843 619.102 441.717C616.401 438.59 612.926 436.228 609.025 434.866C605.124 433.504 600.934 433.19 596.873 433.956C592.813 434.722 589.025 436.54 585.889 439.23C581.247 443.219 578.334 448.852 577.763 454.944C577.191 461.036 579.005 467.113 582.823 471.895L605.243 499.93L625.876 559.565Z" fill="#FFB6B6"/>
<path d="M638.926 478.323L588.262 494.377L644.538 639.932C646.762 646.926 650.958 653.13 656.623 657.798C662.288 662.466 669.18 665.401 676.471 666.249C683.763 667.097 691.145 665.823 697.73 662.579C704.315 659.336 709.824 654.261 713.595 647.964L787.399 521.413C792.631 512.692 794.245 502.273 791.899 492.379C789.552 482.485 783.43 473.9 774.839 468.456V468.456C770.221 465.541 765.041 463.629 759.636 462.846C754.231 462.062 748.722 462.423 743.466 463.907C738.21 465.39 733.324 467.961 729.127 471.455C724.929 474.948 721.514 479.285 719.101 484.183L674.06 580.211L638.926 478.323Z" fill="#F1662A"/>
<path d="M258.027 423.195C271.662 423.204 284.994 419.17 296.336 411.604C307.678 404.037 316.521 393.277 321.746 380.685C326.97 368.094 328.342 354.236 325.688 340.864C323.034 327.493 316.472 315.209 306.834 305.566C297.196 295.923 284.913 289.355 271.54 286.692C258.167 284.029 244.305 285.391 231.707 290.606C219.108 295.82 208.34 304.653 200.763 315.987C193.187 327.321 189.143 340.647 189.143 354.279C189.138 372.55 196.392 390.075 209.31 402.998C222.228 415.922 239.751 423.187 258.027 423.195V423.195Z" fill="#A0616A"/>
<path d="M189.969 306.789C195.572 299.238 203.615 293.867 209.775 286.767C213.158 282.866 215.964 278.447 219.76 274.959C226.814 268.474 236.683 265.813 246.264 265.486C256.763 265.216 267.177 267.425 276.663 271.932C286.148 276.439 294.438 283.118 300.858 291.427L315.878 282.617C317.858 287.824 319.834 293.031 321.808 298.238C323.433 296.833 325.503 296.048 327.651 296.02C329.8 295.993 331.889 296.726 333.549 298.089C335.21 299.453 336.334 301.359 336.725 303.471C337.116 305.584 336.747 307.766 335.684 309.633C336.876 305.953 342.334 305.166 345.342 307.596C348.35 310.027 349.186 314.322 348.667 318.165C348.053 322.375 346.193 326.306 343.326 329.451C340.459 332.596 336.717 334.812 332.58 335.814C326.046 337.274 318.444 335.737 313.216 339.916C309.017 343.269 307.758 349.37 303.482 352.608C298.206 356.604 290.758 354.76 284.204 355.644C272.739 357.2 263.658 368.931 265.042 380.46C264.004 376.838 262.908 373.101 260.564 370.161C258.219 367.221 254.24 365.222 250.627 366.318C244.659 368.105 243.689 376.242 245.13 382.305C248.974 398.388 263.504 424.367 263.504 424.367C244.63 431.822 222.182 424.78 207.574 410.638C192.967 396.495 185.472 376.444 182.118 356.441C179.312 339.426 179.706 320.615 189.969 306.789Z" fill="#2F2E41"/>
<path d="M450.706 647.214L434.888 620.822L487.464 580.922L509.326 557.864C512.166 554.863 515.744 552.66 519.702 551.476C523.661 550.291 527.861 550.167 531.883 551.116C535.904 552.064 539.606 554.052 542.618 556.88C545.63 559.709 547.846 563.278 549.044 567.231V567.231C550.824 573.088 550.259 579.406 547.47 584.855C544.68 590.304 539.884 594.457 534.091 596.438L500.12 608.035L450.706 647.214Z" fill="#A0616A"/>
<path d="M462.17 646.34L437.55 666.862L430.909 672.396L430.14 673.04C428.43 673.885 426.703 674.724 424.961 675.557C419.765 678.029 414.502 680.38 409.172 682.609C395.163 688.475 380.788 693.427 366.138 697.433C363.351 698.202 360.555 698.922 357.749 699.614C356.038 700.027 354.308 700.45 352.588 700.844C351.502 701.103 350.407 701.353 349.311 701.584C347.985 701.882 346.649 702.179 345.323 702.448C343.997 702.717 342.536 703.025 341.143 703.294C337.398 699.73 334.416 695.441 332.379 690.69C330.342 685.938 329.293 680.822 329.294 675.653C329.294 675.317 329.294 674.971 329.294 674.625L333.243 573.188L334.993 528.234C335.261 518.072 339.493 508.417 346.785 501.332C354.076 494.246 363.85 490.292 374.018 490.313C375.204 490.313 376.376 490.371 377.536 490.486C378.372 491.572 379.15 492.686 379.9 493.82C381.937 496.856 384.705 501.65 387.953 507.664C389.298 510.134 390.711 512.824 392.2 515.668C393.104 517.378 400.849 541.608 408.412 566.338L405.087 592.182L399.072 638.75L423.721 622.571L441.096 611.148L443.152 614.587L448.495 623.532L458.845 640.825L462.17 646.34Z" fill="#F1662A"/>
<path d="M448.668 617.354C448.668 619.439 448.611 621.505 448.495 623.532C448.25 629.139 447.608 634.722 446.573 640.239C444.876 649.502 441.843 658.47 437.569 666.862C437.002 667.986 436.396 669.091 435.781 670.177C434.196 671.022 432.581 671.829 430.976 672.646L430.169 673.04C423.308 676.454 416.318 679.656 409.2 682.647C395.181 688.501 380.797 693.44 366.138 697.433C363.351 698.202 360.555 698.922 357.749 699.614C352.252 700.972 346.72 702.192 341.152 703.275C318.413 707.755 295.291 710.007 272.115 710H267.502H266.089L261.899 709.913C234.509 709.156 207.299 705.232 180.811 698.221C178.703 697.664 176.608 697.087 174.526 696.492C154.386 690.765 134.797 683.254 115.992 674.048C95.2921 631.458 99.1745 608.736 95.4266 557.143C103.115 537.928 233.127 551.494 333.234 573.188C360.401 579.077 385.358 585.572 405.078 592.182C425.441 598.994 440.212 605.911 445.997 612.425C447.354 613.769 448.283 615.484 448.668 617.354Z" fill="#2F2E41"/>
<path opacity="0.2" d="M95.4362 565.973C95.244 562.783 95.0326 559.478 94.7827 556.039C107.276 524.843 442.374 580.057 448.024 616.249C448.024 619.573 447.871 622.792 447.63 625.934C433.936 590.232 115.588 537.736 95.4362 565.973Z" fill="black"/>
<path d="M42.9372 544.413V547.632L38.6704 550.802L43.0717 554.261V557.451L41.1497 558.988L32.6738 552.436V549.208L40.9767 542.828L42.9372 544.413Z" fill="#F16629"/>
<path d="M40.9767 542.828L32.6738 549.227L40.9479 555.808L43.0429 554.29L36.7388 549.332L42.9083 544.413L40.9767 542.828Z" fill="#E34E26"/>
<path d="M44.3114 557.451V554.204L48.559 551.043L44.2057 547.632V544.433L46.1277 542.828L54.5556 549.4V552.618L46.2622 558.988L44.3114 557.451Z" fill="#F16629"/>
<path d="M753.005 332.557C753.005 332.557 765.364 339.147 778.539 355C778.539 355 780.807 327.004 767.218 313.409C767.218 313.409 756.503 322.882 753.005 332.557Z" fill="#3F3D56"/>
<path d="M46.2526 559.017L54.546 552.647L46.2526 546.056L44.2057 547.632L50.5194 552.589L44.3594 557.499L46.2526 559.017Z" fill="#E34E26"/>
<path d="M767.218 313.409L766.805 311.353C766.805 311.353 792.54 281.502 837.851 298.796C883.162 316.089 884.181 362.206 881.711 386.907C879.241 411.608 874.302 436.319 876.147 441.266C877.992 446.214 892.83 451.758 897.154 475.854C901.479 499.95 870.381 494.377 835.785 503.024C801.189 511.671 771.841 468.85 763.307 463.085C754.773 457.321 759.386 443.937 766.19 442.083C772.994 440.229 772.994 429.036 774.426 425.616C781.835 407.909 783.892 389.789 778.539 355C772.686 316.925 767.218 313.409 767.218 313.409Z" fill="#363649"/>
<path d="M897.154 475.854C892.83 451.758 878.002 446.205 876.147 441.266C875.729 439.519 875.608 437.713 875.791 435.925C874.872 438.424 874.435 441.074 874.504 443.736C875.119 451.758 876.099 455.639 874.705 468.235C871.621 496.231 857.408 492.321 857.408 492.321C870.179 487.998 869.353 476.055 869.353 476.055C868.123 491.293 842.993 492.11 842.993 492.11C862.357 486.143 866.056 469.465 866.056 469.465C866.056 469.465 860.502 482.233 844.434 488.411C828.366 494.588 814.374 458.147 807.167 443.736C799.959 429.324 779.163 425.001 780.605 416.556C781.239 412.809 781.105 407.121 780.768 401.943C779.779 410.093 777.644 418.063 774.426 425.616C772.994 429.036 772.984 440.229 766.19 442.083C763.518 442.813 761.202 445.302 759.867 448.414L767.891 467.168C778.183 477.41 809.214 510.258 839.495 511.882C870.381 513.525 901.479 499.94 897.154 475.854Z" fill="#2C2C3D"/>
<path d="M776.367 427.057C776.367 427.057 768.794 427.393 765.613 436.098C765.613 436.098 757.243 435.521 757.243 448.078C757.243 448.078 749.325 450.269 750.968 460.645C752.611 471.021 766.257 459.281 771.725 496.962C777.193 534.643 774.724 593.354 774.724 593.354C774.724 593.354 782.412 591.164 786.467 593.076C790.522 594.988 794.395 599.09 800.67 597.995C806.946 596.9 808.599 591.164 815.7 591.442C819.081 591.505 822.454 591.778 825.8 592.259C825.8 592.259 818.699 472.116 808.32 452.728C797.941 433.34 776.367 427.057 776.367 427.057Z" fill="#363649"/>
<path d="M876.147 441.266C876.147 441.266 883.374 442.391 887.275 452.382C887.909 454.006 894.069 454.852 895.299 466.275C895.299 466.275 901.171 470.906 901.171 480.177C901.171 480.177 916.307 534.527 919.43 564.791C919.43 564.791 916.73 568.711 910.166 566.021C903.602 563.331 900.902 569.115 896.578 572.199C892.253 575.283 880.51 575.907 880.51 575.907C880.51 575.907 882.192 449.289 876.147 441.266Z" fill="#363649"/>
<path d="M757.262 448.078C762.116 451.072 766.331 454.993 769.667 459.617C773.003 464.242 775.394 469.478 776.703 475.027C776.703 475.027 775.3 457.167 757.801 443.159C757.303 444.748 757.12 446.419 757.262 448.078Z" fill="#2C2C3D"/>
<path d="M765.585 436.347C773.736 440.222 780.128 447.025 783.488 455.399C783.488 455.399 781.835 443.467 768.016 431.784C767.25 432.269 766.624 432.945 766.198 433.745C765.771 434.545 765.56 435.441 765.585 436.347V436.347Z" fill="#2C2C3D"/>
<path d="M869.564 442.294C869.564 442.294 861.117 472.76 844.645 467.409C828.174 462.057 820.967 444.35 820.967 444.35C820.967 444.35 832.585 473.231 845.876 471.53C859.166 469.83 871.822 450.941 869.564 442.294Z" fill="#2C2C3D"/>
<path d="M885.42 448.674C886.265 449.784 886.894 451.041 887.275 452.382C888.365 459.675 888.914 467.039 888.918 474.413C888.918 474.413 887.275 452.382 885.42 448.674Z" fill="#2C2C3D"/>
<path d="M895.299 466.275C896.224 466.999 897.017 467.876 897.644 468.869C897.644 468.869 898.884 481.676 898.682 491.87C898.682 491.908 897.154 469.984 895.299 466.275Z" fill="#2C2C3D"/>
<path d="M900.844 568.336C902.041 556.525 902.616 544.66 902.565 532.788L909.359 565.675C909.359 565.675 906.264 564.628 904.256 565.867C903.064 566.611 901.924 567.436 900.844 568.336V568.336Z" fill="#2C2C3D"/>
<path d="M891.186 496.846C892.52 518.238 892.52 539.691 891.186 561.083C891.186 561.083 896.952 545.028 891.186 496.846Z" fill="#2C2C3D"/>
<path d="M779.365 592.461C779.365 592.461 782.056 546.873 780.615 530.819C780.615 530.819 786.15 572.631 785.026 592.595C783.174 592.118 781.237 592.072 779.365 592.461V592.461Z" fill="#2C2C3D"/>
</g>
<defs>
<clipPath id="clip0_184_2">
<rect width="1084" height="710" fill="white"/>
</clipPath>
</defs>
</svg>
