<svg width="1061" height="695" viewBox="0 0 1061 695" fill="none" xmlns="http://www.w3.org/2000/svg">
<g clip-path="url(#clip0_2_747)">
<path d="M524.91 118.065C542.682 118.065 557.088 103.658 557.088 85.8865C557.088 68.1149 542.682 53.7081 524.91 53.7081C507.138 53.7081 492.731 68.1149 492.731 85.8865C492.731 103.658 507.138 118.065 524.91 118.065Z" fill="#F1662A"/>
<path d="M596.927 70.6495C596.02 67.6739 594.262 65.0286 591.87 63.0393C589.478 61.0501 586.557 59.8037 583.466 59.4536C583.394 59.4476 583.321 59.4476 583.249 59.4536C583.162 59.4265 583.074 59.4064 582.984 59.3934C572.21 57.9954 560.231 61.3939 552.168 68.7936C549.175 71.4972 546.782 74.7979 545.142 78.483C543.648 76.4415 541.678 74.7951 539.404 73.6864C537.129 72.5776 534.619 72.0399 532.09 72.1198C528.829 72.3354 525.713 73.5516 523.168 75.6026C520.624 77.6536 518.773 80.4396 517.87 83.5807C517.77 83.9645 517.798 84.3701 517.947 84.7371C518.097 85.1041 518.362 85.4129 518.701 85.6175C519.67 86.4465 520.823 87.033 522.063 87.3288C524.727 87.8952 527.414 88.4134 530.102 88.8834C535.356 89.7993 540.639 90.5425 545.95 91.1129C549.457 91.4865 552.972 91.7838 556.495 92.0048C563.774 92.4627 571.089 92.5712 578.38 92.3422C581.996 92.2217 585.467 92.1012 588.769 90.5104C591.175 89.327 593.231 87.5367 594.734 85.3162C596.149 83.1802 597.079 80.7601 597.458 78.2262C597.837 75.6922 597.656 73.1059 596.927 70.6495Z" fill="#E6E6E6"/>
<path d="M530.729 117.53C530.668 116.182 530.441 114.846 530.054 113.553C529.142 110.578 527.381 107.933 524.988 105.944C522.594 103.955 519.672 102.709 516.58 102.357C516.512 102.351 516.443 102.351 516.375 102.357C516.284 102.331 516.192 102.311 516.098 102.297C510.135 101.566 504.084 102.188 498.394 104.117C489.645 107.045 481.968 112.95 478.268 121.386C476.772 119.344 474.8 117.697 472.524 116.588C470.248 115.479 467.735 114.942 465.204 115.023C461.943 115.239 458.827 116.455 456.283 118.506C453.738 120.557 451.887 123.343 450.984 126.484C450.89 126.868 450.92 127.272 451.069 127.637C451.219 128.003 451.48 128.312 451.815 128.521C452.786 129.348 453.938 129.934 455.178 130.232C457.853 130.799 460.528 131.317 463.228 131.787C468.482 132.703 473.761 133.446 479.064 134.016C489.837 135.173 500.677 135.584 511.506 135.246C515.11 135.125 518.593 135.005 521.895 133.414C524.297 132.23 526.35 130.44 527.848 128.22C529.961 125.071 530.973 121.313 530.729 117.53Z" fill="#E6E6E6"/>
<path d="M949.819 507.985C950.282 529.926 947.254 551.8 940.85 572.79C940.626 573.552 940.356 574.315 940.087 575.077H808.057C809.944 565.783 812.941 556.749 816.982 548.169C827.969 524.848 845.908 504.891 863.623 485.069C888.02 457.756 911.834 430.669 915.601 395.15C925.271 409.892 932.99 425.826 938.563 442.553C931.74 445.081 925.478 448.92 920.131 453.855C918.651 455.245 917.081 457.263 917.843 459.192C918.561 460.806 920.534 461.344 922.283 461.703C926.499 462.51 930.714 463.317 934.93 464.08C938.249 464.752 941.612 465.381 944.976 466.008C947.932 479.813 949.554 493.87 949.819 507.985Z" fill="#F2F2F2"/>
<path d="M1060.73 493.455C1039.56 506.326 1026.1 526.238 1015.12 548.527C1005.56 550.707 996.729 555.344 989.509 561.982C987.984 563.372 986.415 565.39 987.222 567.318C987.895 568.933 989.913 569.471 991.662 569.83C995.832 570.637 1000.09 571.445 1004.26 572.207C1003.86 573.149 1003.46 574.135 1003.05 575.077H863.13C869.481 566.511 876.515 558.472 884.163 551.039C885.822 549.379 887.526 547.81 889.276 546.195C907.112 530.076 927.593 517.15 949.819 507.985C984.834 493.348 1023.12 488.331 1060.73 493.455Z" fill="#F2F2F2"/>
<path d="M886.45 575.077H761.864C761.184 565.1 761.244 555.087 762.044 545.119C767.022 483.544 800.523 424.884 851.066 389.364C844.608 412.371 847.926 435.243 854.653 458.205C853.712 458.519 852.77 458.788 851.918 459.147C845.095 461.674 838.833 465.514 833.486 470.448C832.006 471.839 830.436 473.857 831.198 475.785C831.871 477.4 833.889 477.938 835.638 478.297C839.854 479.104 844.069 479.911 848.24 480.674C851.604 481.346 854.967 481.974 858.331 482.647C859.9 482.916 861.47 483.23 863.04 483.544C863.264 484.082 863.399 484.575 863.623 485.069C871.516 506.819 880.126 528.75 884.163 551.039C885.162 556.632 885.851 562.277 886.226 567.946C886.36 570.323 886.45 572.7 886.45 575.077Z" fill="#F2F2F2"/>
<path d="M207.446 507.985C207.908 529.926 204.881 551.8 198.476 572.79C198.252 573.552 197.983 574.315 197.714 575.077H65.6833C67.5706 565.783 70.567 556.749 74.6081 548.169C85.5955 524.848 103.534 504.891 121.249 485.069C145.646 457.756 169.46 430.669 173.227 395.15C182.898 409.892 190.616 425.826 196.189 442.553C189.366 445.081 183.104 448.92 177.757 453.855C176.277 455.245 174.707 457.263 175.47 459.192C176.187 460.806 178.16 461.344 179.909 461.703C184.125 462.51 188.341 463.317 192.556 464.08C195.875 464.752 199.239 465.381 202.602 466.008C205.559 479.813 207.181 493.87 207.446 507.985Z" fill="#F2F2F2"/>
<path d="M318.353 493.455C297.185 506.326 283.731 526.238 272.743 548.527C263.182 550.707 254.355 555.344 247.136 561.982C245.611 563.372 244.041 565.39 244.848 567.318C245.521 568.933 247.539 569.471 249.288 569.83C253.459 570.637 257.719 571.445 261.89 572.207C261.487 573.149 261.083 574.135 260.68 575.077H120.756C127.108 566.511 134.142 558.472 141.789 551.039C143.449 549.379 145.153 547.81 146.902 546.195C164.739 530.076 185.22 517.15 207.446 507.985C242.46 493.348 280.75 488.331 318.353 493.455Z" fill="#F2F2F2"/>
<path d="M144.077 575.077H19.4906C18.8103 565.1 18.8703 555.087 19.6702 545.119C24.6482 483.544 58.149 424.884 108.692 389.364C102.234 412.371 105.553 435.243 112.28 458.205C111.338 458.519 110.396 458.788 109.544 459.147C102.721 461.674 96.4592 465.514 91.1119 470.448C89.6319 471.839 88.0623 473.857 88.8247 475.785C89.4972 477.4 91.5154 477.938 93.2644 478.297C97.48 479.104 101.696 479.911 105.867 480.674C109.23 481.346 112.594 481.974 115.957 482.647C117.527 482.916 119.097 483.23 120.666 483.544C120.89 484.082 121.025 484.575 121.249 485.069C129.142 506.819 137.753 528.75 141.789 551.039C142.788 556.632 143.477 562.277 143.852 567.946C143.987 570.323 144.077 572.7 144.077 575.077Z" fill="#F2F2F2"/>
<path d="M607.891 522.771L719.21 532.653L720.404 532.761V57.763C720.006 57.4858 719.608 57.2086 719.21 56.9314C696.01 40.7037 670.914 27.3723 644.479 17.2337L638.791 95.6891L638.273 102.872L632.644 180.676L630.909 204.611L608.095 519.999L607.891 522.771Z" fill="#E6E6E6"/>
<path d="M332.598 48.9172C331.802 49.4233 331.007 49.9295 330.212 50.4598V532.762L332.598 532.545L442.713 522.771L442.508 519.999L419.694 204.611L417.959 180.676L412.331 102.872L411.812 95.6891L405.847 13.4134C380.121 22.3307 355.535 34.2474 332.598 48.9172Z" fill="#E6E6E6"/>
<path d="M330.212 50.4597C328.609 51.4961 327.006 52.5567 325.427 53.6293V539.342C325.427 551.477 332.622 561.649 342.239 564.24C343.811 564.666 345.432 564.88 347.06 564.879H704.749C706.373 564.881 707.99 564.666 709.557 564.24C713.132 563.248 716.372 561.308 718.933 558.624C723.818 553.403 726.488 546.491 726.381 539.342V62.0774C724.405 60.6191 722.416 59.173 720.404 57.7629C720.006 57.4857 719.608 57.2086 719.211 56.9314V539.342C719.213 540.905 719.027 542.463 718.656 543.981C716.957 551.152 711.353 556.407 704.749 556.407H347.06C339.082 556.407 332.598 548.754 332.598 539.342V48.9171C331.802 49.4233 331.007 49.9294 330.212 50.4597Z" fill="#E6E6E6"/>
<path d="M722.796 95.6939H329.01V102.875H722.796V95.6939Z" fill="#E6E6E6"/>
<path d="M602.19 4.08548C599.804 3.49495 597.418 2.94058 595.008 2.42236V197.428H602.19V4.08548Z" fill="#E6E6E6"/>
<path d="M456.801 0C454.403 0.445906 452.004 0.903868 449.618 1.39798V197.428H456.801V0Z" fill="#E6E6E6"/>
<path d="M251.804 552.309C251.803 556.43 252.592 560.513 254.13 564.336C254.721 565.819 255.426 567.253 256.239 568.627C257.29 570.418 258.508 572.105 259.879 573.664C262.907 577.114 266.636 579.879 270.817 581.772C274.999 583.665 279.536 584.644 284.127 584.643H755.715C764.287 584.643 772.508 581.238 778.57 575.176C784.631 569.115 788.037 560.893 788.037 552.321C788.037 543.749 784.631 535.527 778.57 529.466C772.508 523.404 764.287 519.999 755.715 519.999H284.127C275.559 520.007 267.344 523.414 261.285 529.471C255.226 535.528 251.816 543.741 251.804 552.309Z" fill="#E6E6E6"/>
<path d="M329.01 204.613L720.402 204.613V180.675L329.01 180.675V204.613Z" fill="#E6E6E6"/>
<path d="M541.463 186.66H507.949C507.949 183.168 509.336 179.819 511.805 177.35C514.274 174.881 517.623 173.494 521.115 173.494H528.296C530.025 173.494 531.737 173.834 533.335 174.496C534.932 175.157 536.384 176.127 537.606 177.35C538.829 178.572 539.799 180.024 540.46 181.621C541.122 183.219 541.462 184.931 541.462 186.66H541.463Z" fill="#E6E6E6"/>
<path d="M7.62939e-06 570.772C10.4695 583.177 21.7934 594.835 33.8889 605.661H1005.94C1018.04 594.835 1029.36 583.177 1039.83 570.772H7.62939e-06Z" fill="#3F3D56"/>
<path d="M478.072 454.101V577.702H564.662V454.101C564.663 453.212 564.38 452.346 563.853 451.63C563.325 450.915 562.583 450.387 561.733 450.124C561.333 449.992 560.914 449.927 560.492 449.931H482.254C481.705 449.93 481.162 450.037 480.655 450.246C480.148 450.455 479.687 450.762 479.298 451.15C478.91 451.537 478.602 451.997 478.391 452.503C478.181 453.01 478.072 453.553 478.072 454.101ZM511.864 496.571C511.887 494.134 512.871 491.805 514.602 490.091C516.333 488.376 518.671 487.414 521.108 487.414C523.544 487.414 525.882 488.376 527.613 490.091C529.344 491.805 530.328 494.134 530.351 496.571V510.912C530.339 513.355 529.359 515.695 527.627 517.418C525.895 519.141 523.551 520.109 521.108 520.109C518.664 520.109 516.32 519.141 514.588 517.418C512.856 515.695 511.877 513.355 511.864 510.912V496.571Z" fill="#2F2E41"/>
<path d="M477.807 573.749V585.668C477.809 586.285 478.054 586.877 478.489 587.315C478.925 587.752 479.515 588.001 480.133 588.006H562.601C563.219 588.003 563.811 587.755 564.247 587.317C564.683 586.879 564.927 586.286 564.927 585.668V573.749H477.807Z" fill="#3F3D56"/>
<path d="M341.853 267.881V493.558C341.856 496.434 342.999 499.191 345.033 501.225C347.066 503.259 349.824 504.402 352.7 504.404H687.129C690.005 504.402 692.763 503.259 694.796 501.225C696.83 499.191 697.973 496.434 697.976 493.558V267.881C697.969 265.008 696.824 262.254 694.791 260.223C692.758 258.193 690.003 257.051 687.129 257.047H352.7C349.826 257.051 347.071 258.193 345.039 260.223C343.006 262.254 341.86 265.008 341.853 267.881Z" fill="#3F3D56"/>
<path d="M349.699 270.689V490.774C349.702 492.311 350.313 493.783 351.4 494.87C352.486 495.956 353.959 496.568 355.496 496.571H684.345C685.882 496.568 687.355 495.956 688.442 494.87C689.528 493.783 690.14 492.311 690.142 490.774V270.689C690.142 269.151 689.532 267.675 688.445 266.586C687.358 265.497 685.884 264.884 684.345 264.88H355.496C353.957 264.884 352.483 265.497 351.396 266.586C350.309 267.675 349.699 269.151 349.699 270.689Z" fill="#F1662A"/>
<path d="M416.754 590.814C417.088 591.233 417.514 591.572 417.998 591.803C418.482 592.035 419.013 592.154 419.55 592.151H615.194C615.729 592.151 616.257 592.031 616.74 591.8C617.223 591.57 617.648 591.235 617.986 590.819C618.323 590.404 618.563 589.918 618.689 589.398C618.814 588.878 618.823 588.336 618.713 587.813L615.676 573.387C615.55 572.799 615.279 572.251 614.888 571.795C614.496 571.338 613.997 570.986 613.434 570.772C613.028 570.612 612.594 570.531 612.157 570.531H422.575C422.137 570.531 421.704 570.612 421.297 570.772C420.735 570.986 420.235 571.338 419.844 571.795C419.452 572.251 419.181 572.799 419.056 573.387L416.019 587.813C415.91 588.336 415.92 588.877 416.047 589.396C416.175 589.915 416.416 590.399 416.754 590.814Z" fill="#2F2E41"/>
<path d="M605.33 576.744H610.179C610.504 576.744 610.767 576.481 610.767 576.156V573.717C610.767 573.392 610.504 573.129 610.179 573.129H605.33C605.005 573.129 604.742 573.392 604.742 573.717V576.156C604.742 576.481 605.005 576.744 605.33 576.744Z" fill="#3F3D56"/>
<path d="M593.278 576.744H598.127C598.452 576.744 598.716 576.481 598.716 576.156V573.717C598.716 573.392 598.452 573.129 598.127 573.129H593.278C592.953 573.129 592.69 573.392 592.69 573.717V576.156C592.69 576.481 592.953 576.744 593.278 576.744Z" fill="#3F3D56"/>
<path d="M581.227 576.744H586.076C586.401 576.744 586.664 576.481 586.664 576.156V573.717C586.664 573.392 586.401 573.129 586.076 573.129H581.227C580.902 573.129 580.639 573.392 580.639 573.717V576.156C580.639 576.481 580.902 576.744 581.227 576.744Z" fill="#3F3D56"/>
<path d="M569.175 576.744H574.024C574.349 576.744 574.613 576.481 574.613 576.156V573.717C574.613 573.392 574.349 573.129 574.024 573.129H569.175C568.85 573.129 568.587 573.392 568.587 573.717V576.156C568.587 576.481 568.85 576.744 569.175 576.744Z" fill="#3F3D56"/>
<path d="M557.124 576.744H561.973C562.298 576.744 562.561 576.481 562.561 576.156V573.717C562.561 573.392 562.298 573.129 561.973 573.129H557.124C556.799 573.129 556.536 573.392 556.536 573.717V576.156C556.536 576.481 556.799 576.744 557.124 576.744Z" fill="#3F3D56"/>
<path d="M545.072 576.744H549.921C550.246 576.744 550.51 576.481 550.51 576.156V573.717C550.51 573.392 550.246 573.129 549.921 573.129H545.072C544.747 573.129 544.484 573.392 544.484 573.717V576.156C544.484 576.481 544.747 576.744 545.072 576.744Z" fill="#3F3D56"/>
<path d="M533.021 576.744H537.87C538.195 576.744 538.458 576.481 538.458 576.156V573.717C538.458 573.392 538.195 573.129 537.87 573.129H533.021C532.696 573.129 532.432 573.392 532.432 573.717V576.156C532.432 576.481 532.696 576.744 533.021 576.744Z" fill="#3F3D56"/>
<path d="M520.969 576.744H525.818C526.143 576.744 526.407 576.481 526.407 576.156V573.717C526.407 573.392 526.143 573.129 525.818 573.129H520.969C520.644 573.129 520.381 573.392 520.381 573.717V576.156C520.381 576.481 520.644 576.744 520.969 576.744Z" fill="#3F3D56"/>
<path d="M508.918 576.744H513.767C514.092 576.744 514.355 576.481 514.355 576.156V573.717C514.355 573.392 514.092 573.129 513.767 573.129H508.918C508.593 573.129 508.329 573.392 508.329 573.717V576.156C508.329 576.481 508.593 576.744 508.918 576.744Z" fill="#3F3D56"/>
<path d="M496.866 576.744H501.715C502.04 576.744 502.304 576.481 502.304 576.156V573.717C502.304 573.392 502.04 573.129 501.715 573.129H496.866C496.541 573.129 496.278 573.392 496.278 573.717V576.156C496.278 576.481 496.541 576.744 496.866 576.744Z" fill="#3F3D56"/>
<path d="M484.815 576.744H489.664C489.989 576.744 490.252 576.481 490.252 576.156V573.717C490.252 573.392 489.989 573.129 489.664 573.129H484.815C484.49 573.129 484.226 573.392 484.226 573.717V576.156C484.226 576.481 484.49 576.744 484.815 576.744Z" fill="#3F3D56"/>
<path d="M472.763 576.744H477.612C477.937 576.744 478.201 576.481 478.201 576.156V573.717C478.201 573.392 477.937 573.129 477.612 573.129H472.763C472.438 573.129 472.175 573.392 472.175 573.717V576.156C472.175 576.481 472.438 576.744 472.763 576.744Z" fill="#3F3D56"/>
<path d="M460.712 576.744H465.561C465.886 576.744 466.149 576.481 466.149 576.156V573.717C466.149 573.392 465.886 573.129 465.561 573.129H460.712C460.387 573.129 460.123 573.392 460.123 573.717V576.156C460.123 576.481 460.387 576.744 460.712 576.744Z" fill="#3F3D56"/>
<path d="M448.66 576.744H453.509C453.834 576.744 454.098 576.481 454.098 576.156V573.717C454.098 573.392 453.834 573.129 453.509 573.129H448.66C448.335 573.129 448.072 573.392 448.072 573.717V576.156C448.072 576.481 448.335 576.744 448.66 576.744Z" fill="#3F3D56"/>
<path d="M436.609 576.744H441.458C441.783 576.744 442.046 576.481 442.046 576.156V573.717C442.046 573.392 441.783 573.129 441.458 573.129H436.609C436.284 573.129 436.02 573.392 436.02 573.717V576.156C436.02 576.481 436.284 576.744 436.609 576.744Z" fill="#3F3D56"/>
<path d="M424.557 576.744H429.406C429.731 576.744 429.995 576.481 429.995 576.156V573.717C429.995 573.392 429.731 573.129 429.406 573.129H424.557C424.232 573.129 423.969 573.392 423.969 573.717V576.156C423.969 576.481 424.232 576.744 424.557 576.744Z" fill="#3F3D56"/>
<path d="M605.472 582.77H610.321C610.646 582.77 610.91 582.507 610.91 582.182V579.743C610.91 579.418 610.646 579.155 610.321 579.155H605.472C605.147 579.155 604.884 579.418 604.884 579.743V582.182C604.884 582.507 605.147 582.77 605.472 582.77Z" fill="#3F3D56"/>
<path d="M593.421 582.77H598.27C598.595 582.77 598.858 582.507 598.858 582.182V579.743C598.858 579.418 598.595 579.155 598.27 579.155H593.421C593.096 579.155 592.833 579.418 592.833 579.743V582.182C592.833 582.507 593.096 582.77 593.421 582.77Z" fill="#3F3D56"/>
<path d="M581.369 582.77H586.218C586.543 582.77 586.807 582.507 586.807 582.182V579.743C586.807 579.418 586.543 579.155 586.218 579.155H581.369C581.044 579.155 580.781 579.418 580.781 579.743V582.182C580.781 582.507 581.044 582.77 581.369 582.77Z" fill="#3F3D56"/>
<path d="M569.318 582.77H574.167C574.492 582.77 574.755 582.507 574.755 582.182V579.743C574.755 579.418 574.492 579.155 574.167 579.155H569.318C568.993 579.155 568.729 579.418 568.729 579.743V582.182C568.729 582.507 568.993 582.77 569.318 582.77Z" fill="#3F3D56"/>
<path d="M557.266 582.77H562.115C562.44 582.77 562.704 582.507 562.704 582.182V579.743C562.704 579.418 562.44 579.155 562.115 579.155H557.266C556.941 579.155 556.678 579.418 556.678 579.743V582.182C556.678 582.507 556.941 582.77 557.266 582.77Z" fill="#3F3D56"/>
<path d="M545.215 582.77H550.064C550.389 582.77 550.652 582.507 550.652 582.182V579.743C550.652 579.418 550.389 579.155 550.064 579.155H545.215C544.89 579.155 544.626 579.418 544.626 579.743V582.182C544.626 582.507 544.89 582.77 545.215 582.77Z" fill="#3F3D56"/>
<path d="M533.163 582.77H538.012C538.337 582.77 538.601 582.507 538.601 582.182V579.743C538.601 579.418 538.337 579.155 538.012 579.155H533.163C532.838 579.155 532.575 579.418 532.575 579.743V582.182C532.575 582.507 532.838 582.77 533.163 582.77Z" fill="#3F3D56"/>
<path d="M521.112 582.77H525.961C526.286 582.77 526.549 582.507 526.549 582.182V579.743C526.549 579.418 526.286 579.155 525.961 579.155H521.112C520.787 579.155 520.523 579.418 520.523 579.743V582.182C520.523 582.507 520.787 582.77 521.112 582.77Z" fill="#3F3D56"/>
<path d="M509.06 582.77H513.909C514.234 582.77 514.498 582.507 514.498 582.182V579.743C514.498 579.418 514.234 579.155 513.909 579.155H509.06C508.735 579.155 508.472 579.418 508.472 579.743V582.182C508.472 582.507 508.735 582.77 509.06 582.77Z" fill="#3F3D56"/>
<path d="M497.009 582.77H501.858C502.183 582.77 502.446 582.507 502.446 582.182V579.743C502.446 579.418 502.183 579.155 501.858 579.155H497.009C496.684 579.155 496.42 579.418 496.42 579.743V582.182C496.42 582.507 496.684 582.77 497.009 582.77Z" fill="#3F3D56"/>
<path d="M484.957 582.77H489.806C490.131 582.77 490.395 582.507 490.395 582.182V579.743C490.395 579.418 490.131 579.155 489.806 579.155H484.957C484.632 579.155 484.369 579.418 484.369 579.743V582.182C484.369 582.507 484.632 582.77 484.957 582.77Z" fill="#3F3D56"/>
<path d="M472.906 582.77H477.755C478.08 582.77 478.343 582.507 478.343 582.182V579.743C478.343 579.418 478.08 579.155 477.755 579.155H472.906C472.581 579.155 472.317 579.418 472.317 579.743V582.182C472.317 582.507 472.581 582.77 472.906 582.77Z" fill="#3F3D56"/>
<path d="M460.854 582.77H465.703C466.028 582.77 466.292 582.507 466.292 582.182V579.743C466.292 579.418 466.028 579.155 465.703 579.155H460.854C460.529 579.155 460.266 579.418 460.266 579.743V582.182C460.266 582.507 460.529 582.77 460.854 582.77Z" fill="#3F3D56"/>
<path d="M448.803 582.77H453.652C453.977 582.77 454.24 582.507 454.24 582.182V579.743C454.24 579.418 453.977 579.155 453.652 579.155H448.803C448.478 579.155 448.214 579.418 448.214 579.743V582.182C448.214 582.507 448.478 582.77 448.803 582.77Z" fill="#3F3D56"/>
<path d="M436.751 582.77H441.6C441.925 582.77 442.189 582.507 442.189 582.182V579.743C442.189 579.418 441.925 579.155 441.6 579.155H436.751C436.426 579.155 436.163 579.418 436.163 579.743V582.182C436.163 582.507 436.426 582.77 436.751 582.77Z" fill="#3F3D56"/>
<path d="M424.7 582.77H429.549C429.874 582.77 430.137 582.507 430.137 582.182V579.743C430.137 579.418 429.874 579.155 429.549 579.155H424.7C424.375 579.155 424.111 579.418 424.111 579.743V582.182C424.111 582.507 424.375 582.77 424.7 582.77Z" fill="#3F3D56"/>
<path d="M505.445 590.001H552.474C552.799 590.001 553.062 589.738 553.062 589.413V586.974C553.062 586.649 552.799 586.386 552.474 586.386H505.445C505.12 586.386 504.856 586.649 504.856 586.974V589.413C504.856 589.738 505.12 590.001 505.445 590.001Z" fill="#3F3D56"/>
<path d="M372.021 295.198H679.724C680.044 295.191 680.348 295.059 680.572 294.83C680.796 294.602 680.921 294.294 680.921 293.974C680.921 293.654 680.796 293.347 680.572 293.118C680.348 292.89 680.044 292.758 679.724 292.751H372.021C371.701 292.758 371.396 292.89 371.173 293.118C370.949 293.347 370.824 293.654 370.824 293.974C370.824 294.294 370.949 294.602 371.173 294.83C371.396 295.059 371.701 295.191 372.021 295.198Z" fill="#3F3D56"/>
<path d="M658.778 286.503C662.739 286.503 665.949 283.221 665.949 279.172C665.949 275.123 662.739 271.841 658.778 271.841C654.818 271.841 651.607 275.123 651.607 279.172C651.607 283.221 654.818 286.503 658.778 286.503Z" fill="#3F3D56"/>
<path d="M634.005 286.503C637.966 286.503 641.176 283.221 641.176 279.172C641.176 275.123 637.966 271.841 634.005 271.841C630.045 271.841 626.834 275.123 626.834 279.172C626.834 283.221 630.045 286.503 634.005 286.503Z" fill="#3F3D56"/>
<path d="M609.232 286.503C613.193 286.503 616.403 283.221 616.403 279.172C616.403 275.123 613.193 271.841 609.232 271.841C605.271 271.841 602.061 275.123 602.061 279.172C602.061 283.221 605.271 286.503 609.232 286.503Z" fill="#3F3D56"/>
<path d="M385.624 274.992C385.624 275.165 385.657 275.337 385.723 275.497C385.788 275.657 385.885 275.803 386.007 275.927C386.129 276.05 386.274 276.147 386.434 276.215C386.593 276.282 386.765 276.316 386.938 276.317H404.533C404.881 276.309 405.212 276.165 405.455 275.916C405.698 275.668 405.834 275.333 405.834 274.986C405.834 274.638 405.698 274.304 405.455 274.055C405.212 273.806 404.881 273.662 404.533 273.654H386.938C386.587 273.658 386.252 273.801 386.005 274.052C385.759 274.302 385.622 274.64 385.624 274.992Z" fill="#3F3D56"/>
<path d="M385.624 279.993C385.624 280.166 385.657 280.338 385.723 280.498C385.788 280.659 385.885 280.805 386.007 280.928C386.129 281.051 386.274 281.149 386.433 281.216C386.593 281.283 386.765 281.318 386.938 281.319H404.533C404.881 281.311 405.213 281.167 405.456 280.918C405.7 280.669 405.836 280.335 405.836 279.987C405.836 279.639 405.7 279.304 405.456 279.056C405.213 278.807 404.881 278.663 404.533 278.655H386.938C386.587 278.66 386.252 278.803 386.005 279.053C385.759 279.304 385.622 279.642 385.624 279.993Z" fill="#3F3D56"/>
<path d="M385.624 284.982C385.622 285.334 385.759 285.671 386.005 285.922C386.252 286.173 386.587 286.316 386.938 286.32H404.533C404.881 286.312 405.212 286.168 405.455 285.919C405.698 285.67 405.834 285.336 405.834 284.988C405.834 284.64 405.698 284.306 405.455 284.057C405.212 283.809 404.881 283.665 404.533 283.657H386.938C386.765 283.657 386.593 283.692 386.434 283.759C386.274 283.826 386.129 283.924 386.007 284.047C385.885 284.17 385.788 284.316 385.723 284.477C385.657 284.637 385.624 284.809 385.624 284.982Z" fill="#3F3D56"/>
<path d="M391.062 323.635H384.74C382.823 323.635 381.269 325.189 381.269 327.106C381.269 329.023 382.823 330.577 384.74 330.577H391.062C392.979 330.577 394.533 329.023 394.533 327.106C394.533 325.189 392.979 323.635 391.062 323.635Z" fill="#E6E6E6"/>
<path d="M463.371 323.635H457.049C455.132 323.635 453.578 325.189 453.578 327.106C453.578 329.023 455.132 330.577 457.049 330.577H463.371C465.288 330.577 466.842 329.023 466.842 327.106C466.842 325.189 465.288 323.635 463.371 323.635Z" fill="#E6E6E6"/>
<path d="M483.859 323.635H477.537C475.62 323.635 474.066 325.189 474.066 327.106C474.066 329.023 475.62 330.577 477.537 330.577H483.859C485.776 330.577 487.33 329.023 487.33 327.106C487.33 325.189 485.776 323.635 483.859 323.635Z" fill="#E6E6E6"/>
<path d="M443.703 323.057H404.408C402.491 323.057 400.937 324.611 400.937 326.528C400.937 328.444 402.491 329.998 404.408 329.998H443.703C445.62 329.998 447.174 328.444 447.174 326.528C447.174 324.611 445.62 323.057 443.703 323.057Z" fill="#E6E6E6"/>
<path d="M540.115 323.057H500.82C498.903 323.057 497.35 324.611 497.35 326.528C497.35 328.444 498.903 329.998 500.82 329.998H540.115C542.032 329.998 543.586 328.444 543.586 326.528C543.586 324.611 542.032 323.057 540.115 323.057Z" fill="#E6E6E6"/>
<path d="M410.345 339.302H404.022C402.105 339.302 400.552 340.856 400.552 342.773C400.552 344.69 402.105 346.244 404.022 346.244H410.345C412.262 346.244 413.815 344.69 413.815 342.773C413.815 340.856 412.262 339.302 410.345 339.302Z" fill="#E6E6E6"/>
<path d="M482.654 339.302H476.331C474.415 339.302 472.861 340.856 472.861 342.773C472.861 344.69 474.415 346.244 476.331 346.244H482.654C484.571 346.244 486.125 344.69 486.125 342.773C486.125 340.856 484.571 339.302 482.654 339.302Z" fill="#E6E6E6"/>
<path d="M503.141 339.302H496.819C494.902 339.302 493.348 340.856 493.348 342.773C493.348 344.69 494.902 346.244 496.819 346.244H503.141C505.058 346.244 506.612 344.69 506.612 342.773C506.612 340.856 505.058 339.302 503.141 339.302Z" fill="#E6E6E6"/>
<path d="M462.986 338.724H423.691C421.774 338.724 420.22 340.278 420.22 342.195C420.22 344.111 421.774 345.665 423.691 345.665H462.986C464.902 345.665 466.456 344.111 466.456 342.195C466.456 340.278 464.902 338.724 462.986 338.724Z" fill="#E6E6E6"/>
<path d="M559.398 338.724H520.103C518.186 338.724 516.632 340.278 516.632 342.195C516.632 344.111 518.186 345.665 520.103 345.665H559.398C561.315 345.665 562.868 344.111 562.868 342.195C562.868 340.278 561.315 338.724 559.398 338.724Z" fill="#E6E6E6"/>
<path d="M429.627 354.969H423.305C421.388 354.969 419.834 356.523 419.834 358.44C419.834 360.357 421.388 361.911 423.305 361.911H429.627C431.544 361.911 433.098 360.357 433.098 358.44C433.098 356.523 431.544 354.969 429.627 354.969Z" fill="#E6E6E6"/>
<path d="M501.936 354.969H495.614C493.697 354.969 492.143 356.523 492.143 358.44C492.143 360.357 493.697 361.911 495.614 361.911H501.936C503.853 361.911 505.407 360.357 505.407 358.44C505.407 356.523 503.853 354.969 501.936 354.969Z" fill="#E6E6E6"/>
<path d="M522.424 354.969H516.101C514.185 354.969 512.631 356.523 512.631 358.44C512.631 360.357 514.185 361.911 516.101 361.911H522.424C524.341 361.911 525.895 360.357 525.895 358.44C525.895 356.523 524.341 354.969 522.424 354.969Z" fill="#E6E6E6"/>
<path d="M482.268 354.391H442.973C441.056 354.391 439.502 355.945 439.502 357.862C439.502 359.778 441.056 361.332 442.973 361.332H482.268C484.185 361.332 485.739 359.778 485.739 357.862C485.739 355.945 484.185 354.391 482.268 354.391Z" fill="#E6E6E6"/>
<path d="M578.68 354.391H539.385C537.468 354.391 535.914 355.945 535.914 357.862C535.914 359.778 537.468 361.332 539.385 361.332H578.68C580.597 361.332 582.151 359.778 582.151 357.862C582.151 355.945 580.597 354.391 578.68 354.391Z" fill="#E6E6E6"/>
<path d="M448.91 370.636H442.587C440.67 370.636 439.116 372.19 439.116 374.107C439.116 376.024 440.67 377.578 442.587 377.578H448.91C450.826 377.578 452.38 376.024 452.38 374.107C452.38 372.19 450.826 370.636 448.91 370.636Z" fill="#E6E6E6"/>
<path d="M521.219 370.636H514.896C512.979 370.636 511.426 372.19 511.426 374.107C511.426 376.024 512.979 377.578 514.896 377.578H521.219C523.136 377.578 524.689 376.024 524.689 374.107C524.689 372.19 523.136 370.636 521.219 370.636Z" fill="#E6E6E6"/>
<path d="M541.706 370.636H535.384C533.467 370.636 531.913 372.19 531.913 374.107C531.913 376.024 533.467 377.578 535.384 377.578H541.706C543.623 377.578 545.177 376.024 545.177 374.107C545.177 372.19 543.623 370.636 541.706 370.636Z" fill="#E6E6E6"/>
<path d="M501.55 370.058H462.255C460.339 370.058 458.785 371.612 458.785 373.529C458.785 375.445 460.339 376.999 462.255 376.999H501.55C503.467 376.999 505.021 375.445 505.021 373.529C505.021 371.612 503.467 370.058 501.55 370.058Z" fill="#E6E6E6"/>
<path d="M463.371 432.935H457.049C455.132 432.935 453.578 434.489 453.578 436.406C453.578 438.323 455.132 439.877 457.049 439.877H463.371C465.288 439.877 466.842 438.323 466.842 436.406C466.842 434.489 465.288 432.935 463.371 432.935Z" fill="#E6E6E6"/>
<path d="M483.859 432.935H477.537C475.62 432.935 474.066 434.489 474.066 436.406C474.066 438.323 475.62 439.877 477.537 439.877H483.859C485.776 439.877 487.33 438.323 487.33 436.406C487.33 434.489 485.776 432.935 483.859 432.935Z" fill="#E6E6E6"/>
<path d="M540.115 433.514H500.82C498.903 433.514 497.35 435.068 497.35 436.984C497.35 438.901 498.903 440.455 500.82 440.455H540.115C542.032 440.455 543.586 438.901 543.586 436.984C543.586 435.068 542.032 433.514 540.115 433.514Z" fill="#E6E6E6"/>
<path d="M391.062 432.935H384.74C382.823 432.935 381.269 434.489 381.269 436.406C381.269 438.323 382.823 439.877 384.74 439.877H391.062C392.979 439.877 394.533 438.323 394.533 436.406C394.533 434.489 392.979 432.935 391.062 432.935Z" fill="#E6E6E6"/>
<path d="M443.703 433.514H404.408C402.491 433.514 400.937 435.068 400.937 436.984C400.937 438.901 402.491 440.455 404.408 440.455H443.703C445.62 440.455 447.174 438.901 447.174 436.984C447.174 435.068 445.62 433.514 443.703 433.514Z" fill="#E6E6E6"/>
<path d="M410.345 417.268H404.022C402.105 417.268 400.552 418.822 400.552 420.739C400.552 422.656 402.105 424.21 404.022 424.21H410.345C412.262 424.21 413.815 422.656 413.815 420.739C413.815 418.822 412.262 417.268 410.345 417.268Z" fill="#E6E6E6"/>
<path d="M482.654 417.268H476.331C474.415 417.268 472.861 418.822 472.861 420.739C472.861 422.656 474.415 424.21 476.331 424.21H482.654C484.571 424.21 486.125 422.656 486.125 420.739C486.125 418.822 484.571 417.268 482.654 417.268Z" fill="#E6E6E6"/>
<path d="M503.141 417.268H496.819C494.902 417.268 493.348 418.822 493.348 420.739C493.348 422.656 494.902 424.21 496.819 424.21H503.141C505.058 424.21 506.612 422.656 506.612 420.739C506.612 418.822 505.058 417.268 503.141 417.268Z" fill="#E6E6E6"/>
<path d="M462.986 417.847H423.691C421.774 417.847 420.22 419.401 420.22 421.317C420.22 423.234 421.774 424.788 423.691 424.788H462.986C464.902 424.788 466.456 423.234 466.456 421.317C466.456 419.401 464.902 417.847 462.986 417.847Z" fill="#E6E6E6"/>
<path d="M429.627 401.601H423.305C421.388 401.601 419.834 403.155 419.834 405.072C419.834 406.989 421.388 408.543 423.305 408.543H429.627C431.544 408.543 433.098 406.989 433.098 405.072C433.098 403.155 431.544 401.601 429.627 401.601Z" fill="#E6E6E6"/>
<path d="M501.936 401.601H495.614C493.697 401.601 492.143 403.155 492.143 405.072C492.143 406.989 493.697 408.543 495.614 408.543H501.936C503.853 408.543 505.407 406.989 505.407 405.072C505.407 403.155 503.853 401.601 501.936 401.601Z" fill="#E6E6E6"/>
<path d="M522.424 401.601H516.101C514.185 401.601 512.631 403.155 512.631 405.072C512.631 406.989 514.185 408.543 516.101 408.543H522.424C524.341 408.543 525.895 406.989 525.895 405.072C525.895 403.155 524.341 401.601 522.424 401.601Z" fill="#E6E6E6"/>
<path d="M482.268 402.18H442.973C441.056 402.18 439.502 403.734 439.502 405.65C439.502 407.567 441.056 409.121 442.973 409.121H482.268C484.185 409.121 485.739 407.567 485.739 405.65C485.739 403.734 484.185 402.18 482.268 402.18Z" fill="#E6E6E6"/>
<path d="M448.91 385.934H442.587C440.67 385.934 439.116 387.488 439.116 389.405C439.116 391.322 440.67 392.876 442.587 392.876H448.91C450.826 392.876 452.38 391.322 452.38 389.405C452.38 387.488 450.826 385.934 448.91 385.934Z" fill="#E6E6E6"/>
<path d="M521.219 385.934H514.896C512.979 385.934 511.426 387.488 511.426 389.405C511.426 391.322 512.979 392.876 514.896 392.876H521.219C523.136 392.876 524.689 391.322 524.689 389.405C524.689 387.488 523.136 385.934 521.219 385.934Z" fill="#E6E6E6"/>
<path d="M541.706 385.934H535.384C533.467 385.934 531.913 387.488 531.913 389.405C531.913 391.322 533.467 392.876 535.384 392.876H541.706C543.623 392.876 545.177 391.322 545.177 389.405C545.177 387.488 543.623 385.934 541.706 385.934Z" fill="#E6E6E6"/>
<path d="M501.55 386.513H462.255C460.339 386.513 458.785 388.067 458.785 389.983C458.785 391.9 460.339 393.454 462.255 393.454H501.55C503.467 393.454 505.021 391.9 505.021 389.983C505.021 388.067 503.467 386.513 501.55 386.513Z" fill="#E6E6E6"/>
<path d="M421.697 657.955C421.432 658.088 421.167 658.221 420.902 658.341C419.227 659.173 417.539 659.992 415.84 660.8C410.754 663.222 405.604 665.524 400.39 667.705C386.67 673.444 372.592 678.286 358.246 682.203C355.836 667.175 353.497 631.731 351.256 605.664C350.834 600.759 350.412 596.191 349.991 592.154C349.59 586.854 348.829 581.587 347.713 576.391C347.604 575.984 347.446 575.591 347.243 575.222C347.472 577.307 347.713 583.525 347.942 592.154C348.062 596.191 348.171 600.759 348.291 605.664C348.858 630.755 349.448 664.897 350.039 684.336C348.364 684.746 346.676 685.156 344.989 685.541C343.929 685.794 342.856 686.035 341.783 686.264C340.482 686.554 339.18 686.843 337.879 687.108C336.517 687.397 335.155 687.674 333.793 687.939C311.539 692.311 288.912 694.507 266.232 694.496C264.726 694.496 263.232 694.483 261.725 694.471C261.267 694.471 260.809 694.459 260.339 694.447C259.014 694.423 257.64 694.399 256.242 694.363C229.44 693.622 202.814 689.784 176.895 682.926L177.943 605.664L178.124 592.154L178.196 587.032C177.599 588.68 177.242 590.405 177.136 592.154C176.714 595.444 176.28 600.108 175.846 605.664C174.195 627.067 172.496 661.595 170.736 681.239C149.899 675.309 134.666 669.898 115.625 660.378C114.889 660.016 114.142 659.643 113.407 659.269C113.54 658.341 113.684 657.413 113.817 656.461C115.974 641.469 113.431 621.957 115.817 605.664C117.637 593.094 119.517 581.018 121.409 570.775C123.699 558.446 126.025 548.756 128.327 544.044C130.978 538.609 133.63 533.258 136.197 528.136C137.305 525.931 138.394 523.766 139.463 521.641C140.041 520.496 140.619 519.363 141.186 518.254C143.765 513.205 146.199 508.541 148.429 504.407C149.996 501.503 151.442 498.875 152.767 496.573C154.322 493.862 155.696 491.62 156.829 489.921C165.196 477.237 177.646 467.794 192.116 463.155L192.477 463.058L192.827 463.203L193.224 463.384L216.194 454.984L226.45 430.29L279.128 427.048L287.636 433.52L291.986 436.834L296.626 440.365L305.159 446.861L307.581 447.608L311.185 448.717L335.83 456.285L336.083 456.177L336.445 456.273C349.612 460.488 361.137 468.702 369.417 479.774C370.237 480.834 370.996 481.931 371.731 483.04C373.732 486.004 376.431 490.692 379.613 496.573C380.927 498.996 382.313 501.623 383.771 504.407C384.651 506.082 392.243 529.775 399.631 553.975C406.536 576.632 413.261 599.734 414.141 605.664C414.297 606.76 414.466 607.869 414.623 608.966C415.623 615.823 416.611 622.729 417.563 629.465C418.973 639.456 420.347 649.097 421.661 657.714C421.673 657.799 421.685 657.871 421.697 657.955Z" fill="#3F3D56"/>
<path opacity="0.2" d="M365.872 570.719L355.632 531.2L346.59 565.301L365.872 570.719Z" fill="black"/>
<path d="M19.0767 570.261C19.6077 571.807 20.6149 573.145 21.9537 574.082C23.2925 575.02 24.894 575.509 26.5283 575.48L58.455 574.659C60.1012 574.627 61.6929 574.063 62.9921 573.051C64.2913 572.039 65.2282 570.634 65.6628 569.046L70.1808 520.735C71.7837 521.461 73.5287 521.82 75.2881 521.784C78.3752 521.707 81.305 520.406 83.4331 518.169C85.5611 515.931 86.7131 512.94 86.6356 509.853C86.5582 506.765 85.2575 503.836 83.0199 501.708C80.7822 499.58 77.7908 498.428 74.7038 498.505C74.0005 498.503 73.2991 498.576 72.6114 498.723C71.8635 497.913 70.9545 497.27 69.9428 496.833C68.9311 496.397 67.8392 496.177 66.7374 496.188L17.6268 497.456C17.2195 497.471 16.8141 497.522 16.4154 497.607C15.3384 497.808 14.317 498.237 13.4197 498.865C12.5225 499.494 11.7703 500.308 11.2139 501.251C10.6574 502.195 10.3096 503.247 10.1938 504.336C10.078 505.426 10.1969 506.527 10.5425 507.567L19.0767 570.261ZM71.1073 517.455L74.3222 505.942C74.6879 504.612 74.6964 503.21 74.3467 501.875C74.5027 501.875 74.6404 501.801 74.7963 501.801C77.0007 501.755 79.1332 502.585 80.7262 504.11C82.3193 505.634 83.2429 507.728 83.2945 509.932C83.3461 512.136 82.5215 514.271 81.0016 515.868C79.4817 517.465 77.3904 518.395 75.1863 518.452C73.7612 518.497 72.3509 518.152 71.1073 517.455Z" fill="#2F2E41"/>
<path d="M16.4155 497.607C17.4617 503.589 29.2251 507.795 43.3697 507.064C56.3766 506.465 67.0117 501.897 68.9602 496.484C68.2391 496.271 67.4892 496.171 66.7374 496.188L17.6269 497.456C17.2195 497.471 16.8142 497.522 16.4155 497.607Z" fill="#3F3D56"/>
<path d="M946.224 659.266C945.489 659.64 944.742 660.013 944.006 660.375C924.965 669.896 909.732 675.307 888.895 681.236C887.135 661.592 885.436 627.065 883.785 605.661C883.351 600.105 882.917 595.441 882.495 592.151C882.389 590.402 882.032 588.677 881.435 587.029L881.507 592.151L881.688 605.661L882.736 682.923C856.817 689.781 830.191 693.619 803.389 694.36C801.991 694.396 800.617 694.421 799.292 694.445C798.822 694.457 798.364 694.469 797.906 694.469C796.399 694.481 794.905 694.493 793.399 694.493C765.155 694.514 737.013 691.102 709.592 684.333C710.183 664.894 710.773 630.752 711.34 605.661C711.46 600.756 711.569 596.189 711.689 592.151C711.918 583.522 712.159 577.304 712.388 575.219C712.185 575.588 712.027 575.981 711.918 576.388C710.802 581.585 710.041 586.851 709.64 592.151C709.219 596.189 708.797 600.756 708.375 605.661C706.133 631.729 703.795 667.172 701.385 682.2C687.039 678.284 672.961 673.441 659.241 667.702C652.01 664.689 644.908 661.44 637.934 657.953C639.26 649.276 640.646 639.55 642.068 629.463C643.176 621.641 644.321 613.603 645.49 605.661C647.298 593.393 708.713 460.91 723.186 456.27L723.548 456.174L723.801 456.283L748.446 448.714L752.05 447.605L754.472 446.858L763.005 440.362L767.644 436.831L771.995 433.517L780.503 427.046L833.181 430.287L843.436 454.981L866.407 463.381L866.804 463.2L867.154 463.056L867.515 463.152C881.985 467.791 894.435 477.235 902.802 489.918C903.935 491.618 905.309 493.859 906.864 496.571C908.189 498.873 909.635 501.5 911.202 504.404C913.432 508.538 915.866 513.202 918.445 518.251C919.011 519.36 919.59 520.493 920.168 521.638C921.241 523.759 922.33 525.924 923.434 528.134C926.001 533.256 928.653 538.606 931.304 544.042C933.606 548.754 935.932 558.443 938.222 570.772C940.114 581.016 941.994 593.091 943.814 605.661C946.2 621.955 943.657 641.466 945.814 656.458C945.947 657.41 946.091 658.338 946.224 659.266Z" fill="#3F3D56"/>
<path d="M791.73 418.181C825.566 418.181 852.995 390.752 852.995 356.916C852.995 323.08 825.566 295.65 791.73 295.65C757.893 295.65 730.464 323.08 730.464 356.916C730.464 390.752 757.893 418.181 791.73 418.181Z" fill="#FFB6B6"/>
<path opacity="0.2" d="M693.757 570.719L703.997 531.2L713.039 565.301L693.757 570.719Z" fill="black"/>
<path d="M966.254 544.97C962.59 595.441 966.386 617.664 946.164 659.278C927.764 668.284 908.599 675.632 888.895 681.236C886.846 681.815 884.793 682.377 882.736 682.923C856.817 689.781 830.191 693.619 803.389 694.36C801.991 694.396 800.617 694.421 799.292 694.445C798.822 694.457 798.364 694.469 797.906 694.469C796.399 694.481 794.905 694.493 793.399 694.493C765.155 694.514 737.013 691.102 709.592 684.333C706.845 683.659 704.109 682.948 701.385 682.2C687.039 678.284 672.961 673.441 659.241 667.702C652.01 664.689 644.908 661.44 637.934 657.953C636.355 657.157 634.776 656.362 633.222 655.542C625.232 641.49 620.688 624.401 620.592 603.865C626.124 568.482 954.033 514.455 966.254 544.97Z" fill="#2F2E41"/>
<path opacity="0.2" d="M966.244 553.613C966.431 550.489 966.64 547.261 966.884 543.9C954.664 513.385 626.754 567.412 621.223 602.796C621.238 606.04 621.377 609.188 621.61 612.262C635.006 577.338 946.525 525.989 966.244 553.613Z" fill="black"/>
<path d="M612.437 547.35L639.352 533.892L616.923 473.333L611.012 442.792C610.244 438.824 608.448 435.127 605.804 432.071C603.159 429.014 599.759 426.706 595.943 425.375C592.127 424.044 588.028 423.739 584.057 424.488C580.086 425.238 576.38 427.017 573.312 429.647C568.765 433.544 565.91 439.056 565.349 445.019C564.789 450.981 566.567 456.929 570.308 461.605L592.251 489.033L612.437 547.35Z" fill="#FFB6B6"/>
<path d="M639.352 522.678L603.465 540.621L630.7 625.957C632.656 632.085 636.161 637.604 640.878 641.978C645.594 646.352 651.36 649.433 657.618 650.923C665.333 652.76 673.434 652.092 680.744 649.016C688.055 645.94 694.196 640.615 698.276 633.814L770.495 510.028C775.613 501.498 777.193 491.305 774.897 481.627C772.601 471.948 766.611 463.55 758.208 458.228C753.688 455.366 748.616 453.487 743.322 452.714C738.028 451.941 732.631 452.292 727.482 453.743C722.332 455.194 717.546 457.714 713.435 461.137C709.324 464.56 705.979 468.811 703.619 473.612L659.539 567.537L639.352 522.678Z" fill="#3F3D56"/>
<path d="M252.489 413.954C289.718 413.954 319.899 383.773 319.899 346.543C319.899 309.314 289.718 279.133 252.489 279.133C215.259 279.133 185.078 309.314 185.078 346.543C185.078 383.773 215.259 413.954 252.489 413.954Z" fill="#A0616A"/>
<path d="M185.888 300.09C191.369 292.703 199.247 287.451 205.272 280.5C208.579 276.687 211.324 272.366 215.041 268.952C221.947 262.609 231.605 260.01 240.976 259.687C251.246 259.423 261.435 261.581 270.716 265.986C279.998 270.391 288.112 276.919 294.402 285.042C299.3 282.17 304.199 279.298 309.097 276.426C311.032 281.519 312.967 286.613 314.903 291.707C316.491 290.326 318.517 289.553 320.621 289.523C322.725 289.493 324.771 290.21 326.398 291.545C328.024 292.88 329.125 294.748 329.506 296.818C329.886 298.888 329.522 301.025 328.477 302.852C329.643 299.25 334.984 298.485 337.929 300.865C340.873 303.245 341.662 307.479 341.181 311.234C340.578 315.354 338.757 319.2 335.951 322.276C333.145 325.353 329.483 327.52 325.436 328.499C319.044 329.923 311.604 328.427 306.488 332.515C302.386 335.793 301.148 341.761 296.962 344.93C291.804 348.835 284.514 347.029 278.102 347.892C266.884 349.402 258.002 360.875 259.35 372.113C258.335 368.567 257.269 364.919 254.965 362.038C252.662 359.157 248.782 357.209 245.249 358.268C239.409 360.019 238.453 367.979 239.869 373.909C243.623 389.636 257.849 415.058 257.849 415.058C239.377 422.344 217.369 415.454 203.117 401.628C188.864 387.801 181.441 368.222 178.208 348.63C175.466 332.016 175.854 313.614 185.888 300.09Z" fill="#2F2E41"/>
<path d="M868.507 390.689C881.332 361.285 874.066 334.228 858.432 319.874V319.862C852.286 306.087 844.115 295.458 834.763 292.963C830.244 290.059 825.857 286.648 820.988 284.913C818.72 284.064 816.304 283.683 813.885 283.792C811.465 283.902 809.094 284.5 806.912 285.551L804.429 284.889C802.32 279.502 799.85 279.393 797.102 282.936C786.521 278.007 776.988 275.802 768.504 275.802C740.833 275.802 724.467 299.23 720.129 327.551L743.256 333.709L751.294 320.898L747.582 334.866L760.345 338.253C779.772 363.549 756.524 421.902 727.058 454.369C734.072 452.429 741.058 450.79 748.016 449.452L773.3 412.382L757.633 446.126C765.768 444.933 776.144 446.078 787.485 448.379C791.305 443.39 793.318 436.738 791.341 430.808C794.573 437.062 796.801 443.784 797.945 450.73C821.88 456.575 854.527 459.575 872.123 461.793C886.338 457.152 886.377 404.741 868.507 390.689Z" fill="#2F2E41"/>
<path d="M876.851 290.671C886.245 311.705 867.29 320.752 849.926 320.497C834.236 320.266 820.902 309.243 820.101 293.572C819.716 286.046 822.337 278.676 827.386 273.083C832.435 267.49 839.5 264.131 847.025 263.747C862.696 262.945 870.452 276.344 876.851 290.671Z" fill="#2F2E41"/>
<path d="M441.064 633.077L425.59 607.268L477.04 568.235L498.431 545.65C501.21 542.716 504.711 540.562 508.583 539.405C512.455 538.247 516.563 538.126 520.497 539.053C524.43 539.981 528.052 541.925 530.999 544.69C533.946 547.456 536.116 550.946 537.291 554.813C539.033 560.543 538.48 566.726 535.75 572.056C533.02 577.387 528.326 581.448 522.658 583.383L489.416 594.732L441.064 633.077Z" fill="#A0616A"/>
<path d="M452.248 632.225L428.157 652.303L421.661 657.714L420.902 658.341C419.227 659.173 417.539 659.992 415.84 660.8C410.754 663.222 405.604 665.524 400.39 667.705C386.67 673.443 372.592 678.286 358.246 682.203C355.522 682.95 352.787 683.661 350.039 684.336C348.364 684.746 346.676 685.156 344.989 685.541C343.929 685.794 342.856 686.035 341.783 686.264C340.482 686.554 339.18 686.843 337.879 687.108C336.517 687.397 335.155 687.674 333.793 687.94C330.129 684.453 327.212 680.258 325.218 675.609C323.225 670.96 322.198 665.954 322.2 660.896C322.2 660.571 322.2 660.233 322.212 659.896L326.08 560.675L327.792 516.7C328.055 506.755 332.198 497.307 339.334 490.376C346.47 483.444 356.035 479.579 365.983 479.605C367.14 479.605 368.285 479.665 369.418 479.774C370.237 480.834 370.996 481.931 371.732 483.04C373.732 486.004 376.432 490.692 379.613 496.573C380.927 498.996 382.313 501.623 383.771 504.407C384.651 506.082 392.243 529.775 399.631 553.975L396.377 579.247L390.496 624.802L414.623 608.966L431.616 597.806L433.628 601.169L438.871 609.918L448.994 626.79L452.248 632.225Z" fill="#3F3D56"/>
<path d="M439.039 603.868C439.027 605.917 438.979 607.93 438.871 609.918C438.619 615.403 437.983 620.864 436.966 626.26C435.303 635.321 432.336 644.093 428.157 652.303C427.602 653.4 427.012 654.485 426.409 655.545C424.855 656.365 423.276 657.16 421.697 657.955C421.432 658.088 421.167 658.221 420.902 658.341C414.189 661.679 407.352 664.801 400.39 667.705C386.67 673.444 372.592 678.286 358.246 682.203C355.522 682.95 352.787 683.661 350.039 684.336C344.676 685.662 339.261 686.863 333.793 687.94C311.539 692.311 288.912 694.507 266.232 694.496C264.726 694.496 263.232 694.484 261.725 694.472C261.267 694.472 260.809 694.459 260.339 694.447C259.014 694.423 257.64 694.399 256.242 694.363C229.44 693.622 202.814 689.784 176.895 682.926C174.834 682.384 172.781 681.822 170.736 681.239C151.032 675.635 131.867 668.287 113.467 659.281C93.245 617.667 97.0412 595.444 93.3775 544.972C100.898 526.184 228.126 539.453 326.08 560.676C352.666 566.436 377.082 572.787 396.377 579.247C416.31 585.911 430.76 592.684 436.424 599.048C437.748 600.365 438.657 602.041 439.039 603.868Z" fill="#2F2E41"/>
<path opacity="0.2" d="M93.3846 553.613C93.1975 550.489 92.9883 547.261 92.7443 543.9C104.965 513.385 432.874 567.412 438.406 602.796C438.391 606.04 438.252 609.188 438.019 612.262C424.623 577.338 113.104 525.989 93.3846 553.613Z" fill="black"/>
<path d="M42.0128 532.528V535.703L37.8419 538.799L42.1486 542.185V545.307L40.2466 546.809L32 540.393V537.231L40.0972 531L42.0128 532.528Z" fill="#F16629"/>
<path d="M40.0972 531L32 537.231L40.0972 543.673L42.1486 542.185L35.9807 537.337L42.0128 532.528L40.0972 531Z" fill="#E34E26"/>
<path d="M43.3578 545.28V542.106L47.515 539.01L43.2083 535.624V532.502L45.1239 531L53.3705 537.429V540.577L45.2598 546.809L43.3578 545.28Z" fill="#F16629"/>
<path d="M45.2598 546.809L53.3705 540.577L45.2598 534.135L43.2083 535.624L49.3899 540.472L43.3578 545.28L45.2598 546.809Z" fill="#E34E26"/>
</g>
<defs>
<clipPath id="clip0_2_747">
<rect width="1060.73" height="694.496" fill="white"/>
</clipPath>
</defs>
</svg>
