<svg width="19" height="18" viewBox="0 0 19 18" fill="none" xmlns="http://www.w3.org/2000/svg">
<path d="M8.71304 1.48058C8.98503 0.839806 10.0143 0.839806 10.2872 1.48058L12.0466 5.83393C12.1698 6.12243 12.4835 6.31451 12.8337 6.31451H17.1574C17.9564 6.31451 18.3049 7.20279 17.6767 7.63782L14.5999 10.1106C14.462 10.2052 14.3613 10.3364 14.3122 10.4854C14.263 10.6343 14.2679 10.7934 14.3262 10.9396L15.4498 15.1935C15.7235 15.8768 14.8379 16.4637 14.1681 16.0431L9.98883 13.6743C9.84571 13.5845 9.67504 13.5363 9.5001 13.5363C9.32517 13.5363 9.1545 13.5845 9.01137 13.6743L4.83211 16.0431C4.16319 16.4637 3.27668 15.8761 3.55037 15.1935L4.67402 10.9396C4.73231 10.7934 4.73722 10.6343 4.68805 10.4854C4.63888 10.3364 4.53816 10.2052 4.40033 10.1106L1.32347 7.63782C0.694494 7.20279 1.04468 6.31451 1.84194 6.31451H6.1657C6.33594 6.31501 6.50234 6.26934 6.64288 6.18352C6.78343 6.09771 6.89149 5.9758 6.95277 5.83393L8.71219 1.48058H8.71304Z" stroke="#F16629" stroke-width="2" stroke-linecap="round" stroke-linejoin="round"/>
</svg>
